<svg xmlns="http://www.w3.org/2000/svg" viewBox="0 0 750 500"><g id="freepik--background-complete--inject-36"><path d="M713.63,393.84c0,.14-149.21.26-333.22.26S47.15,394,47.15,393.84s149.18-.27,333.26-.27S713.63,393.69,713.63,393.84Z" style="fill:#e0e0e0"></path><path d="M415.29,394.75c-.13.06-2.87-6-6.11-13.58s-5.77-13.73-5.64-13.79,2.87,6,6.11,13.58S415.42,394.69,415.29,394.75Z" style="fill:#e0e0e0"></path><path d="M415.51,347c.15,0,1.81,10.38,3.71,23.24s3.34,23.29,3.2,23.31-1.81-10.38-3.71-23.24S415.37,347,415.51,347Z" style="fill:#e0e0e0"></path><path d="M433.07,357.23c.14,0-.26,8.28-.9,18.47s-1.29,18.45-1.43,18.44.26-8.28.91-18.47S432.93,357.22,433.07,357.23Z" style="fill:#e0e0e0"></path><path d="M649.13,363.94c.14,0,2,6.55,4.08,14.71s3.71,14.8,3.57,14.84-2-6.55-4.08-14.71S649,364,649.13,363.94Z" style="fill:#e0e0e0"></path><path d="M661.23,354.23c.15,0,.56,8.53.91,19s.54,19.06.4,19.06-.56-8.52-.92-19S661.09,354.24,661.23,354.23Z" style="fill:#e0e0e0"></path><path d="M674.71,366.94c.14,0-.82,6.54-2.14,14.56S670.05,396,669.91,396s.82-6.54,2.14-14.56S674.57,366.91,674.71,366.94Z" style="fill:#e0e0e0"></path><path d="M48.15,392.25a24.73,24.73,0,0,1-1.5-2.87c-.9-1.78-2.21-4.21-3.83-6.78s-3.27-4.79-4.49-6.37a24.31,24.31,0,0,1-2-2.58s.26.19.65.59.94,1,1.59,1.76a57.4,57.4,0,0,1,4.65,6.32,57.61,57.61,0,0,1,3.72,6.9c.41.92.72,1.67.91,2.2A2.92,2.92,0,0,1,48.15,392.25Z" style="fill:#e0e0e0"></path><path d="M49.6,360.3c.14,0,1.47,7.41,3,16.6s2.59,16.66,2.45,16.68-1.47-7.41-3-16.6S49.46,360.33,49.6,360.3Z" style="fill:#e0e0e0"></path><path d="M64,369.35c.14,0,.16,5.42,0,12.11s-.32,12.1-.46,12.1-.17-5.42-.06-12.11S63.86,369.35,64,369.35Z" style="fill:#e0e0e0"></path><polygon points="712.79 95.45 720.56 96.84 696.34 66.77 701.02 40.46 685.86 37.76 683.53 50.86 674.54 39.7 654.02 36.05 653.99 36.08 630.08 31.82 643.36 47.18 643.36 47.19 680.07 89.63 663.49 86.68 649.47 165.5 698.76 174.28 712.79 95.45" style="fill:#e0e0e0"></polygon><path d="M663.49,86.68l16.58,2.95L643.4,47.23h0L630.08,31.82l-58.72,38.5,8.38,1.49-14,78.82,28,5,7.31-41,26.08,4.64-7.3,41,4.26.76,4,.71,0,0,21.42,3.81ZM640.24,98.16l0,0,1.53-8.6,11.4,2-1.89,10.59-11.44-2ZM587.18,79.82l10.51,1.87L595.8,92.31l-10.51-1.87Zm-4.07,22.89L585,92.09,595.51,94l-1.89,10.62ZM599.55,82l10.52,1.87-1.89,10.62-10.52-1.87Zm-4.07,22.89,1.89-10.62,10.51,1.87L606,106.78Zm26.64-33.37a9.91,9.91,0,1,1,11.49-8A9.9,9.9,0,0,1,622.12,71.54Zm8.26,16,9.58,1.7-1.76,9.93-.06,0-.11.63-.84-.15-.05,0-8.65-1.54Zm-4.07,22.88,1.89-10.62,6.54,1.17,0,0,3,.52-.48,2.7,0,0-1.41,7.91Zm12.56-4.23,0,0,.77-4.34,11.44,2-1.89,10.62-4.38-.78,0,0-7-1.26Z" style="fill:#ebebeb"></path><rect x="589.55" y="124.16" width="41.69" height="26.5" transform="matrix(0.18, -0.98, 0.98, 0.18, 368.17, 714.29)" style="fill:#f5f5f5"></rect><path d="M622.12,71.54a9.91,9.91,0,1,0-8-11.49A9.9,9.9,0,0,0,622.12,71.54Z" style="fill:#f5f5f5"></path><rect x="586.1" y="80.73" width="10.79" height="10.68" transform="translate(403.12 653.33) rotate(-79.91)" style="fill:#f5f5f5"></rect><rect x="583.92" y="92.99" width="10.79" height="10.68" transform="translate(389.25 661.3) rotate(-79.91)" style="fill:#f5f5f5"></rect><rect x="598.47" y="82.93" width="10.79" height="10.68" transform="translate(411.16 667.33) rotate(-79.91)" style="fill:#f5f5f5"></rect><rect x="596.29" y="95.2" width="10.79" height="10.68" transform="translate(397.28 675.3) rotate(-79.91)" style="fill:#f5f5f5"></rect><polygon points="637.3 104.18 637.26 104.13 637.74 101.44 634.7 100.9 634.73 100.94 628.2 99.78 626.31 110.39 635.89 112.1 637.3 104.18" style="fill:#f5f5f5"></polygon><polygon points="653.21 91.61 653.26 91.58 653.22 91.57 653.22 91.54 653.18 91.57 641.82 89.55 640.3 98.07 640.25 98.1 639.89 100.13 651.33 102.16 653.21 91.61" style="fill:#f5f5f5"></polygon><polygon points="638.03 99.79 638.13 99.23 638.18 99.2 639.96 89.21 630.38 87.51 628.49 98.13 637.23 99.68 637.28 99.66 638.03 99.79" style="fill:#f5f5f5"></polygon><polygon points="649.15 114.43 651.04 103.81 639.6 101.77 638.82 106.12 638.86 106.17 637.75 112.43 644.81 113.69 644.78 113.65 649.15 114.43" style="fill:#f5f5f5"></polygon><path d="M367.29,393.84c-5.94-7.8-17.64-12-26.4-7.66A18.58,18.58,0,0,0,311.2,374.3c-4.28-13.55-18-23.54-32.17-23.48s-27.8,10.17-32,23.76a28.25,28.25,0,0,0-25.44-1.22c-8,3.66-14.08,11.82-15.75,20.48Z" style="fill:#e0e0e0"></path><path d="M245,363.48c1.62-2.78,3.08-7,2.4-10.13a13.12,13.12,0,0,0-5.2-7.87,11.43,11.43,0,0,0,2.8,18" style="fill:#e0e0e0"></path><path d="M550.75,80.46c.59-4.28-5.45-7.8-10-8.16-2.16-.18-4.41.15-6.46-.56-4.44-1.55-6.21-7.28-10.54-9.11-3.24-1.37-7-.15-10.11,1.43s-6.24,3.57-9.75,3.79c-3,.2-6.37-.93-9,.56-2,1.11-3,3.4-4.86,4.75s-4.14,1.61-6.36,1.73-4.53.14-6.56,1.07-3.7,3.07-3.28,5.26Z" style="fill:#f5f5f5"></path><path d="M66.84,194.68c11,17.77,37,24.27,55.09,13.81a39.83,39.83,0,0,0,67-4.76c7.82,3.91,17.89,1.28,24-4.94s8.73-15.31,8.56-24.06-2.82-17.24-5.92-25.42c0,0-67.89-18.06-72.66-16.76S66.84,194.68,66.84,194.68Z" style="fill:#e0e0e0"></path><path d="M101.27,169.5c0,1.34,10.44,26.08,10.44,26.08l18,24.11,7.57,73.89,7.55,17.22-5,83.42,12.42-.43,3.2-86.81-3.72-24.9,6.95-26.49,18.52-28.11,11.1-58.27-9.41-1.56-8,40.35-7.48,22.93-9,14.94-9.78,1.58,4.63-86.68L140.69,157l-2.47,46L131.64,208l-7.85-11.41-18.15-31.25Z" style="fill:#ebebeb"></path><path d="M249.37,116.5c-5-12.76-15.55-22.44-25.73-31.65,5.66-3.79,7.71-11.54,6.28-18.2s-5.74-12.36-10.57-17.16c-21.13-21-55.24-27.56-82.66-16l-11.14,1.68c-23.36-5.5-49.67,5.57-62.06,26.13-2.69,4.46-4.79,9.32-8.12,13.31C50.6,80.34,43.74,83.8,37.81,88.3A59.35,59.35,0,0,0,24.4,168.7c4.29,6.39,9.83,12,13.3,18.83,2.52,5,3.92,10.62,7.31,15.07,6.57,8.61,19.31,10.55,29.59,7.15,8.13-2.69,25.57-28.18,28.88-34.82,4,1,21.21.07,24.94-16.51,0,0,9.6,9.29,30.57-3.36,6.31-3.81,16.06,7.48,23.24,11.82,7.71,4.66,14.14,11.15,21.54,16.3s16.41,9,25.26,7.34a22,22,0,0,0,11.54-37.08C252.14,146.05,254.41,129.27,249.37,116.5Z" style="fill:#e0e0e0"></path><path d="M729,272.57c.75-5.44-6.93-9.92-12.7-10.38-2.75-.23-5.61.2-8.22-.71-5.65-2-7.9-9.27-13.42-11.59-4.12-1.74-8.86-.19-12.85,1.82s-8,4.54-12.41,4.82c-3.88.25-8.1-1.19-11.49.71-2.53,1.41-3.86,4.33-6.19,6.05s-5.26,2-8.09,2.19-5.77.18-8.34,1.36-4.72,3.91-4.18,6.7Z" style="fill:#f5f5f5"></path></g><g id="freepik--Floor--inject-36"><path d="M40.87,476.13c0-.15,149.16-.27,333.11-.27s333.15.12,333.15.27-149.13.26-333.15.26S40.87,476.27,40.87,476.13Z" style="fill:#263238"></path></g><g id="freepik--Drawing--inject-36"><polygon points="63.04 82.44 88.08 339.91 181.31 324.61 266.59 346.89 342.73 314.05 425.2 333.65 492.57 299.58 483.35 53.8 418.98 73.32 342.86 53.12 252.01 85.14 159.39 63.99 63.04 82.44" style="fill:#ebebeb"></polygon><path d="M63,82.43l.39-.08,1.2-.25,4.75-.94L88,77.53l71.3-13.8h.11l92.64,21.06h-.2l90.83-32.08.13,0,.12,0L419.1,72.87h-.25L483.2,53.33l.61-.18,0,.63c2.85,75.71,6,158.84,9.26,245.78v.33l-.3.15-1.35.69-66,33.38-.17.08-.18,0-82.47-19.61.31,0-76.14,32.82-.16.06-.16,0-85.28-22.31h.19L88.14,340.31l-.43.07,0-.43C80.09,261,73.9,196.62,69.6,151.93c-2.12-22.31-3.78-39.7-4.9-51.51-.56-5.89-1-10.39-1.26-13.43-.14-1.5-.24-2.65-.31-3.41S63,82.43,63,82.43s.06.41.14,1.18.2,1.93.36,3.45c.3,3,.76,7.57,1.36,13.49,1.17,11.83,2.9,29.24,5.11,51.58,4.39,44.62,10.72,108.94,18.47,187.74l-.47-.36,93.22-15.35h.1l.09,0,85.3,22.25-.32,0,76.13-32.85.16-.07.16,0,82.47,19.58-.35,0,66-33.38,1.35-.69-.28.49c-3.25-86.94-6.36-170.07-9.19-245.78l.63.44-64.37,19.5-.13,0-.13,0L342.75,53.53H343l-90.87,32-.1,0-.1,0-92.6-21.23h.11L88.23,77.74,69.5,81.26l-4.81.89-1.23.22A4.06,4.06,0,0,1,63,82.43Z" style="fill:#263238"></path><polygon points="71.54 89.05 95.2 332.32 183.28 317.86 263.86 338.91 342.57 304.97 424.79 324.46 483.38 292.83 474.67 63.77 422.22 81.16 343.15 60.14 253.27 94.04 162.58 71.63 71.54 89.05" style="fill:#fff"></polygon><path d="M71.54,89.05l91-17.55h.06l90.7,22.37h-.1l89.87-33.93.06,0,.07,0,79.07,21h-.13l52.44-17.39.31-.11v.33c2.69,70.61,5.65,148.09,8.73,229.06V293l-.15.08-2.3,1.24-56.29,30.39-.09.05-.09,0-82.22-19.5h.16L264,339.14l-.08,0-.08,0-80.57-21.07h.09L95.23,332.52l-.21,0,0-.21C80.62,183.25,71.7,90.68,71.54,89.05c.16,1.63,9.24,94.19,23.86,243.25l-.24-.18,88.09-14.48h.09l80.59,21h-.16l78.7-34,.08,0,.08,0,82.22,19.49-.19,0L481,293.84l2.3-1.24-.14.24c-3.07-81-6-158.45-8.69-229.06l.32.22L422.3,81.38l-.07,0-.07,0-79.06-21h.13l-89.9,33.87-.05,0h-.05L162.55,71.76h0Z" style="fill:#263238"></path><path d="M104.32,212.61c4.46,7.16,14.89,9.78,22.2,5.57a16,16,0,0,0,27-1.92c3.15,1.57,7.21.51,9.68-2a13.38,13.38,0,0,0,3.45-9.69,30.64,30.64,0,0,0-2.38-10.24s-27.35-7.28-29.27-6.76S104.32,212.61,104.32,212.61Z" style="fill:#455a64"></path><path d="M118.2,202.47c0,.54,4.2,10.51,4.2,10.51l7.25,9.71,3,29.77,3.05,6.94.38,16,5-.17L140,257.86l-1.49-10,2.8-10.68,7.46-11.32,4.47-23.48-3.79-.63L146.25,218l-3,9.24-3.63,6-3.94.63L137.53,199l-3.45-1.53-1,18.54-2.65,2-3.16-4.6L120,200.81Z" style="fill:#a26760"></path><path d="M177.86,181.12c-2-5.15-6.26-9.05-10.36-12.75,2.28-1.53,3.1-4.65,2.53-7.34a14.37,14.37,0,0,0-4.26-6.91,31.24,31.24,0,0,0-33.31-6.44l-4.48.67a23.7,23.7,0,0,0-25,10.53,40.06,40.06,0,0,1-3.27,5.37c-1.92,2.3-4.68,3.69-7.07,5.5a23.92,23.92,0,0,0-5.4,32.4c1.72,2.57,4,4.82,5.35,7.58,1,2,1.58,4.28,3,6.08,2.65,3.47,7.78,4.25,11.92,2.88,3.27-1.09,10.3-11.36,11.64-14,1.59.38,8.54,0,10-6.65,0,0,3.87,3.74,12.32-1.36,2.54-1.53,6.47,3,9.36,4.76,3.11,1.88,5.7,4.5,8.68,6.57s6.61,3.64,10.18,3A8.87,8.87,0,0,0,174.32,196C179,193,179.89,186.26,177.86,181.12Z" style="fill:#455a64"></path><path d="M143.23,186.88a1.53,1.53,0,0,1,.15.43,7.31,7.31,0,0,1,.22,1.28,9.9,9.9,0,0,1-.75,4.75,10.07,10.07,0,0,1-1.8,2.86,9.26,9.26,0,0,1-3.18,2.29,10.31,10.31,0,0,1-8.86-.26l.38-.18a7.63,7.63,0,0,1-1.42,3.32,8.69,8.69,0,0,1-9.27,3.29l.3-.16a18.52,18.52,0,0,1-6.78,9.28,17.62,17.62,0,0,1-2.88,1.67c-.35.16-.63.25-.82.32a1.14,1.14,0,0,1-.29.09,26.86,26.86,0,0,0,3.81-2.32,18.65,18.65,0,0,0,6.51-9.18l.07-.23.23.07a8.24,8.24,0,0,0,8.7-3.13,7.14,7.14,0,0,0,1.33-3.1l.05-.36.33.17a9.88,9.88,0,0,0,8.43.29,9.3,9.3,0,0,0,4.85-4.87,10.2,10.2,0,0,0,.87-4.59C143.36,187.49,143.18,186.9,143.23,186.88Z" style="fill:#263238"></path><path d="M162.77,205.36a2.83,2.83,0,0,1-1,.45,8.17,8.17,0,0,1-2.94.39,8.46,8.46,0,0,1-4.2-1.3,8.81,8.81,0,0,1-3.46-4.12,9.34,9.34,0,0,1-.49-1.62l.39.17a7.61,7.61,0,0,1-4.69,1,7.31,7.31,0,0,1-3.62-1.39,7,7,0,0,1-1.77-1.86,2.55,2.55,0,0,1-.42-.84A10.9,10.9,0,0,0,143,198.7a7.32,7.32,0,0,0,3.46,1.22,7.4,7.4,0,0,0,4.38-1l.32-.19.07.36a9.07,9.07,0,0,0,.46,1.52,8.68,8.68,0,0,0,3.24,3.92,8.41,8.41,0,0,0,4,1.34A11.57,11.57,0,0,0,162.77,205.36Z" style="fill:#263238"></path><path d="M375.16,189.45c5.65,9.08,18.88,12.4,28.14,7.06a20.35,20.35,0,0,0,34.21-2.44c4,2,9.14.66,12.28-2.52s4.46-7.82,4.38-12.29a39.08,39.08,0,0,0-3-13s-34.67-9.23-37.11-8.56S375.16,189.45,375.16,189.45Z" style="fill:#455a64"></path><path d="M392.75,176.59c0,.68,5.34,13.32,5.34,13.32l9.18,12.32L411.14,240l3.85,8.8.15,20,5.8-.14-.52-21.77-1.9-12.72,3.55-13.53,9.46-14.36,5.67-29.77-4.81-.8-4.06,20.61L424.5,208l-4.6,7.63-5,.81,2.36-44.28-4.37-1.95-1.26,23.51-3.36,2.59-4-5.83-9.27-16Z" style="fill:#a26760"></path><path d="M468.41,149.52c-2.58-6.52-8-11.47-13.15-16.17,2.9-1.94,3.94-5.89,3.21-9.3s-2.93-6.31-5.4-8.77a39.62,39.62,0,0,0-42.23-8.16l-5.68.86a30,30,0,0,0-31.71,13.35c-1.37,2.27-2.44,4.75-4.15,6.79-2.43,2.92-5.94,4.69-9,7a30.33,30.33,0,0,0-6.84,41.07c2.19,3.27,5,6.11,6.79,9.62,1.29,2.55,2,5.43,3.73,7.7,3.36,4.4,9.87,5.39,15.12,3.65,4.15-1.37,13.06-14.39,14.75-17.79,2,.49,10.84,0,12.74-8.43,0,0,4.91,4.75,15.62-1.72,3.22-1.94,8.2,3.82,11.87,6,3.94,2.38,7.22,5.7,11,8.33s8.38,4.61,12.9,3.75a11.24,11.24,0,0,0,5.9-18.94C469.82,164.61,471,156,468.41,149.52Z" style="fill:#455a64"></path><path d="M424.5,156.83a3.65,3.65,0,0,1,.17.54,9.21,9.21,0,0,1,.27,1.63,12.67,12.67,0,0,1-1,6,13.05,13.05,0,0,1-2.29,3.61,11.8,11.8,0,0,1-4,2.88,13,13,0,0,1-11.18-.33l.38-.19a9.48,9.48,0,0,1-1.79,4.19c-2.8,3.77-7.77,5.41-11.67,4.15l.3-.16a23.59,23.59,0,0,1-8.57,11.75,21.89,21.89,0,0,1-3.63,2.12c-.45.21-.8.33-1,.43a1.65,1.65,0,0,1-.36.12,12.4,12.4,0,0,1,1.33-.69,24.3,24.3,0,0,0,8.05-6.7,22.93,22.93,0,0,0,3.76-7.17l.07-.23.23.07c3.69,1.17,8.44-.4,11.11-4a9,9,0,0,0,1.7-4l.05-.36.32.17a12.61,12.61,0,0,0,10.76.37,11.5,11.5,0,0,0,3.89-2.74,12.53,12.53,0,0,0,2.27-3.47,12.9,12.9,0,0,0,1.09-5.85C424.67,157.6,424.45,156.84,424.5,156.83Z" style="fill:#263238"></path><path d="M449.27,180.26a1.17,1.17,0,0,1-.31.17,5.53,5.53,0,0,1-.95.37,10.37,10.37,0,0,1-3.71.47,10.7,10.7,0,0,1-5.29-1.65,11.2,11.2,0,0,1-4.35-5.2,10.8,10.8,0,0,1-.62-2l.39.17a9.75,9.75,0,0,1-5.92,1.32,9.29,9.29,0,0,1-4.56-1.74,9.14,9.14,0,0,1-2.25-2.34,3.72,3.72,0,0,1-.55-1,12.11,12.11,0,0,0,3,3.11,9.2,9.2,0,0,0,4.41,1.56,9.44,9.44,0,0,0,5.6-1.3l.31-.19.08.36a10.26,10.26,0,0,0,.59,1.94,11,11,0,0,0,4.13,5,10.69,10.69,0,0,0,5.06,1.69,11.59,11.59,0,0,0,3.63-.3C448.8,180.4,449.25,180.22,449.27,180.26Z" style="fill:#263238"></path><polygon points="419.07 165.59 397.9 166.1 358.43 122.04 372.68 105.48 419.07 165.59" style="fill:#000080"></polygon><polygon points="419.07 165.59 397.9 166.1 358.43 122.04 372.68 105.48 419.07 165.59" style="opacity:0.30000000000000004"></polygon><polygon points="167.89 168.68 155.04 228.31 162.18 228.14 173.61 175.8 167.89 168.68" style="fill:#000080"></polygon><polygon points="167.89 168.68 155.04 228.31 162.18 228.14 173.61 175.8 167.89 168.68" style="opacity:0.30000000000000004"></polygon><polygon points="161.23 274.8 160.06 225.97 169.75 180.38 179.82 229.94 180.89 274.33 161.23 274.8" style="fill:#e0e0e0"></polygon><rect x="305.81" y="152.78" width="37.14" height="75.32" transform="translate(-4.46 7.81) rotate(-1.37)" style="fill:#e0e0e0"></rect><polygon points="167.9 168.88 179.83 230.13 339.94 226.31 306.77 165.56 167.9 168.88" style="fill:#000080"></polygon><rect x="180.33" y="228.03" width="159.21" height="44.4" transform="translate(-5.91 6.28) rotate(-1.37)" style="fill:#ebebeb"></rect><polygon points="194.06 229.79 195.12 273.99 214.3 273.53 212.91 229.15 194.06 229.79" style="fill:#e0e0e0"></polygon><polygon points="260.73 172.04 212.91 229.15 214.3 273.53 308.58 271.28 306.71 228.53 260.73 172.04" style="fill:#ebebeb"></polygon><polygon points="189.53 229.71 237.92 167.01 260.6 166.47 210.5 229.21 189.53 229.71" style="fill:#000080"></polygon><polygon points="294.64 165.65 331.55 165.23 374.01 105.45 372.17 103.05 336.92 104.58 294.64 165.65" style="fill:#000080"></polygon><polygon points="342.27 144.36 327.08 165.34 331.55 165.23 374.01 105.45 372.17 103.05 342.27 144.36" style="fill:#000080"></polygon><path d="M342.27,144.36a1.31,1.31,0,0,1,.13-.21l.4-.59,1.61-2.29c1.44-2,3.51-4.91,6.11-8.57L372,102.91l.19-.27.2.26,1.83,2.4.11.14-.1.15-14.37,20.25c-10.64,15-20.44,28.71-28.13,39.51l-.06.09h-.1l-4.46.09h-.39l.23-.31c4.7-6.44,8.51-11.66,11.17-15.29l3.07-4.15c.34-.46.61-.81.81-1.07a3,3,0,0,1,.29-.36,2.49,2.49,0,0,1-.25.39l-.76,1.1-3,4.21-11,15.39-.16-.3,4.46-.12-.16.09,28-39.58,14.39-20.24v.3L372,103.2h.39c-8.79,12.08-16.29,22.38-21.6,29.69l-6.23,8.48-1.67,2.25-.44.57C342.33,144.31,342.27,144.37,342.27,144.36Z" style="fill:#263238"></path><polygon points="403.66 157.4 406.32 268.94 340.05 270.52 337.34 157.08 367.86 114.1 403.66 157.4" style="fill:#ebebeb"></polygon><path d="M425.71,189.3a51,51,0,0,1,.52,7.25,52.05,52.05,0,0,1,0,7.26,49.08,49.08,0,0,1-.52-7.24A52.28,52.28,0,0,1,425.71,189.3Z" style="fill:#263238"></path><path d="M425.71,189.3a104.4,104.4,0,0,1-10.58.52c-5.84.14-10.58.13-10.58,0s4.73-.37,10.57-.51S425.71,189.16,425.71,189.3Z" style="fill:#263238"></path><path d="M418.8,203.91a49.81,49.81,0,0,1-.43-7.17,47.72,47.72,0,0,1,.09-7.18,51.6,51.6,0,0,1,.43,7.17A51.12,51.12,0,0,1,418.8,203.91Z" style="fill:#263238"></path><path d="M411.13,204.18a51,51,0,0,1-.43-7.25,51.5,51.5,0,0,1,.08-7.27,49.89,49.89,0,0,1,.44,7.25A52.4,52.4,0,0,1,411.13,204.18Z" style="fill:#263238"></path><polygon points="188.16 229.74 237.92 167.01 260.6 166.47 210.5 229.21 188.16 229.74" style="opacity:0.30000000000000004"></polygon><polygon points="258.92 174.21 306.71 228.53 310.74 228.44 260.73 172.04 258.92 174.21" style="fill:#000080"></polygon><polygon points="258.92 174.21 306.71 228.53 310.74 228.44 260.73 172.04 258.92 174.21" style="opacity:0.30000000000000004"></polygon><polygon points="260.6 166.47 206.54 229.3 212.91 229.15 260.73 172.04 310.76 229.1 312.98 226.31 260.6 166.47" style="fill:#000080"></polygon><path d="M260.6,166.47l.24.26.72.8,2.8,3.16L275,182.77l38.13,43.39.13.14-.12.15-2.21,2.79-.17.22-.18-.21-50-57h.39L259.4,174,213.09,229.3l-.06.08h-.11l-6.38.15H206l.34-.38c16.23-18.8,29.79-34.5,39.31-45.51l11-12.73,2.9-3.33.75-.85.25-.27s-.08.11-.25.31l-.74.88-2.9,3.41-11,12.84-39,45.54-.18-.37,6.38-.16-.17.08L259,173.71l1.53-1.83.2-.24.2.23,50,57.08h-.35l2.22-2.79v.28L275,183l-10.6-12.19-2.79-3.23-.72-.84Z" style="fill:#263238"></path><path d="M214.1,273.94c-.14,0-.5-10-.79-22.29s-.42-22.31-.27-22.31.5,10,.79,22.3S214.25,273.94,214.1,273.94Z" style="fill:#263238"></path><path d="M195.42,274.57c-.15,0-.5-10-.8-22.3s-.41-22.31-.27-22.31.5,10,.79,22.3S195.56,274.56,195.42,274.57Z" style="fill:#263238"></path><rect x="248.38" y="233.62" width="18.68" height="38.87" transform="translate(-5.98 6.23) rotate(-1.37)" style="fill:#455a64"></rect><path d="M250.1,256.68h0a.63.63,0,0,1-.64-.62l-.09-3.93a.62.62,0,0,1,.61-.64h0a.62.62,0,0,1,.64.61l.1,3.93A.64.64,0,0,1,250.1,256.68Z" style="fill:#263238"></path><path d="M250.33,255.4a.2.2,0,0,0-.22-.19.2.2,0,0,0-.21.2.23.23,0,0,0,.13.17v.23a.08.08,0,0,0,.1.08h0a.09.09,0,0,0,.09-.09v-.22A.23.23,0,0,0,250.33,255.4Z" style="fill:#455a64"></path><path d="M253.17,253.78l-2.84.07a.32.32,0,0,1-.32-.3h0a.31.31,0,0,1,.31-.32l2.83-.07a.31.31,0,0,1,.32.3h0A.3.3,0,0,1,253.17,253.78Z" style="fill:#263238"></path><path d="M251.28,253.84a1.35,1.35,0,0,1-.39,0,2.8,2.8,0,0,1-.42,0,.66.66,0,0,1-.5-.22.31.31,0,0,1,0-.31.39.39,0,0,1,.23-.16,1.72,1.72,0,0,1,.43,0,1.06,1.06,0,0,1,.39,0,2,2,0,0,1-.39.05,1.21,1.21,0,0,0-.4.06.2.2,0,0,0-.15.31c.21.24.61.18.83.2A1.81,1.81,0,0,1,251.28,253.84Z" style="fill:#455a64"></path><path d="M257,242.33s0-.65-.07-1.76-.08-2.8-.13-4.58l.05,0-5.55.14.05,0h0v.43l0,.43c0,.29,0,.57,0,.85l0,1.65c0,1,.05,2,.07,3l0-.05,4-.07,1.54,0-1.51.06-4,.12h0v0c0-.93-.05-1.93-.08-3,0-.54,0-1.09,0-1.65,0-.28,0-.56,0-.85v-.86h0l.05-.05,5.54-.13h0V236c0,1.79.06,3.35.09,4.61S257,242.33,257,242.33Z" style="fill:#263238"></path><path d="M256,241.57s0-.5,0-1.35c0-1-.07-2.18-.11-3.49l.05.05-3.82.1s.1-.1,0-.06h0v1.3q0,.65,0,1.26c0,.79,0,1.55.05,2.26l0,0,2.76,0h1l-1,.05-2.78.09h0v-.05c0-.71,0-1.47-.06-2.26q0-.61,0-1.26l0-.65v-.64h0c-.05,0,.06-.07.05-.06l3.82-.08h0v0q0,2,.06,3.51C256,241.09,256,241.57,256,241.57Z" style="fill:#263238"></path><path d="M257.27,255.73c-.06-2-.17-5.76-.34-11.86l.05,0-5.54.14c.1-.11,0,0,.05-.05h0v.83c0,.29,0,.57,0,.85,0,.56,0,1.11,0,1.66,0,1.08.05,2.13.07,3.14.05,2,.09,3.79.12,5.36l0,0,5.55-.1-5.54.17h0v0c0-1.58-.09-3.39-.14-5.37,0-1-.05-2.05-.08-3.14,0-.54,0-1.1,0-1.66,0-.28,0-.56,0-.84V244h0l.05-.05,5.54-.13h0v.05C257.15,250,257.23,253.72,257.27,255.73Z" style="fill:#263238"></path><path d="M256.34,255.1s0-.29,0-.8,0-1.34-.07-2.19c-.05-2-.12-4.56-.2-7.49l0,0-3.82.09,0,0h0v.75c0,.26,0,.51,0,.77l0,1.49c0,1,.05,1.9.07,2.8,0,1.74.07,3.31.09,4.65l0,0,3.82-.05-1,0-2.81.08h0v0c0-1.34-.07-2.91-.12-4.65,0-.89,0-1.83-.07-2.8,0-.49,0-1,0-1.49v-1.52h0l.05-.05,3.82-.09h.05v.05c.06,2.95.11,5.53.15,7.52,0,.85,0,1.57,0,2.18S256.34,255.1,256.34,255.1Z" style="fill:#263238"></path><path d="M257.63,270.76c-.06-2-.17-5.76-.34-11.86l0,0-5.54.14,0-.05h0v.83c0,.29,0,.57,0,.85,0,.56,0,1.11,0,1.66,0,1.08,0,2.13.07,3.14.05,2,.09,3.79.12,5.36l0,0,5.55-.1-5.55.17h0v0c0-1.57-.09-3.38-.14-5.36,0-1,0-2.06-.08-3.14,0-.54,0-1.1,0-1.66,0-.28,0-.56,0-.84v-.84h0l.05,0,5.54-.13h.05v.05C257.51,265,257.59,268.75,257.63,270.76Z" style="fill:#263238"></path><path d="M256.7,270.13s0-.29,0-.8,0-1.34-.07-2.19c-.05-2-.12-4.56-.2-7.49l.05.05-3.82.09c.1-.11,0,0,.05-.05h0v.75c0,.26,0,.51,0,.77l0,1.49c0,1,.05,1.9.07,2.8,0,1.74.07,3.31.09,4.65l0,0,3.82-.05-1,0-2.81.08h0v0c0-1.34-.07-2.91-.12-4.65,0-.89-.05-1.83-.07-2.8,0-.49,0-1,0-1.49l0-.77v-.75h0s-.06.05,0-.05l3.82-.09h.05v0c.06,3,.11,5.53.15,7.52,0,.85,0,1.57,0,2.18S256.7,270.13,256.7,270.13Z" style="fill:#263238"></path><path d="M252.29,241.66a2.36,2.36,0,0,1-.45.42c-.27.21-.5.37-.52.34a2,2,0,0,1,.45-.42A2,2,0,0,1,252.29,241.66Z" style="fill:#263238"></path><path d="M257,242.24s-.23-.1-.49-.29a1.89,1.89,0,0,1-.43-.37s.24.1.49.29S257,242.22,257,242.24Z" style="fill:#263238"></path><path d="M256.72,236.14a1.77,1.77,0,0,1-.4.35,1.63,1.63,0,0,1-.46.26s.16-.18.4-.35A1.28,1.28,0,0,1,256.72,236.14Z" style="fill:#263238"></path><path d="M252.09,236.74s-.22-.07-.46-.22-.43-.29-.41-.31a1.62,1.62,0,0,1,.46.22C251.92,236.58,252.11,236.72,252.09,236.74Z" style="fill:#263238"></path><path d="M252.25,244.73a1.42,1.42,0,0,1-.81-.81s.17.2.4.41S252.27,244.7,252.25,244.73Z" style="fill:#263238"></path><path d="M256.91,243.86s-.14.2-.37.39a1.34,1.34,0,0,1-.43.3s.14-.19.37-.38A1.48,1.48,0,0,1,256.91,243.86Z" style="fill:#263238"></path><path d="M252.5,255.24s-.16.16-.36.34-.36.33-.39.31.11-.21.32-.39A1,1,0,0,1,252.5,255.24Z" style="fill:#263238"></path><path d="M257.11,255.73a1.26,1.26,0,0,1-.41-.27c-.2-.17-.36-.33-.34-.35a1.26,1.26,0,0,1,.41.27C257,255.55,257.13,255.7,257.11,255.73Z" style="fill:#263238"></path><path d="M252.7,259.88a1.82,1.82,0,0,1-.49-.39c-.25-.23-.44-.43-.42-.46a1.82,1.82,0,0,1,.49.39A1.88,1.88,0,0,1,252.7,259.88Z" style="fill:#263238"></path><path d="M257.32,258.86s-.16.23-.4.45a1.78,1.78,0,0,1-.46.37,1.68,1.68,0,0,1,.39-.45A1.92,1.92,0,0,1,257.32,258.86Z" style="fill:#263238"></path><path d="M252.77,270.16s-.12.2-.3.4a1.52,1.52,0,0,1-.38.33s.11-.2.3-.4S252.74,270.14,252.77,270.16Z" style="fill:#263238"></path><path d="M257.53,270.76s-.21-.11-.44-.29-.39-.36-.37-.38a1.32,1.32,0,0,1,.44.3C257.38,270.57,257.55,270.74,257.53,270.76Z" style="fill:#263238"></path><path d="M264.32,242.16s0-.65-.06-1.77-.08-2.8-.14-4.58l.05.05-5.54.14s.1-.1.05-.06h0v.84c0,.29,0,.57,0,.85l0,1.65c0,1.05,0,2.05.06,3l0,0,4-.08h1.53l-1.5.06-4,.12h0v-.05c0-.93-.05-1.92-.08-3,0-.53,0-1.08,0-1.64,0-.28,0-.57,0-.86V236h0c-.05,0,.06-.07.05-.06l5.54-.12h0v.05c0,1.79.06,3.35.08,4.61S264.32,242.16,264.32,242.16Z" style="fill:#263238"></path><path d="M263.39,241.39s0-.5-.06-1.35c0-1-.06-2.18-.1-3.48l0,0-3.82.1s.09-.1.05,0h0v.64l0,.65,0,1.26c0,.79,0,1.55.05,2.27l-.05-.05,2.76,0h1.06s-.37,0-1,.05l-2.79.09h0v0c0-.72,0-1.47-.06-2.27l0-1.25,0-.66v-.64h0s.07-.07.06-.05l3.81-.09h.05v.05q0,2,.06,3.51C263.39,240.92,263.39,241.39,263.39,241.39Z" style="fill:#263238"></path><path d="M264.64,255.56c-.05-2-.16-5.77-.33-11.87l.05.05-5.54.13c.1-.1,0,0,.05-.05h0v.85c0,.28,0,.56,0,.84,0,.56,0,1.12,0,1.66,0,1.09.05,2.14.07,3.14,0,2,.08,3.8.12,5.37l0,0,5.54-.09-5.54.17h0v0c0-1.57-.09-3.38-.14-5.36,0-1-.05-2.06-.07-3.15,0-.54,0-1.09,0-1.65l0-.85v-.83h0l.06-.06,5.54-.13h.05v.05C264.53,249.79,264.6,253.54,264.64,255.56Z" style="fill:#263238"></path><path d="M263.71,254.92s0-.28,0-.8,0-1.33-.06-2.19c-.06-2-.13-4.55-.21-7.49l0,.05-3.81.1.05-.06h0v.77c0,.25,0,.51,0,.76,0,.5,0,1,0,1.49,0,1,0,1.91.06,2.8,0,1.74.07,3.31.1,4.65l0,0,3.82-.06-1,0-2.81.09h0v0c0-1.34-.08-2.91-.12-4.64,0-.9-.05-1.84-.07-2.81,0-.49,0-1,0-1.49,0-.25,0-.5,0-.76v-.75h0l.05-.06,3.82-.09h.05v.05c.06,2.95.12,5.53.16,7.53l0,2.18C263.72,254.65,263.71,254.92,263.71,254.92Z" style="fill:#263238"></path><path d="M265,270.59c-.06-2-.16-5.77-.33-11.87l.05,0-5.54.13.05,0h0v.85c0,.28,0,.56,0,.84,0,.56,0,1.12,0,1.66,0,1.09.05,2.14.07,3.14,0,2,.08,3.8.12,5.37l0,0,5.54-.09-5.54.17h0v0c0-1.57-.09-3.38-.14-5.37,0-1,0-2.05-.08-3.14,0-.54,0-1.09,0-1.65,0-.28,0-.57,0-.85v-.85h0l.06-.05,5.54-.13h0v.05C264.89,264.82,265,268.57,265,270.59Z" style="fill:#263238"></path><path d="M264.07,270s0-.29,0-.8,0-1.33-.07-2.19c-.05-2-.12-4.55-.2-7.49l.05,0-3.81.09.05-.05h0v.77c0,.25,0,.51,0,.76,0,.5,0,1,0,1.49,0,1,0,1.91.06,2.8,0,1.74.07,3.31.1,4.65l0,0,3.82-.06-1,0-2.81.09h0v0c0-1.34-.08-2.91-.12-4.65,0-.89-.05-1.83-.07-2.8,0-.49,0-1,0-1.49,0-.25,0-.51,0-.76v-.75h0l.05-.06,3.82-.09h.05v.05c.06,2.95.12,5.53.16,7.53,0,.84,0,1.57,0,2.17Z" style="fill:#263238"></path><path d="M259.66,241.48a1.92,1.92,0,0,1-.45.43,1.82,1.82,0,0,1-.51.34,1.92,1.92,0,0,1,.45-.43A1.82,1.82,0,0,1,259.66,241.48Z" style="fill:#263238"></path><path d="M264.35,242.06s-.23-.1-.49-.29-.45-.35-.43-.37a1.67,1.67,0,0,1,.49.29A1.88,1.88,0,0,1,264.35,242.06Z" style="fill:#263238"></path><path d="M264.09,236s-.16.18-.4.35a1.39,1.39,0,0,1-.45.26s.16-.18.39-.34A1.53,1.53,0,0,1,264.09,236Z" style="fill:#263238"></path><path d="M259.47,236.57a1.74,1.74,0,0,1-.47-.22c-.24-.15-.42-.29-.41-.32a1.4,1.4,0,0,1,.47.23C259.3,236.4,259.48,236.54,259.47,236.57Z" style="fill:#263238"></path><path d="M259.63,244.55a1.42,1.42,0,0,1-.81-.81,7.74,7.74,0,0,0,.81.81Z" style="fill:#263238"></path><path d="M264.29,243.69s-.15.19-.37.38a.27.27,0,1,1-.07-.08C264.07,243.8,264.27,243.66,264.29,243.69Z" style="fill:#263238"></path><path d="M259.87,255.07s-.15.16-.35.33-.37.33-.39.31.11-.2.32-.38S259.86,255,259.87,255.07Z" style="fill:#263238"></path><path d="M264.49,255.55a1.16,1.16,0,0,1-.41-.27c-.21-.17-.36-.32-.34-.34s.2.09.4.26A1.4,1.4,0,0,1,264.49,255.55Z" style="fill:#263238"></path><path d="M260.08,259.7a1.91,1.91,0,0,1-.49-.38,1.66,1.66,0,0,1-.42-.46,1.91,1.91,0,0,1,.49.38A1.88,1.88,0,0,1,260.08,259.7Z" style="fill:#263238"></path><path d="M264.7,258.69a1.71,1.71,0,0,1-.4.44,1.66,1.66,0,0,1-.47.37,1.71,1.71,0,0,1,.4-.44A1.66,1.66,0,0,1,264.7,258.69Z" style="fill:#263238"></path><path d="M260.14,270s-.11.2-.3.4-.35.35-.37.33.11-.2.3-.4S260.12,270,260.14,270Z" style="fill:#263238"></path><path d="M264.91,270.59a1.44,1.44,0,0,1-.44-.3c-.23-.19-.39-.36-.37-.38a1.44,1.44,0,0,1,.44.3C264.76,270.39,264.93,270.56,264.91,270.59Z" style="fill:#263238"></path><path d="M206.54,229.3a2.2,2.2,0,0,1-.5.06l-1.46.07-5.49.2-19.26.55h-.2l0-.2c-1.05-5.35-2.21-11.28-3.43-17.51l-5.95-30.95c-.73-3.93-1.33-7.13-1.75-9.39l-.45-2.56c0-.26-.07-.48-.1-.67a.79.79,0,0,1,0-.23,1,1,0,0,1,.07.22c0,.18.09.4.16.66.13.63.31,1.47.54,2.54l1.91,9.36,6.1,30.92c1.21,6.24,2.35,12.17,3.39,17.52l-.24-.2,19.26-.36,5.5-.07H206A2.81,2.81,0,0,1,206.54,229.3Z" style="fill:#263238"></path><polygon points="374.01 105.45 422.71 165.5 416.81 165.65 371.7 108.7 374.01 105.45" style="fill:#000080"></polygon><path d="M374,105.45l-.14.21-.42.62-1.69,2.46v-.09c6,7.4,23.9,29.89,45.26,56.83l-.21-.09,3.28-.08,2.62-.06-.2.42-34.34-42.54-10.36-12.89L375,106.71l-.73-.93a3,3,0,0,1-.25-.33,2.56,2.56,0,0,1,.25.28l.73.88,2.82,3.43,10.44,12.74,34.66,42.56.34.41-.53,0-2.61.06-3.29.08h-.13l-.08-.1c-21.35-27-39.14-49.54-45-57.06l0,0,0,0,1.79-2.44.44-.59A.88.88,0,0,1,374,105.45Z" style="fill:#263238"></path><path d="M332.54,165c0,.15-9,.48-20.07.74s-20.09.37-20.09.22,9-.47,20.07-.74S332.53,164.89,332.54,165Z" style="fill:#263238"></path><rect x="279.52" y="232.94" width="12.84" height="38.87" transform="translate(-5.95 6.91) rotate(-1.37)" style="fill:#fff"></rect><path d="M292.82,271.65a.55.55,0,0,1,0-.2c0-.16,0-.35,0-.58,0-.54,0-1.27-.08-2.2-.06-1.94-.15-4.7-.27-8.14-.19-6.93-.46-16.6-.78-27.73l.26.25-12.83.31c.51-.53.14-.14.26-.26h0v.71l0,.73,0,1.44c0,1,.05,1.92.07,2.86,0,1.89.09,3.76.13,5.58.08,3.64.16,7.14.23,10.45.13,6.59.25,12.4.34,17.08l-.17-.17,9.39-.13,2.54,0h.91a.58.58,0,0,1-.21,0l-.63,0-2.51.1-9.48.32h-.17V272c-.13-4.68-.29-10.49-.47-17.08-.09-3.31-.18-6.8-.27-10.45,0-1.82-.09-3.68-.14-5.57,0-1,0-1.9-.07-2.86l0-1.45,0-.73v-.7h0c.12-.13-.25.25.26-.28l12.83-.3h.25v.25c.22,11.2.41,20.93.55,27.91.05,3.41.09,6.15.12,8.09,0,.9,0,1.62,0,2.14S292.83,271.67,292.82,271.65Z" style="fill:#263238"></path><path d="M292.25,243.22a39.75,39.75,0,0,1-6.41.41,39.37,39.37,0,0,1-6.42-.11,40,40,0,0,1,6.41-.41A37.93,37.93,0,0,1,292.25,243.22Z" style="fill:#263238"></path><path d="M292.6,259.33a41.46,41.46,0,0,1-6.41.41,39.3,39.3,0,0,1-6.42-.11,39.88,39.88,0,0,1,6.41-.41A38,38,0,0,1,292.6,259.33Z" style="fill:#263238"></path><path d="M286.52,271.71c-.15,0-.47-8.61-.72-19.24s-.35-19.25-.2-19.25.46,8.6.72,19.24S286.66,271.7,286.52,271.71Z" style="fill:#263238"></path><rect x="361.36" y="230.9" width="12.84" height="38.87" transform="translate(-5.88 8.86) rotate(-1.37)" style="fill:#fff"></rect><path d="M374.66,269.62a1.07,1.07,0,0,1,0-.21l0-.58c0-.54-.05-1.27-.09-2.2-.06-1.94-.15-4.7-.26-8.14-.2-6.93-.47-16.6-.78-27.73l.26.25-12.83.31c.5-.53.14-.14.25-.26v.72l0,.73c0,.48,0,1,0,1.44,0,1,0,1.92.06,2.86,0,1.9.09,3.76.13,5.58.08,3.64.16,7.14.23,10.45.14,6.59.25,12.4.35,17.08l-.18-.17,9.39-.13,2.54,0h.67l.24,0-.21,0-.63,0-2.5.1-9.49.32h-.17v-.17c-.13-4.68-.3-10.49-.48-17.08-.08-3.31-.17-6.8-.27-10.45,0-1.82-.09-3.68-.13-5.57,0-1,0-1.9-.07-2.86,0-.48,0-1,0-1.45l0-.73v-.7h0c.11-.13-.26.25.25-.28l12.83-.3H374v.25c.22,11.2.41,20.93.55,27.91.05,3.42.1,6.16.12,8.09,0,.9,0,1.62,0,2.14S374.67,269.63,374.66,269.62Z" style="fill:#263238"></path><path d="M373.52,241.47a40,40,0,0,1-6.41.41,38.15,38.15,0,0,1-6.43-.11,41.46,41.46,0,0,1,6.41-.41A39.46,39.46,0,0,1,373.52,241.47Z" style="fill:#263238"></path><path d="M373.86,257.58a39.88,39.88,0,0,1-6.41.41,38,38,0,0,1-6.42-.11,40,40,0,0,1,6.41-.41A39.3,39.3,0,0,1,373.86,257.58Z" style="fill:#263238"></path><path d="M367.78,270c-.15,0-.47-8.61-.72-19.24s-.35-19.25-.2-19.25.46,8.61.72,19.24S367.92,270,367.78,270Z" style="fill:#263238"></path><rect x="376.44" y="230.82" width="12.84" height="38.87" transform="translate(-5.87 9.22) rotate(-1.37)" style="fill:#fff"></rect><path d="M389.74,269.53s0-.07,0-.2,0-.35,0-.58c0-.54-.05-1.27-.08-2.2-.07-1.94-.16-4.7-.27-8.14-.2-6.94-.47-16.61-.78-27.73l.26.24-12.83.32c.5-.54.14-.14.25-.26h0v.71l0,.72,0,1.45c0,1,0,1.91.07,2.86,0,1.89.08,3.75.13,5.58.08,3.64.15,7.14.23,10.44.13,6.59.25,12.41.34,17.08l-.17-.16,9.38-.13,2.55,0h.9s-.06,0-.2,0l-.64,0-2.5.1-9.49.32h-.17v-.17c-.13-4.67-.29-10.49-.48-17.08-.08-3.3-.17-6.8-.26-10.44-.05-1.83-.09-3.69-.14-5.58,0-.94-.05-1.9-.07-2.86,0-.48,0-1,0-1.44V231h0c.11-.12-.26.26.26-.27l12.83-.3h.25v.25c.23,11.2.42,20.94.55,27.92.06,3.41.1,6.15.13,8.08,0,.91,0,1.62,0,2.15A5.43,5.43,0,0,1,389.74,269.53Z" style="fill:#263238"></path><path d="M389.18,241.09a39.28,39.28,0,0,1-6.41.42,40.7,40.7,0,0,1-6.42-.11,80.85,80.85,0,0,1,12.83-.31Z" style="fill:#263238"></path><path d="M389.53,257.2a39.28,39.28,0,0,1-6.41.42,40.86,40.86,0,0,1-6.43-.11,80.94,80.94,0,0,1,12.84-.31Z" style="fill:#263238"></path><path d="M383.44,269.58c-.14,0-.46-8.61-.72-19.23s-.34-19.25-.2-19.26.47,8.61.72,19.24S383.59,269.58,383.44,269.58Z" style="fill:#263238"></path><rect x="224.12" y="234.27" width="12.84" height="38.87" transform="translate(-6 5.58) rotate(-1.37)" style="fill:#fff"></rect><path d="M237.41,273s0-.08,0-.21l0-.57c0-.54-.05-1.27-.08-2.2-.07-1.95-.16-4.7-.27-8.14-.19-6.94-.46-16.61-.78-27.74l.26.25-12.83.32c.5-.54.14-.15.25-.26h0v.71l0,.72,0,1.45c0,1,.05,1.91.07,2.86,0,1.89.09,3.75.13,5.57.08,3.65.16,7.15.23,10.45.13,6.59.25,12.41.34,17.08l-.17-.16L234,273h3.44l-.2,0-.64,0-2.5.11-9.48.32h-.17v-.17c-.13-4.67-.29-10.49-.47-17.08-.09-3.3-.18-6.8-.27-10.44,0-1.83-.09-3.69-.14-5.58,0-.95,0-1.9-.07-2.86l0-1.45,0-.72v-.71h0l.26-.28,12.83-.29h.25v.25c.22,11.2.41,20.93.55,27.91.05,3.42.09,6.16.12,8.09,0,.91,0,1.62,0,2.15A5.43,5.43,0,0,1,237.41,273Z" style="fill:#263238"></path><path d="M236.85,244.54a39.75,39.75,0,0,1-6.41.41,40.05,40.05,0,0,1-6.42-.1,39.28,39.28,0,0,1,6.41-.42A40.7,40.7,0,0,1,236.85,244.54Z" style="fill:#263238"></path><path d="M237.2,260.65a40,40,0,0,1-6.41.41,40,40,0,0,1-6.42-.1,39,39,0,0,1,6.41-.42A40.77,40.77,0,0,1,237.2,260.65Z" style="fill:#263238"></path><path d="M231.11,273c-.14,0-.46-8.61-.72-19.24s-.34-19.25-.2-19.25.47,8.61.72,19.24S231.26,273,231.11,273Z" style="fill:#263238"></path><rect x="242.92" y="199.62" width="29" height="21.5" transform="translate(-4.95 6.21) rotate(-1.37)" style="fill:#fff"></rect><path d="M272.17,220.77a2.45,2.45,0,0,1,0-.41c0-.3,0-.68-.05-1.16,0-1-.09-2.51-.16-4.36-.12-3.77-.28-9.11-.48-15.56l.21.2-29,.75c-.06.05.48-.51.25-.27h0v.7l0,.72,0,1.43c0,.95,0,1.9.07,2.83,0,1.88.08,3.72.13,5.52.08,3.6.15,7,.22,10.28l-.24-.23,20.87-.39,6-.08h1.59a3.73,3.73,0,0,1,.57,0,3.47,3.47,0,0,1-.51,0l-1.55.06-5.91.21-21,.62H243v-.23c-.08-3.24-.17-6.68-.26-10.28-.05-1.8-.09-3.64-.14-5.51,0-.94,0-1.88-.07-2.84l0-1.43,0-.72V200h0c-.22.24.31-.32.26-.27l29-.64h.22v.22c.11,6.51.2,11.89.27,15.7,0,1.83,0,3.28,0,4.31,0,.46,0,.83,0,1.12A1.39,1.39,0,0,1,272.17,220.77Z" style="fill:#263238"></path><path d="M264.73,204.81a50,50,0,0,1-5.85,4.22,48.91,48.91,0,0,1-6.14,3.79,51.39,51.39,0,0,1,5.85-4.22A50.39,50.39,0,0,1,264.73,204.81Z" style="fill:#263238"></path><path d="M257.25,212.53a18.88,18.88,0,0,1-5.34,3.35,18.88,18.88,0,0,1,5.34-3.35Z" style="fill:#263238"></path><rect x="309.54" y="237.36" width="29" height="21.5" transform="translate(-5.84 7.82) rotate(-1.37)" style="fill:#fff"></rect><path d="M338.8,258.52a2.52,2.52,0,0,1,0-.42c0-.29,0-.67,0-1.15,0-1-.1-2.51-.16-4.36-.12-3.77-.29-9.11-.49-15.57l.22.21-29,.74.25-.26h0v.7l0,.72,0,1.43c0,.95.05,1.9.07,2.83q.06,2.81.12,5.52c.08,3.6.16,7,.23,10.27l-.24-.23,20.86-.38,6-.08h1.6a3.73,3.73,0,0,1,.57,0l-.51,0-1.55.06-5.92.2-21,.62h-.23v-.24c-.08-3.23-.17-6.67-.26-10.27-.05-1.8-.09-3.64-.14-5.52,0-.93-.05-1.88-.07-2.83l0-1.43,0-.72v-.7h0l.26-.27,29-.64h.22V237c.11,6.51.2,11.9.26,15.71,0,1.83,0,3.28.05,4.31,0,.46,0,.83,0,1.12A2.53,2.53,0,0,1,338.8,258.52Z" style="fill:#263238"></path><path d="M331.36,242.56a50,50,0,0,1-5.85,4.22,50.39,50.39,0,0,1-6.14,3.79,100.35,100.35,0,0,1,12-8Z" style="fill:#263238"></path><path d="M323.88,250.28a9.73,9.73,0,0,1-2.53,1.89,9.94,9.94,0,0,1-2.81,1.46,9.63,9.63,0,0,1,2.53-1.9A9.92,9.92,0,0,1,323.88,250.28Z" style="fill:#263238"></path><rect x="356.52" y="169.42" width="29" height="29" transform="translate(-4.29 8.92) rotate(-1.37)" style="fill:#fff"></rect><path d="M385.86,198.08a5.49,5.49,0,0,1,0-.56c0-.39,0-.91-.06-1.57-.05-1.41-.11-3.4-.2-5.92-.15-5.09-.36-12.3-.62-20.94l.23.22-29,.73c-.06.05.48-.51.26-.27h0v1l0,1c0,.66,0,1.31,0,2q0,2,.09,3.87.09,3.84.17,7.5c.11,4.86.21,9.46.3,13.67l-.23-.22,20.95-.38,5.92-.08,1.57,0a3.64,3.64,0,0,1,.56,0,2.9,2.9,0,0,1-.5,0l-1.53.07-5.87.2-21.09.61h-.22v-.22c-.11-4.22-.22-8.81-.35-13.68q-.09-3.66-.19-7.5c0-1.27-.06-2.57-.09-3.87,0-.65,0-1.31-.05-2l0-1v-1h0l.26-.28,29-.65h.23v.23c.17,8.7.3,16,.39,21.09,0,2.5.07,4.48.09,5.87,0,.64,0,1.15,0,1.53A2.71,2.71,0,0,1,385.86,198.08Z" style="fill:#263238"></path><path d="M378.24,174.78a49.32,49.32,0,0,1-5.85,4.23,50.76,50.76,0,0,1-6.13,3.79,49,49,0,0,1,5.85-4.22A51.7,51.7,0,0,1,378.24,174.78Z" style="fill:#263238"></path><path d="M370.77,182.51a9.9,9.9,0,0,1-2.54,1.89,9.78,9.78,0,0,1-2.81,1.45A9.9,9.9,0,0,1,368,184,9.2,9.2,0,0,1,370.77,182.51Z" style="fill:#263238"></path><rect x="404.84" y="202.75" width="21.85" height="8.09" transform="translate(-4.82 10) rotate(-1.37)" style="fill:#ebebeb"></rect><path d="M426.61,189.16a.9.9,0,1,1-.92-.89A.9.9,0,0,1,426.61,189.16Z" style="fill:#263238"></path><polygon points="192.38 275.75 183.21 275.97 176.15 282 185.93 283.71 198.75 280.68 192.38 275.75" style="fill:#e0e0e0"></polygon><polygon points="197.77 275.62 201.29 279.44 208.81 280.07 210 275.33 197.77 275.62" style="fill:#e0e0e0"></polygon><polygon points="214.04 275.23 211.05 280.49 220.52 285.18 228.03 277.49 221.02 275.06 214.04 275.23" style="fill:#e0e0e0"></polygon><path d="M475.49,267.29c0,.14-83.64,2.26-186.79,4.72s-186.81,4.35-186.82,4.21,83.62-2.26,186.81-4.73S475.49,267.14,475.49,267.29Z" style="fill:#263238"></path><rect x="252.31" y="225.95" width="9.39" height="2.94" transform="translate(-5.36 6.21) rotate(-1.37)" style="fill:#e0e0e0"></rect><polygon points="228.38 274.89 234.28 278.65 241.13 274.58 228.38 274.89" style="fill:#e0e0e0"></polygon><polygon points="239.15 278.92 245.47 274.49 256.39 274.23 252.74 281.86 239.15 278.92" style="fill:#e0e0e0"></polygon><polygon points="258.97 274.16 257.9 279.61 268.36 279.36 264.19 274.04 258.97 274.16" style="fill:#e0e0e0"></polygon><polygon points="268.24 274.18 274.06 278.98 284.62 273.79 268.24 274.18" style="fill:#e0e0e0"></polygon><polygon points="288.14 273.71 282.86 277.49 292.18 280.92 303.49 278.52 305.13 274.2 299.86 273.18 288.14 273.71" style="fill:#e0e0e0"></polygon><polygon points="310.16 273.83 308.71 276.75 313.85 278.27 317.61 273.65 310.16 273.83" style="fill:#e0e0e0"></polygon><polygon points="321.71 272.9 318.33 277.79 324.85 281.85 337.35 279.3 343.05 272.39 321.71 272.9" style="fill:#e0e0e0"></polygon><path d="M142.56,271c2.25-.72,5.53,1.07,7.38,2.52-.63-2,1.18-4.06,3.21-4.51s4.11.23,6.08.91a7.17,7.17,0,0,1,12-7.6,14,14,0,0,1,12.59,4.36c-.75-.75.17-2.17,1.23-2.18a3.46,3.46,0,0,1,2.58,1.65,14.41,14.41,0,0,1,3,7.83l-52.12,1.3A5.72,5.72,0,0,1,142.56,271Z" style="fill:#455a64"></path><path d="M336.54,268.24a3.69,3.69,0,0,0-6.92-.2,5.62,5.62,0,0,0-1.86-3.11,3.25,3.25,0,0,0-3.45-.41,2.32,2.32,0,0,0-.92,3.14l-6.64-5.54c-.69-.56-1.72-1.13-2.37-.52a1.78,1.78,0,0,0-.31,1.55,24.53,24.53,0,0,0,1.54,6.09,5.4,5.4,0,0,0-4.72-1.49,6.84,6.84,0,0,0-4.28,3.64l38.9-.93A6.69,6.69,0,0,0,336.54,268.24Z" style="fill:#455a64"></path><path d="M403.66,157.4s0,.08,0,.22,0,.37,0,.63c0,.59,0,1.42.09,2.48.07,2.2.17,5.36.29,9.35.22,8,.52,19.45.88,32.93l-.24-.23,21.84-.55h.26v.26c.06,2.57.13,5.31.19,8.09v.26h-.26l-2.06,0-19.78.47.24-.26c.36,16.66.68,31.11.9,41.42.09,5.13.17,9.23.22,12.07,0,1.39,0,2.47,0,3.23v.84a.9.9,0,0,1,0,.28l0-.28c0-.21,0-.49,0-.84,0-.76-.06-1.84-.12-3.22-.08-2.85-.2-6.94-.36-12.07-.27-10.31-.65-24.76-1.08-41.42v-.25h.26l19.77-.48,2.07-.05-.26.27c-.06-2.78-.13-5.51-.19-8.09l.27.25-21.85.5h-.23V203c-.28-13.48-.52-24.88-.69-32.93-.07-4-.12-7.16-.16-9.36,0-1.06,0-1.88,0-2.47v-.64A1,1,0,0,1,403.66,157.4Z" style="fill:#263238"></path><path d="M338.47,221.43c-.15,0-.61-14.4-1-32.18s-.65-32.19-.51-32.2.6,14.41,1,32.19S338.61,221.43,338.47,221.43Z" style="fill:#263238"></path><path d="M161.18,272.72c-.15,0-.5-9.87-.79-22.06s-.41-22.06-.27-22.07.5,9.87.79,22.06S161.32,272.72,161.18,272.72Z" style="fill:#263238"></path><path d="M183.28,317.86c-.14,0-.83-6.8-1.54-15.21s-1.16-15.25-1-15.26.83,6.8,1.54,15.21S183.43,317.85,183.28,317.86Z" style="fill:#263238"></path><path d="M168.41,141c-.14,0-1.57-15.5-3.18-34.65s-2.8-34.68-2.65-34.69,1.56,15.5,3.17,34.65S168.55,141,168.41,141Z" style="fill:#263238"></path><path d="M261,339c-.14,0-.63-11.69-1.09-26.11s-.7-26.13-.56-26.14.63,11.69,1.09,26.12S261.15,339,261,339Z" style="fill:#263238"></path><path d="M255.32,159c-.14,0-.72-14.54-1.28-32.48s-.91-32.48-.77-32.49.72,14.54,1.29,32.48S255.47,159,255.32,159Z" style="fill:#263238"></path><path d="M342.57,305c-.14,0-.25-5.09-.23-11.36s.14-11.35.29-11.35.25,5.08.23,11.36S342.72,305,342.57,305Z" style="fill:#263238"></path><path d="M343.07,95.44c-.15,0-.24-7.9-.22-17.65s.16-17.65.3-17.65.24,7.9.22,17.65S343.21,95.44,343.07,95.44Z" style="fill:#263238"></path><path d="M424.79,324.46c-.15,0-.37-10.07-.5-22.49s-.12-22.5,0-22.5.37,10.07.5,22.49S424.93,324.46,424.79,324.46Z" style="fill:#263238"></path><path d="M422.37,95.36a49.64,49.64,0,0,1-.33-7.1,50.28,50.28,0,0,1,.18-7.11,47.07,47.07,0,0,1,.34,7.1A47.56,47.56,0,0,1,422.37,95.36Z" style="fill:#263238"></path><polygon points="225.03 286.9 230.38 280.03 234.91 281.4 237.58 280.09 245.07 282.3 245.23 288.98 237.97 291.21 225.03 286.9" style="fill:#f5f5f5"></polygon><polygon points="202.34 282.31 206.7 282.2 215.91 286.55 207.02 290.28 193.7 285.82 202.34 282.31" style="fill:#f5f5f5"></polygon><polygon points="247.94 283.69 248.04 288.14 256.66 285.71 255.16 283.51 247.94 283.69" style="fill:#f5f5f5"></polygon><polygon points="275.72 281.57 281.69 279.04 291.67 283.48 283.06 285.77 271.15 283.97 275.72 281.57" style="fill:#f5f5f5"></polygon><polygon points="296.27 282.53 305.96 279.83 311.49 280.46 313.36 283.7 301.76 286.86 294.18 283.58 296.27 282.53" style="fill:#f5f5f5"></polygon><polygon points="314.95 280.38 315.03 283.68 326.87 285.12 314.95 280.38" style="fill:#f5f5f5"></polygon><polygon points="168.62 283.11 176.65 276.99 161.29 277.36 152.06 279.43 158.25 284.38 168.62 283.11" style="fill:#f5f5f5"></polygon><polygon points="152.14 282.83 146.52 277.71 135.31 277.98 136.56 281.42 145.05 284.44 152.14 282.83" style="fill:#f5f5f5"></polygon><polygon points="342.25 278.96 346.89 272.95 355.38 272.75 357.49 277.76 351.75 281.2 342.25 278.96" style="fill:#f5f5f5"></polygon><polygon points="359.34 272.65 361.4 276.89 367.93 276.31 374.13 272.3 359.34 272.65" style="fill:#f5f5f5"></polygon></g><g id="freepik--Plants--inject-36"><path d="M237.43,437.69a11.29,11.29,0,0,1,1.13,1.28c.71.83,1.69,2.09,2.85,3.68A96.14,96.14,0,0,1,255.24,470c.6,1.87,1,3.41,1.29,4.47a9.77,9.77,0,0,1,.35,1.68,12,12,0,0,1-.55-1.62c-.31-1.05-.8-2.56-1.44-4.42A112.62,112.62,0,0,0,249,456a113.79,113.79,0,0,0-7.85-13.13c-1.12-1.61-2.05-2.89-2.71-3.77A10.76,10.76,0,0,1,237.43,437.69Z" style="fill:#263238"></path><path d="M257.92,424.91a2,2,0,0,1,.07.53c0,.4.06.91.11,1.52.07,1.31.19,3.22.38,5.57.36,4.7,1.06,11.18,2.29,18.27s2.79,13.43,4.05,18c.62,2.28,1.15,4.11,1.53,5.37l.42,1.46a3.1,3.1,0,0,1,.12.53,2.45,2.45,0,0,1-.22-.49c-.13-.39-.3-.86-.51-1.44-.44-1.24-1-3.06-1.7-5.33a166.88,166.88,0,0,1-4.2-18,164.46,164.46,0,0,1-2.15-18.33c-.14-2.36-.21-4.28-.22-5.6v-1.52A1.8,1.8,0,0,1,257.92,424.91Z" style="fill:#263238"></path><path d="M280,442.57a7.27,7.27,0,0,1-.42,1.28c-.32.81-.74,2-1.21,3.46a61.12,61.12,0,0,0-2.82,23.82c.11,1.55.25,2.79.36,3.65a7.4,7.4,0,0,1,.12,1.35,6.48,6.48,0,0,1-.32-1.32c-.18-.85-.36-2.1-.53-3.64a55.08,55.08,0,0,1,2.84-24c.52-1.46,1-2.63,1.37-3.42A6.82,6.82,0,0,1,280,442.57Z" style="fill:#263238"></path><path d="M365.62,459.84a3.16,3.16,0,0,1,.88.2,17,17,0,0,1,2.3.86,23.22,23.22,0,0,1,11.34,11.15,16.52,16.52,0,0,1,.91,2.27,3.69,3.69,0,0,1,.21.88c-.09,0-.5-1.18-1.45-3a26.05,26.05,0,0,0-4.72-6.36,26.32,26.32,0,0,0-6.45-4.62C366.81,460.32,365.6,459.93,365.62,459.84Z" style="fill:#263238"></path><path d="M380.87,439.41c.15,0,1.43,8,2.88,17.86s2.5,17.92,2.35,17.94-1.43-8-2.87-17.86S380.73,439.43,380.87,439.41Z" style="fill:#263238"></path><path d="M114.78,413.29a12,12,0,0,1,7.62,5.52,21.34,21.34,0,0,1,2.89,9.13c.67,6.2-1.4,13.07-4,18.73-6.09-3.3-9-10.79-10.23-14.68-2-6.15-1.76-18.45,3.73-18.7" style="fill:#000080"></path><path d="M129.43,455.32a10.23,10.23,0,0,1,1.1-10.22,13.6,13.6,0,0,1,9.1-5.26c1.65-.24,3.51-.16,4.73,1a4.38,4.38,0,0,1,1,4.32,8.79,8.79,0,0,1-2.5,3.87c-3.79,3.76-8.14,6.7-13.47,6.32" style="fill:#000080"></path><path d="M127.06,475.32A7.94,7.94,0,0,1,127,474c0-.9-.08-2.08-.13-3.49a35.71,35.71,0,0,1,1.06-11.5,21.9,21.9,0,0,1,5.86-9.9,14.67,14.67,0,0,1,2.83-2.09,8,8,0,0,1,.85-.44c.2-.09.3-.13.31-.11a20.41,20.41,0,0,0-9.42,12.67,38.56,38.56,0,0,0-1.17,11.36c0,1.48,0,2.68,0,3.5A7,7,0,0,1,127.06,475.32Z" style="fill:#263238"></path><path d="M115.46,422.67a2.94,2.94,0,0,1,.18.53c.12.4.26.91.44,1.54.38,1.34.9,3.28,1.52,5.68,1.24,4.81,2.87,11.48,4.49,18.88s3,14.14,3.84,19c.44,2.44.78,4.42,1,5.8.1.64.18,1.17.24,1.58a2.53,2.53,0,0,1,.06.55,1.77,1.77,0,0,1-.14-.54q-.14-.6-.33-1.56c-.28-1.42-.67-3.38-1.15-5.77-1-4.87-2.33-11.59-4-19s-3.2-14.06-4.36-18.89l-1.38-5.72c-.14-.64-.26-1.15-.36-1.55A2.5,2.5,0,0,1,115.46,422.67Z" style="fill:#263238"></path><path d="M121.45,461a24,24,0,0,0-16.6-14.26c-1.89-.43-4.23-.47-5.34,1.11s-.29,3.79.79,5.39a20.46,20.46,0,0,0,21.14,8.29" style="fill:#000080"></path><path d="M107,452.26a5.91,5.91,0,0,1,1.18.23,9.76,9.76,0,0,1,1.37.38,17.34,17.34,0,0,1,1.77.62,21.55,21.55,0,0,1,2.08.94,23.7,23.7,0,0,1,2.28,1.3,26.84,26.84,0,0,1,4.63,3.81,26.37,26.37,0,0,1,3.57,4.82,25.23,25.23,0,0,1,1.15,2.35,19.26,19.26,0,0,1,.8,2.14,18.19,18.19,0,0,1,.5,1.81,13.81,13.81,0,0,1,.27,1.39,6.61,6.61,0,0,1,.13,1.21c-.1,0-.31-1.7-1.2-4.31a20.73,20.73,0,0,0-.84-2.09,23.87,23.87,0,0,0-1.18-2.29,26.7,26.7,0,0,0-3.53-4.72,28,28,0,0,0-4.53-3.78c-.77-.48-1.5-.95-2.22-1.31s-1.4-.69-2-1C108.62,452.71,106.93,452.36,107,452.26Z" style="fill:#263238"></path></g><g id="freepik--character-2--inject-36"><path d="M566.2,232.93a12,12,0,0,0-1.86-4.86c-1.65-2.54-6-5.4-6.13-7.41s-2.34-1.12-2.57,1.28c-.14,1.53,1.74,6.19,1.74,6.19s-3.75-.14-5.7-2.15-9.41-6.79-10.61-5.9c-1.36,1,.65,2,1.42,2.84.59.59,5.23,4.85,5.23,4.85s-10.69-3.49-12.2-3.37-.5,1.88.17,2.1c.43.14-1.32.89-.36,2.49.65,1.08,4.8,3.33,6,3.7l2.5.76-7.85-1.4s-1.67.82,0,2c.74.52,22.88,10.52,24.65,11.14,3,1.08,7.43,2.46,7.43,2.46l3.78-12.84Z" style="fill:#a26760"></path><path d="M651.73,449.63V476l-32.76.16c.17-3.14,17.09-9.5,17.09-9.5l-.69-16.87Z" style="fill:#455a64"></path><g style="opacity:0.6000000000000001"><path d="M646.18,465.16a1.34,1.34,0,0,1,.93,1.52,1.29,1.29,0,0,1-1.5.94,1.41,1.41,0,0,1-1-1.62,1.33,1.33,0,0,1,1.67-.8" style="fill:#fff"></path></g><g style="opacity:0.6000000000000001"><path d="M651.72,476v-2.66l-31.48,1.15s-1.45.64-1.28,1.67Z" style="fill:#fff"></path></g><path d="M635.52,466.46c0,.16.81.23,1.6.74s1.21,1.18,1.35,1.12-.09-1-1.06-1.59S635.48,466.32,635.52,466.46Z" style="fill:#263238"></path><path d="M632.09,467.9c0,.16.66.43,1.21,1.1s.7,1.39.86,1.38.26-.91-.44-1.74S632.09,467.75,632.09,467.9Z" style="fill:#263238"></path><path d="M630.16,472c.14,0,.36-.76,0-1.64s-1.17-1.22-1.23-1.08.39.6.72,1.32S630,472,630.16,472Z" style="fill:#263238"></path><path d="M635.79,462.6c.07.15.8-.08,1.7,0s1.62.34,1.7.2-.6-.7-1.67-.76S635.71,462.48,635.79,462.6Z" style="fill:#263238"></path><path d="M636.55,458.71a3,3,0,0,0,1.64,0,7.37,7.37,0,0,0,1.72-.53,8,8,0,0,0,.94-.51,1.92,1.92,0,0,0,.49-.38.71.71,0,0,0,.07-.86.9.9,0,0,0-.7-.36,1.89,1.89,0,0,0-.62.09,6.11,6.11,0,0,0-1,.35,6,6,0,0,0-1.51,1c-.75.7-1,1.3-.95,1.33s.44-.45,1.21-1a6,6,0,0,1,1.46-.83,6.09,6.09,0,0,1,.94-.3c.34-.09.64-.1.73.06s0,.08,0,.18a1.41,1.41,0,0,1-.36.29,8.49,8.49,0,0,1-.86.49,8.59,8.59,0,0,1-1.59.62A11.83,11.83,0,0,0,636.55,458.71Z" style="fill:#263238"></path><path d="M636.76,458.94a2.64,2.64,0,0,0,.43-1.59,5.5,5.5,0,0,0-.24-1.79,5.33,5.33,0,0,0-.42-1,1.36,1.36,0,0,0-1-.82.76.76,0,0,0-.68.46,2.19,2.19,0,0,0-.17.6,3.43,3.43,0,0,0,0,1.11,3.79,3.79,0,0,0,.7,1.69c.65.84,1.32,1,1.33,1s-.51-.39-1-1.2a3.89,3.89,0,0,1-.53-1.54,3.39,3.39,0,0,1,0-.95c.05-.35.18-.63.31-.59s.44.25.57.53a5.53,5.53,0,0,1,.42.89,6,6,0,0,1,.32,1.63C636.84,458.32,636.67,458.91,636.76,458.94Z" style="fill:#263238"></path><path d="M674.48,447.9,674.22,476l-35-.15c.22-3.34,18.36-10,18.36-10l-.57-18Z" style="fill:#455a64"></path><g style="opacity:0.6000000000000001"><path d="M668.4,464.44a1.43,1.43,0,0,1,1,1.63,1.36,1.36,0,0,1-1.61,1,1.51,1.51,0,0,1-1-1.74,1.43,1.43,0,0,1,1.79-.84" style="fill:#fff"></path></g><g style="opacity:0.6000000000000001"><path d="M674.22,476l0-2.84-33.65.92s-1.56.67-1.39,1.77Z" style="fill:#fff"></path></g><path d="M657,465.73c0,.17.86.25,1.7.8s1.28,1.28,1.44,1.21S660,466.68,659,466,657,465.57,657,465.73Z" style="fill:#263238"></path><path d="M653.32,467.23c0,.17.7.46,1.28,1.19s.74,1.49.91,1.48.28-1-.45-1.86S653.32,467.07,653.32,467.23Z" style="fill:#263238"></path><path d="M651.21,471.62c.16,0,.4-.82,0-1.76s-1.24-1.31-1.31-1.17.42.65.77,1.42S651,471.6,651.21,471.62Z" style="fill:#263238"></path><path d="M657.32,461.6c.07.16.86-.07,1.83,0s1.71.37,1.8.23-.63-.76-1.77-.83S657.24,461.47,657.32,461.6Z" style="fill:#263238"></path><path d="M658.17,457.45a3.33,3.33,0,0,0,1.76,0,7.55,7.55,0,0,0,1.84-.56,6.91,6.91,0,0,0,1-.53,1.88,1.88,0,0,0,.54-.41.74.74,0,0,0,.08-.91,1,1,0,0,0-.75-.39,2.15,2.15,0,0,0-.66.09,6.07,6.07,0,0,0-1.09.37,6.21,6.21,0,0,0-1.62,1.05c-.82.75-1.1,1.39-1,1.42s.48-.47,1.31-1.09a6.88,6.88,0,0,1,1.56-.88,6.56,6.56,0,0,1,1-.3c.37-.1.69-.1.78.07s0,.08,0,.19a1.65,1.65,0,0,1-.39.3,8.8,8.8,0,0,1-.93.53,9.81,9.81,0,0,1-1.69.64A12,12,0,0,0,658.17,457.45Z" style="fill:#263238"></path><path d="M658.4,457.7a2.86,2.86,0,0,0,.47-1.69,5.49,5.49,0,0,0-.68-3,1.44,1.44,0,0,0-1.11-.89.81.81,0,0,0-.74.48,2.55,2.55,0,0,0-.18.65,4.07,4.07,0,0,0,.74,3c.68.91,1.39,1.12,1.4,1.06s-.53-.42-1-1.29a3.92,3.92,0,0,1-.55-1.65,3.44,3.44,0,0,1,0-1c0-.38.19-.68.33-.64s.47.28.61.58a5.69,5.69,0,0,1,.43.95,6.55,6.55,0,0,1,.34,1.75C658.49,457,658.3,457.67,658.4,457.7Z" style="fill:#263238"></path><path d="M608.34,304.72s.61,17.63,2.74,27.89c2.09,10,15.2,61.61,15.2,61.61l8,69.49,18.16-1-5.85-149.89Z" style="fill:#263238"></path><path d="M629.34,312.81s6,42.37,9.9,59.33,5.29,22.6,5.29,22.6,6.67,13.33,6.69,13.67l4.89,54h18.4s4.59-47.36,2.09-56.81-6.39-23.91-5.56-34.47,1.11-33,1.11-34.85,4.47-14.61,4.47-14.61a36.26,36.26,0,0,0,1.77-12.78C678.11,301.62,629.34,312.81,629.34,312.81Z" style="fill:#263238"></path><path d="M651.22,407.31a.87.87,0,0,1-.14-.21l-.37-.64L649.33,404l-5-9.15v0c-2.26-7.87-5.1-18.68-7.85-30.68-2.84-12.36-5.13-23.6-6.76-31.75-.78-4-1.42-7.33-1.87-9.66-.2-1.11-.36-2-.48-2.63,0-.27-.08-.5-.11-.68s0-.24,0-.24a.8.8,0,0,1,.07.22c0,.19.1.41.16.68.14.64.34,1.51.58,2.61.49,2.32,1.18,5.6,2,9.63,1.71,8.12,4.06,19.35,6.9,31.7,2.75,12,5.53,22.81,7.71,30.7l0,0,4.82,9.23,1.28,2.53c.13.27.24.48.32.66A.89.89,0,0,1,651.22,407.31Z" style="fill:#455a64"></path><path d="M672.77,335.24a21.61,21.61,0,0,1-2.11-2.62,18.79,18.79,0,0,1-2.09-2.64,7.84,7.84,0,0,1,2.5,2.31A7.71,7.71,0,0,1,672.77,335.24Z" style="fill:#455a64"></path><path d="M619.88,188.79s-7.09,3.18-10.27,7.31c-2.84,3.69-20,43.74-20,43.74l-20.46-8.26-7.41,15.54s22.56,12.15,29.48,13.19c7.44,1.11,12.87-.81,16.3-6.85s10.45-35.16,10.45-35.16Z" style="fill:#000080"></path><path d="M679.57,290.82c-1.15-9-11.34-25.44-11.34-25.44l11.24-54.77c1-6.7-.73-15.62-6.11-19.51-1.8-1.3-5.76-3.35-8-3.69l-13.47-3L628,185.8l-8.13,3s-12.39,26.81-11.54,39.7c.68,10.36,7.64,27.2,7,29.88-5.36,21.58-7.83,53-7.83,53a207.44,207.44,0,0,1,21.85,1.41c10.13,1.13,51.69,2.29,51.69,2.29S680.3,296.46,679.57,290.82Z" style="fill:#000080"></path><path d="M614.75,203.57a5.78,5.78,0,0,1,.25,1.27c.13.93.29,2.11.49,3.53v.07l0,.07a39.39,39.39,0,0,0-3.21,4.74,29,29,0,0,0-2.71,6.59,30.94,30.94,0,0,0-.57,12.42c.1.8.23,1.51.35,2.14s.22,1.17.32,1.61a6.24,6.24,0,0,1,.25,1.38,7.44,7.44,0,0,1-.44-1.33,15.22,15.22,0,0,1-.41-1.6c-.16-.62-.31-1.34-.44-2.14a29.5,29.5,0,0,1,.44-12.61,27.75,27.75,0,0,1,2.8-6.69,34.8,34.8,0,0,1,3.35-4.74l0,.13c-.13-1.43-.25-2.61-.33-3.55A7,7,0,0,1,614.75,203.57Z" style="fill:#263238"></path><path d="M584,223s5.1-1.65,8.57,0,21,15.13,21,15.13l-2.92,10.39-4-3.28s-6.56.91-9.11-1.64-5.47-4.93-5.47-4.93-2.63,4.2-4,4c-1-.18-1.66-3.52-1.66-3.52s-3.07.78-2.31-2.26l1.82-6a2.83,2.83,0,0,1,2.42-2l5.42-.54-2.92-2.37a24.74,24.74,0,0,1-5.84-.33C584,225.37,583.3,223.51,584,223Z" style="fill:#a26760"></path><path d="M595.36,234.1c0,.05-.61-.3-1.61-.69a4.54,4.54,0,0,0-1.81-.33,3.75,3.75,0,0,0-2.07.8,7.28,7.28,0,0,0-2.25,3.44A14.05,14.05,0,0,1,587,239a7.78,7.78,0,0,1,.4-1.73,9.79,9.79,0,0,1,.73-1.79,5.68,5.68,0,0,1,1.54-1.82,3.84,3.84,0,0,1,2.24-.84,4.41,4.41,0,0,1,1.9.41,7.6,7.6,0,0,1,1.15.61A1.45,1.45,0,0,1,595.36,234.1Z" style="fill:#7b4b45"></path><path d="M596.79,228.87a6.91,6.91,0,0,0-1.6-.54,6.77,6.77,0,0,0-1.68.15s.14-.17.44-.29a2.61,2.61,0,0,1,1.28-.16,2.72,2.72,0,0,1,1.2.45C596.7,228.67,596.81,228.84,596.79,228.87Z" style="fill:#7b4b45"></path><path d="M674.85,220.8s-20.29,32-22.22,34.45c-4.26,5.36-9.94,8.18-17.93,6s-29.26-13.77-29.26-13.77L611.8,233l24.89,5.3,19.25-38.57a17.91,17.91,0,0,1,9.94-9.26,4.9,4.9,0,0,1,2.84.11,12.82,12.82,0,0,1,9,14.78Z" style="fill:#000080"></path><path d="M668.74,190.82l-.28,0-.84,0a11.18,11.18,0,0,0-3.15.68,12.25,12.25,0,0,0-4.31,2.82,15.28,15.28,0,0,0-2.06,2.54,36.74,36.74,0,0,0-1.75,3.28c-4.75,9.41-11.49,22.73-19.43,38.44l-.08.16-.18,0-24.89-5.29.29-.14-5.2,11.83c-.4.91-.8,1.81-1.16,2.65l-.13-.34c5.93,2.92,11.74,5.73,17.35,8.39,2.81,1.33,5.58,2.62,8.3,3.84,1.37.59,2.72,1.23,4.07,1.71a11.24,11.24,0,0,0,4.16.67,13,13,0,0,0,4.07-.72,17.27,17.27,0,0,0,3.66-1.72A23.33,23.33,0,0,0,653,254.5a61.44,61.44,0,0,0,4-6.09l3.54-5.74c4.53-7.29,8.18-13.18,10.72-17.28,1.27-2,2.25-3.58,2.93-4.67l.78-1.21c.17-.27.27-.4.27-.4s-.07.15-.23.43l-.73,1.23-2.85,4.73-10.58,17.37c-1.12,1.83-2.3,3.75-3.52,5.76a60.74,60.74,0,0,1-4,6.14,23.62,23.62,0,0,1-5.87,5.26,18,18,0,0,1-3.75,1.78,13.46,13.46,0,0,1-4.21.76,11.78,11.78,0,0,1-4.33-.7c-1.4-.49-2.73-1.11-4.11-1.71-2.73-1.22-5.5-2.51-8.31-3.83-5.63-2.66-11.43-5.47-17.37-8.38l-.22-.11.1-.23c.37-.84.76-1.74,1.16-2.64,1.78-4.06,3.54-8.05,5.2-11.84l.09-.19.2,0,24.89,5.32-.26.13,19.59-38.35c.62-1.15,1.12-2.31,1.79-3.3a16.68,16.68,0,0,1,2.12-2.56,12.44,12.44,0,0,1,4.42-2.8,11,11,0,0,1,3.2-.61h.84Z" style="fill:#263238"></path><path d="M621,134.93a14.52,14.52,0,0,1,7.19-8.57,18.25,18.25,0,0,1,12.32-1.13A38.62,38.62,0,0,1,652,130.36a19,19,0,0,1,5.43,4.49c2.58,3.45,5.08,9.06,5.21,13.37.11,3.48-1.47,12.15-3,15.27a7.72,7.72,0,0,1-3.42,2.91,29.52,29.52,0,0,1-6.54,8.16q-1.11-3.54-2.21-7.08Z" style="fill:#263238"></path><path d="M664.8,158.55c-.27-5.37.92-7.69-3.13-16.69a27.61,27.61,0,0,0-12.81-13.3l-19.29,2.1q.21-.53.42-1l-6.89,1a5.42,5.42,0,0,0-5.51,2.84,7.74,7.74,0,0,0-1.06,1.55,18,18,0,0,0-1.51,5.76,47,47,0,0,0-.41,5.89c-.06.78-.11,1.46-.16,2a9.24,9.24,0,0,0,.21,2.55c.28,8.29,1.35,17.41.34,24.29a3.65,3.65,0,0,0,.11,2.15,3.5,3.5,0,0,0,1.77,1.43c8.55,4.06,14.6-.81,23-5.07,1.65-.83,3.33-1.84,5.17-1.77s3.56,5.17,5.34,6l14.75,1C666,172.32,665.06,163.92,664.8,158.55Z" style="fill:#263238"></path><path d="M655.17,146.48a11.71,11.71,0,0,0-8.5-11L631,131c-6.8-.93-11.59,7.33-12.23,14.17-.72,7.59-1.25,15.61-.52,21.31,1.46,11.47,10.16,13.19,10.16,13.19s-.11,3.93-.2,7.26l5.22,16.25,18-17.44,3.83-39.09C655.22,146.43,655.19,146.74,655.17,146.48Z" style="fill:#a26760"></path><path d="M620.75,153.86a1.47,1.47,0,0,0,1.37,1.52,1.39,1.39,0,0,0,1.54-1.27,1.46,1.46,0,0,0-1.36-1.53A1.41,1.41,0,0,0,620.75,153.86Z" style="fill:#263238"></path><path d="M620.35,149.66c.18.19,1.31-.59,2.89-.54s2.7.88,2.88.69-.09-.43-.58-.82a4,4,0,0,0-2.3-.78,3.84,3.84,0,0,0-2.3.66C620.44,149.23,620.27,149.57,620.35,149.66Z" style="fill:#263238"></path><path d="M634.54,153.88a1.47,1.47,0,0,0,1.37,1.52,1.41,1.41,0,0,0,1.55-1.28,1.47,1.47,0,0,0-1.37-1.52A1.4,1.4,0,0,0,634.54,153.88Z" style="fill:#263238"></path><path d="M635.31,150.08c.18.2,1.31-.59,2.89-.53s2.7.87,2.88.69-.09-.44-.58-.82a4,4,0,0,0-2.3-.79,3.84,3.84,0,0,0-2.3.67C635.4,149.66,635.23,150,635.31,150.08Z" style="fill:#263238"></path><path d="M630,162.32a10.57,10.57,0,0,0-2.55-.54c-.4-.06-.78-.15-.84-.43a2.09,2.09,0,0,1,.31-1.18c.41-1,.83-2,1.28-3,1.79-4.31,3.09-7.86,2.92-7.93s-1.76,3.37-3.55,7.68l-1.23,3.05a2.28,2.28,0,0,0-.26,1.57,1,1,0,0,0,.64.61,3.18,3.18,0,0,0,.68.11A10.22,10.22,0,0,0,630,162.32Z" style="fill:#263238"></path><path d="M643.67,176s-3.94,7.74-15.33,6.32l.07-2.69A28.77,28.77,0,0,0,643.67,176Z" style="fill:#7b4b45"></path><path d="M636,144.41c.14.43,1.72.28,3.56.55s3.32.83,3.58.46c.11-.18-.13-.59-.72-1a6.1,6.1,0,0,0-2.63-1,6,6,0,0,0-2.81.24C636.26,143.88,635.91,144.2,636,144.41Z" style="fill:#263238"></path><path d="M621,144.85c.27.37,1.37,0,2.67.06s2.4.31,2.67-.06c.12-.18-.05-.54-.52-.89a3.83,3.83,0,0,0-4.3,0C621.05,144.31,620.89,144.68,621,144.85Z" style="fill:#263238"></path><path d="M622.17,134.8a5,5,0,0,1,4.51-2.72,9.78,9.78,0,0,1,5.22,1.69c6.69,4.12,9.91,13.71,16.51,18,1.63,1,3.8.19,5.17,1.56s2.22,3.5,1.39,5.25a15.87,15.87,0,0,0,2.44-3.87,5.38,5.38,0,0,0-.06-4.46c-.55-1-1.56-1.82-1.81-3s.21-2,.19-3a6.55,6.55,0,0,0-1-2.94,29.68,29.68,0,0,0-10.58-11.79,19.4,19.4,0,0,0-10-2.88,14.81,14.81,0,0,0-9.64,3.52c-1.54,1.35-3.16,2.76-2.43,4.68" style="fill:#263238"></path><path d="M653.37,154.71c.13-.33,6.15-2.31,6,4-.1,6.15-6.27,4.76-6.28,4.58S653.37,154.71,653.37,154.71Z" style="fill:#a26760"></path><path d="M655.08,161s.11.08.29.16a1,1,0,0,0,.8,0,2.64,2.64,0,0,0,1.27-2.35,3.47,3.47,0,0,0-.27-1.54,1.25,1.25,0,0,0-.79-.84.55.55,0,0,0-.64.28c-.08.17,0,.3-.08.31s-.13-.11-.07-.36a.62.62,0,0,1,.25-.38.78.78,0,0,1,.59-.15,1.51,1.51,0,0,1,1.1,1,3.56,3.56,0,0,1,.34,1.72,2.76,2.76,0,0,1-1.61,2.62,1.13,1.13,0,0,1-1-.18C655.09,161.18,655.06,161,655.08,161Z" style="fill:#7b4b45"></path><path d="M655.91,151.62l-.36-.22c-.24-.16-.59-.37-1-.68a21.71,21.71,0,0,1-3.23-3.12,59.25,59.25,0,0,1-3.91-5.39,48.61,48.61,0,0,0-4.89-6.46,19.45,19.45,0,0,0-3.2-2.68,16.09,16.09,0,0,0-3.49-1.71,17.41,17.41,0,0,0-6.49-1,16.56,16.56,0,0,0-4.39.73,9.27,9.27,0,0,0-1.15.39,2.44,2.44,0,0,1-.41.13,2,2,0,0,1,.39-.19,10.33,10.33,0,0,1,1.14-.44,16,16,0,0,1,4.41-.82,17.38,17.38,0,0,1,6.58.94,16.16,16.16,0,0,1,3.56,1.72,19.56,19.56,0,0,1,3.25,2.71,46.56,46.56,0,0,1,4.91,6.52,62.11,62.11,0,0,0,3.84,5.4,22.6,22.6,0,0,0,3.15,3.16c.41.33.76.55,1,.72A2.11,2.11,0,0,1,655.91,151.62Z" style="fill:#455a64"></path><path d="M655.75,162.14a1.2,1.2,0,1,1-.29.08" style="fill:#fff"></path><path d="M655.46,162.22a1.72,1.72,0,0,0-.57.81,1,1,0,0,0,.21,1,1.08,1.08,0,0,0,1.91-.55,1,1,0,0,0-.34-.93,1.63,1.63,0,0,0-.92-.38s.1-.07.29-.06a1.21,1.21,0,0,1,.76.29,1.23,1.23,0,0,1,.46,1.12,1.32,1.32,0,0,1-2.36.68,1.24,1.24,0,0,1-.2-1.2,1.16,1.16,0,0,1,.49-.65C655.35,162.22,655.46,162.2,655.46,162.22Z" style="fill:#263238"></path><path d="M654.31,153.31a9.44,9.44,0,0,1-.74,4.93c-.82,1.47-2.8,2.43-4.24,1.55-1.17-.71-1.48-2.25-1.65-3.61-.47-3.93-.62-7.9-1.13-11.83Z" style="fill:#263238"></path><path d="M623.76,131.92s.55-.09,1.53-.09a10.41,10.41,0,0,1,4.05.86,13.38,13.38,0,0,1,2.51,1.38,28.87,28.87,0,0,1,2.58,2.09,31.86,31.86,0,0,1,5,5.69c.75,1.12,1.41,2.27,2.13,3.34a16.21,16.21,0,0,0,2.38,2.84,27.29,27.29,0,0,0,5.1,3.62c1.55.88,2.85,1.5,3.74,1.93l1,.47a1.89,1.89,0,0,0,.37.15,1.67,1.67,0,0,0-.34-.21l-1-.53c-.88-.47-2.15-1.12-3.68-2a27.77,27.77,0,0,1-5-3.65,15.63,15.63,0,0,1-2.32-2.79c-.71-1.06-1.37-2.21-2.13-3.34a30.75,30.75,0,0,0-5.06-5.74,26.17,26.17,0,0,0-2.62-2.08,13.35,13.35,0,0,0-2.59-1.38,10.15,10.15,0,0,0-4.14-.77,7.53,7.53,0,0,0-1.14.13A1.6,1.6,0,0,0,623.76,131.92Z" style="fill:#455a64"></path><path d="M636.31,166.29a7.37,7.37,0,0,0-.44-1.72.92.92,0,0,0-.37-.54.89.89,0,0,0-.66,0c-1.29.42-3,1.19-4.24,1.61a3.22,3.22,0,0,0,.64,2.56,3.1,3.1,0,0,0,2.19.74,3,3,0,0,0,2.42-1A2.34,2.34,0,0,0,636.31,166.29Z" style="fill:#7b4b45"></path><path d="M631.78,168.38a4,4,0,0,0,1.9.38,2.63,2.63,0,0,0,1.77-.9,2.77,2.77,0,0,0,.56-2.32,2.22,2.22,0,0,0-.56-1.1c-.25-.26-.58-.19-1,0l-2,.83a8.33,8.33,0,0,1-1.93.65,9,9,0,0,1,1.79-1l2-.93a1.88,1.88,0,0,1,.68-.18,1,1,0,0,1,.77.29,2.63,2.63,0,0,1,.72,1.34,3.2,3.2,0,0,1-.7,2.73,2.89,2.89,0,0,1-2.09.94,2.84,2.84,0,0,1-1.49-.35C631.89,168.56,631.77,168.4,631.78,168.38Z" style="fill:#263238"></path></g><g id="freepik--character-1--inject-36"><path d="M548.2,443.29,547.46,475l41.79,1.09c-.14-3.78-21.54-11.92-21.54-11.92l1.36-20.32Z" style="fill:#455a64"></path><g style="opacity:0.6000000000000001"><path d="M554.84,462.16A1.62,1.62,0,0,0,553.6,464a1.65,1.65,0,0,0,1.89,1.18,1.54,1.54,0,1,0-.81-2.94" style="fill:#fff"></path></g><g style="opacity:0.6000000000000001"><path d="M547.46,475l.21-3.2,40,2.24s1.84.81,1.6,2.05Z" style="fill:#fff"></path></g><path d="M568.39,464c0,.19-1,.25-2,.85s-1.58,1.39-1.77,1.3.15-1.18,1.4-1.88S568.44,463.85,568.39,464Z" style="fill:#263238"></path><path d="M572.73,465.85c0,.19-.86.5-1.57,1.3s-.94,1.65-1.15,1.64-.3-1.11.61-2.09S572.73,465.67,572.73,465.85Z" style="fill:#263238"></path><path d="M575.07,470.88c-.18,0-.44-.94.12-2s1.52-1.44,1.6-1.28-.53.72-1,1.58S575.28,470.86,575.07,470.88Z" style="fill:#263238"></path><path d="M568.16,459.36c-.09.18-1-.11-2.18-.07s-2.06.37-2.16.2.78-.84,2.14-.87S568.26,459.21,568.16,459.36Z" style="fill:#263238"></path><path d="M567.3,454.65a4.13,4.13,0,0,1-2.09-.06,9.55,9.55,0,0,1-2.18-.7,8.46,8.46,0,0,1-1.18-.63,2.48,2.48,0,0,1-.62-.48.81.81,0,0,1-.06-1,1.13,1.13,0,0,1,.9-.42,3,3,0,0,1,.79.13,6.89,6.89,0,0,1,1.28.45,7.63,7.63,0,0,1,1.9,1.25c1,.87,1.26,1.6,1.18,1.64s-.54-.56-1.51-1.28a8.67,8.67,0,0,0-1.84-1,8.29,8.29,0,0,0-1.19-.38c-.44-.12-.82-.13-.93.05s0,.1,0,.22a1.77,1.77,0,0,0,.45.36,12.07,12.07,0,0,0,1.09.62,12.85,12.85,0,0,0,2,.79A15.49,15.49,0,0,1,567.3,454.65Z" style="fill:#263238"></path><path d="M567,454.92a3.06,3.06,0,0,1-.49-1.92,6,6,0,0,1,.35-2.16,6.39,6.39,0,0,1,.56-1.19,1.72,1.72,0,0,1,1.37-1,1,1,0,0,1,.85.57,2.23,2.23,0,0,1,.2.73,4.19,4.19,0,0,1,0,1.33,4.37,4.37,0,0,1-1,2c-.85,1-1.7,1.22-1.72,1.15s.66-.45,1.31-1.42a4.58,4.58,0,0,0,.72-1.84,4,4,0,0,0,0-1.15c0-.42-.21-.76-.38-.72s-.57.3-.75.63a7.13,7.13,0,0,0-.55,1.06,6.89,6.89,0,0,0-.46,2C566.94,454.17,567.14,454.89,567,454.92Z" style="fill:#263238"></path><path d="M517.14,444.39l-2.26,31.67-41.7-2.87c.49-3.75,22.56-9.82,22.56-9.82l.57-20.36Z" style="fill:#455a64"></path><g style="opacity:0.6000000000000001"><path d="M508.75,462.54a1.63,1.63,0,0,1,1.06,1.92,1.64,1.64,0,0,1-2,1,1.7,1.7,0,0,1-1.11-2,1.74,1.74,0,0,1,2.19-.81" style="fill:#fff"></path></g><g style="opacity:0.6000000000000001"><path d="M514.88,476.06l.1-3.2-40-1.56s-1.9.64-1.77,1.89Z" style="fill:#fff"></path></g><path d="M495.08,463.12c0,.19,1,.35,2,1s1.44,1.53,1.63,1.47,0-1.2-1.21-2S495.05,462.94,495.08,463.12Z" style="fill:#263238"></path><path d="M490.59,464.53c-.06.18.8.57,1.44,1.43s.78,1.74,1,1.74.4-1.07-.41-2.13S490.61,464.34,490.59,464.53Z" style="fill:#263238"></path><path d="M487.78,469.31c.18.05.53-.89.08-2s-1.38-1.58-1.48-1.42.46.75.82,1.65S487.58,469.27,487.78,469.31Z" style="fill:#263238"></path><path d="M495.75,458.5c.08.18,1,0,2.18.13s2,.56,2.13.4-.7-.9-2.05-1.07S495.66,458.34,495.75,458.5Z" style="fill:#263238"></path><path d="M497.06,453.89a4.16,4.16,0,0,0,2.09.13,9.59,9.59,0,0,0,2.22-.48,9.35,9.35,0,0,0,1.24-.52,2.49,2.49,0,0,0,.66-.42.81.81,0,0,0,.16-1,1.13,1.13,0,0,0-.86-.5,2.79,2.79,0,0,0-.79.05,7.46,7.46,0,0,0-3.33,1.39c-1,.78-1.4,1.48-1.33,1.52s.59-.5,1.62-1.13a8.7,8.7,0,0,1,1.93-.87,9.22,9.22,0,0,1,1.23-.26c.44-.08.82-.06.92.13s0,.11-.06.22a1.8,1.8,0,0,1-.49.31,11.34,11.34,0,0,1-3.21,1.11A13,13,0,0,0,497.06,453.89Z" style="fill:#263238"></path><path d="M497.3,454.18c.07,0,.52-.62.68-1.87a6,6,0,0,0-.14-2.18,5.79,5.79,0,0,0-.46-1.23,1.69,1.69,0,0,0-1.26-1.09,1,1,0,0,0-.91.49,2.29,2.29,0,0,0-.26.71,4,4,0,0,0-.09,1.33,4.31,4.31,0,0,0,.76,2.1c.74,1.08,1.58,1.36,1.6,1.3s-.61-.51-1.17-1.54a4.29,4.29,0,0,1-.54-1.9,4.08,4.08,0,0,1,.11-1.14c.1-.41.29-.74.45-.68s.54.35.69.69a6.73,6.73,0,0,1,.44,1.11,6.58,6.58,0,0,1,.28,2C497.46,453.44,497.19,454.15,497.3,454.18Z" style="fill:#263238"></path><path d="M584.62,273.31l-68.9,2.2S500.38,377.92,500.81,385l-9.46,74.29,27.52,1s4.33-24.08,7.35-40.57c2-11,5.67-27.07,6.66-36.23s14.71-72.2,14.71-72.2,1.19,73.33,1.22,76.38-3.46,71.81-3.46,71.81l27.32,2.6c1.7-11.8,5.05-64.6,5.77-74.74,1.3-18.32,7.71-71,8.31-84.25S584.62,273.31,584.62,273.31Z" style="fill:#263238"></path><path d="M526.18,284.3a10.38,10.38,0,0,1-.34-3.19,11.15,11.15,0,0,1,.14-3.2,21.4,21.4,0,0,1,.2,6.39Z" style="fill:#455a64"></path><path d="M528.69,283.56a7.92,7.92,0,0,1,0-2.73,8,8,0,0,1,.49-2.68,7.88,7.88,0,0,1,0,2.73A8,8,0,0,1,528.69,283.56Z" style="fill:#455a64"></path><path d="M570.74,283.56a11.48,11.48,0,0,1,0-4.67,11.48,11.48,0,0,1,0,4.67Z" style="fill:#455a64"></path><path d="M573.44,284.79a8.74,8.74,0,0,1,.49-5.9,22.38,22.38,0,0,1-.28,2.95A21.68,21.68,0,0,1,573.44,284.79Z" style="fill:#455a64"></path><path d="M551.49,309.64a6.39,6.39,0,0,1,.16-1.2c.15-.86.33-1.95.55-3.24.45-2.74,1-6.53,1.33-10.75s.42-8,.42-10.81c0-1.32,0-2.42,0-3.29a6.74,6.74,0,0,1,0-1.21,6.76,6.76,0,0,1,.15,1.2c.07.78.13,1.9.18,3.29a99.79,99.79,0,0,1-1.76,21.63c-.26,1.36-.51,2.46-.7,3.21A6.56,6.56,0,0,1,551.49,309.64Z" style="fill:#455a64"></path><path d="M549.13,279.91a2.59,2.59,0,0,0-1.37.77,1.88,1.88,0,0,0-.45,1.54,1.79,1.79,0,0,0,3.12.59,1.94,1.94,0,0,0,.14-1.6,2.49,2.49,0,0,0-1-1.21s.19,0,.46.11a2,2,0,0,1,.86,1,2.19,2.19,0,0,1-.09,1.94,2.19,2.19,0,0,1-3.92-.74,2.23,2.23,0,0,1,.63-1.85,2,2,0,0,1,1.15-.6C549,279.82,549.14,279.89,549.13,279.91Z" style="fill:#455a64"></path><path d="M519.14,392.91a118.78,118.78,0,0,1-13.76-5.65,114.26,114.26,0,0,1,13.76,5.65Z" style="fill:#455a64"></path><path d="M574.44,171.31s12.92,2.92,17,12c2.94,6.48,8.92,45.82,8.92,45.82l29-.1L633.78,243s-25.34,15.14-36.06,15.13c-9,0-16.83-6.86-16.83-6.86L569.4,218Z" style="fill:#000080"></path><path d="M583.18,238.08l-7.71-44.91-1-21.86-19.73-3.83-25.54,1.91L509,178.85a25.4,25.4,0,0,0-12,11.69l-13.79,27.81-21.73-6.92L450.35,219s28.8,29.74,36.11,28.55c8.8-1.43,19.45-24.35,19.45-24.35l3.41-7.26,11.94,36.39-5.26,27c4.59,4,17.49,7.47,39.51,6.22s31.85-6.64,31.85-6.64Z" style="fill:#000080"></path><path d="M559.63,120.11c-.14-3.51-1.73-8.26-4.53-10.39-1.83-1.38-4.45-.44-6.6-1.25-2.75-1-4.83-4.19-7.39-5.64s-5.79-2.34-8.39-1c-1.27.67-2.26,1.8-3.59,2.34-1.53.64-3.29.39-4.9.81a6.24,6.24,0,0,0-4.32,7.12,5.37,5.37,0,0,0,.46,10.45c1.91.36,4.07-.29,5.73.73s2.06,3.52,1.83,5.58-.81,4.2-.1,6.15l27.93,5.32c1.16-2.19,1.89-5.47,2.81-7.83C560,128.74,559.78,124.16,559.63,120.11Z" style="fill:#263238"></path><path d="M554.9,137.54c.18-.09,7.27-2.29,7.17,5s-7.39,5.67-7.4,5.46S554.9,137.54,554.9,137.54Z" style="fill:#ffbe9d"></path><path d="M556.93,145.26s.13.09.34.19a1.26,1.26,0,0,0,1,0,3.15,3.15,0,0,0,1.49-2.79,4.14,4.14,0,0,0-.33-1.82,1.48,1.48,0,0,0-.94-1,.65.65,0,0,0-.75.34c-.1.2-.06.35-.1.36s-.15-.12-.09-.42a.81.81,0,0,1,.29-.46,1,1,0,0,1,.71-.17,1.79,1.79,0,0,1,1.31,1.15,4.32,4.32,0,0,1,.41,2c-.07,1.47-.84,2.83-1.9,3.12a1.41,1.41,0,0,1-1.16-.21C556.94,145.43,556.91,145.27,556.93,145.26Z" style="fill:#eb996e"></path><path d="M518.06,152.38c-.16-5.13.39-15.73,1-25.32a19.82,19.82,0,0,1,19.44-18.57l1,0c11.08.46,16.88,10.12,16.12,21.18l-1,38.47-1.58,1a21.91,21.91,0,0,1-24-.11h0l-.09-4.55S518.37,163,518.06,152.38Z" style="fill:#ffbe9d"></path><path d="M529,164.48a24.68,24.68,0,0,0,13.79-4.19s-3.07,7.83-13.69,7.06Z" style="fill:#eb996e"></path><path d="M521.46,135.45A1.52,1.52,0,0,0,523,137a1.45,1.45,0,0,0,1.54-1.4,1.52,1.52,0,0,0-1.49-1.51A1.45,1.45,0,0,0,521.46,135.45Z" style="fill:#263238"></path><path d="M536.86,136.05a1.52,1.52,0,0,0,1.5,1.5,1.45,1.45,0,0,0,1.54-1.39,1.52,1.52,0,0,0-1.49-1.51A1.46,1.46,0,0,0,536.86,136.05Z" style="fill:#263238"></path><path d="M521.34,131.92c.19.2,1.32-.67,3-.7s2.85.78,3,.57-.11-.44-.64-.81a4.12,4.12,0,0,0-2.42-.7,4,4,0,0,0-2.36.8C521.41,131.48,521.24,131.84,521.34,131.92Z" style="fill:#263238"></path><path d="M537,132c.2.19,1.28-.75,2.91-.88s2.89.59,3.05.37-.14-.43-.69-.77a4.21,4.21,0,0,0-2.46-.54,4,4,0,0,0-2.3,1C537,131.57,536.88,131.94,537,132Z" style="fill:#263238"></path><path d="M531.78,144.47a10.89,10.89,0,0,0-2.66-.43c-.42,0-.82-.11-.89-.4a2.09,2.09,0,0,1,.25-1.24c.38-1,.77-2.08,1.18-3.2,1.64-4.55,2.81-8.29,2.63-8.36s-1.66,3.58-3.29,8.13c-.4,1.12-.77,2.19-1.13,3.22a2.44,2.44,0,0,0-.19,1.64,1.06,1.06,0,0,0,.7.6,2.34,2.34,0,0,0,.71.08A11,11,0,0,0,531.78,144.47Z" style="fill:#263238"></path><path d="M536.61,145.52c-.27,0-.24,1.76-1.74,3s-3.38,1.12-3.39,1.37.42.34,1.22.34a4.35,4.35,0,0,0,2.84-1,3.88,3.88,0,0,0,1.34-2.56C536.94,145.94,536.73,145.51,536.61,145.52Z" style="fill:#263238"></path><path d="M537,125.1c.2.43,1.81.05,3.74.09s3.52.4,3.74,0c.09-.2-.22-.59-.89-1a6.51,6.51,0,0,0-5.69,0C537.27,124.51,537,124.9,537,125.1Z" style="fill:#263238"></path><path d="M521.57,126.74c.29.37,1.41,0,2.76-.08s2.51.21,2.77-.19c.11-.19-.08-.56-.59-.9a3.87,3.87,0,0,0-2.26-.57,3.82,3.82,0,0,0-2.19.79C521.59,126.18,521.44,126.56,521.57,126.74Z" style="fill:#263238"></path><path d="M530.67,107.64c3.71-1.62,7.54-1,11.56-.53a18.3,18.3,0,0,1,8.32,2.88,16,16,0,0,1,7,11.94,46.72,46.72,0,0,1-1,15.16l-.4-.07c.35,1.47.7,3-.15,4.43a2.14,2.14,0,0,1-2.37,1c-1.51-.45-1.64-2.38-1.56-3.9a89.28,89.28,0,0,0-.37-13.58c-.34-3.67-2-7.74-4.91-9.38a12.73,12.73,0,0,0-12.91.26,3.9,3.9,0,0,1-4.11.13c-2.84-1.68-5.23-1.58-6.94.66C523.44,112.68,527,109.25,530.67,107.64Z" style="fill:#263238"></path><path d="M523.41,140.29s.27,0,.75-.09a5.51,5.51,0,0,0,2-.7,5.74,5.74,0,0,0,1.17-.9,6,6,0,0,0,1-1.39,5.41,5.41,0,0,0,.56-1.85c.06-.67,0-1.41,0-2.16l.13.13-6.92,0h-5.59l.14-.14a17.32,17.32,0,0,0,.07,2.42,5.53,5.53,0,0,0,3.52,4.26,6.28,6.28,0,0,0,2.34.37l.64,0,.22,0a.68.68,0,0,1-.22,0l-.64,0a6,6,0,0,1-2.4-.3,5.59,5.59,0,0,1-2.89-2.27,5.71,5.71,0,0,1-.82-2.11,16.66,16.66,0,0,1-.09-2.46v-.14h12.79v.13c0,.76,0,1.48,0,2.19a5.34,5.34,0,0,1-.6,1.92,5.56,5.56,0,0,1-2.28,2.33,5.15,5.15,0,0,1-2,.64,4.48,4.48,0,0,1-.57,0C523.48,140.31,523.41,140.3,523.41,140.29Z" style="fill:#455a64"></path><path d="M541,140.29s.26,0,.74-.09a5.48,5.48,0,0,0,2-.7,5.55,5.55,0,0,0,2.16-2.29,5.19,5.19,0,0,0,.55-1.85c.07-.67,0-1.41,0-2.16l.14.13-6.93,0h-5.58l.14-.14a17.32,17.32,0,0,0,.07,2.42,5.51,5.51,0,0,0,.76,2,5.6,5.6,0,0,0,2.75,2.24,6.31,6.31,0,0,0,2.34.37l.64,0,.23,0a.72.72,0,0,1-.23,0l-.64,0a5.93,5.93,0,0,1-2.39-.3,5.64,5.64,0,0,1-3.71-4.38,16.65,16.65,0,0,1-.1-2.46v-.14h12.78v.13c0,.76,0,1.48,0,2.19a5.54,5.54,0,0,1-.6,1.92,5.91,5.91,0,0,1-1.06,1.43,6.24,6.24,0,0,1-1.22.9,5.23,5.23,0,0,1-2,.64,4.26,4.26,0,0,1-.56,0C541.1,140.31,541,140.3,541,140.29Z" style="fill:#455a64"></path><path d="M534,134.87s-.22-.25-.63-.57a3,3,0,0,0-3.68-.08c-.41.3-.61.57-.64.54s.1-.34.52-.71a2.94,2.94,0,0,1,2-.72,3,3,0,0,1,2,.81C533.92,134.53,534.05,134.85,534,134.87Z" style="fill:#455a64"></path><path d="M557.38,137.55a11.52,11.52,0,0,1-1.59-.31c-1-.22-2.32-.51-3.82-.79s-2.86-.49-3.85-.64a8.94,8.94,0,0,1-1.6-.29,9.77,9.77,0,0,1,1.62.08c1,.1,2.38.28,3.88.56s2.85.61,3.82.88A7.7,7.7,0,0,1,557.38,137.55Z" style="fill:#455a64"></path><path d="M523,139.61a3.46,3.46,0,0,1-1.36-.11,6.32,6.32,0,0,1-2.93-1.52,5.52,5.52,0,0,1-1.65-2.86,2.93,2.93,0,0,1,0-1.37s0,.52.25,1.32a5.75,5.75,0,0,0,1.65,2.69,6.74,6.74,0,0,0,2.78,1.54C522.46,139.53,523,139.56,523,139.61Z" style="fill:#fff"></path><path d="M559.53,118.91s-4.94,4.32-8.08,4.62a15.33,15.33,0,0,0-.84-3,18.75,18.75,0,0,0-2.62-4,15.44,15.44,0,0,0,10.48-1.87A16.29,16.29,0,0,1,559.53,118.91Z" style="fill:#e0e0e0"></path><path d="M559.65,120.65a10,10,0,0,1-7.92,5,34.24,34.24,0,0,0,4.29-2A32.49,32.49,0,0,0,559.65,120.65Z" style="fill:#e0e0e0"></path><path d="M576.11,203.66a28.55,28.55,0,0,1-1.31-5.26,29.1,29.1,0,0,1-.79-5.35,28,28,0,0,1,1.31,5.25A29.15,29.15,0,0,1,576.11,203.66Z" style="fill:#263238"></path><path d="M435.68,174.23a199,199,0,0,0,6.67,20c3.72,9.08,11.93,23.25,13.29,30.26s2.81,52.93,2.81,52.93l46.14,5,36.49,21.76s32.43,1.14,60.56,0l36.41-7.71L625.1,194.93l-36.59,8.65-69.89-5.23Z" style="fill:#ebebeb"></path><path d="M435.68,174.23l83,24h0l69.89,5.18h-.06l36.59-8.65.26-.07,0,.27c3.95,31,8.28,64.87,12.8,100.24l.16,1.26,0,.24-.23.05-36.42,7.7h0c-10.5.41-20.83.53-30.94.5s-20-.2-29.64-.51H541l-.06,0-36.47-21.77.09,0-46.14-5h-.18v-.18c-.55-16.45-1.1-31.37-1.95-44.48-.11-1.63-.23-3.24-.37-4.82a29.5,29.5,0,0,0-.68-4.59,56.08,56.08,0,0,0-3.09-8.21c-2.32-5.14-4.67-9.73-6.67-13.92a133.22,133.22,0,0,1-7.74-20c-.73-2.34-1.25-4.14-1.59-5.35s-.48-1.84-.48-1.84l.54,1.82c.36,1.21.9,3,1.64,5.34a136.93,136.93,0,0,0,7.83,19.89c2,4.18,4.38,8.76,6.72,13.9a56.64,56.64,0,0,1,3.13,8.26,29.19,29.19,0,0,1,.69,4.63q.22,2.37.39,4.83c.88,13.11,1.46,28,2,44.49l-.18-.19,46.15,5h.05l0,0,36.5,21.74-.12,0q14.45.47,29.62.5c10.1,0,20.43-.1,30.92-.51h0l36.41-7.7-.21.28-.16-1.25c-4.5-35.38-8.83-69.29-12.77-100.24l.3.2-36.6,8.63h-.07l-69.89-5.27h0Z" style="fill:#263238"></path><polygon points="587.36 203.85 601.64 304.14 638.05 296.43 625.1 194.94 587.36 203.85" style="fill:#fff"></polygon><polygon points="486.03 188.87 504.59 282.38 541.08 304.14 542.73 304.64 518.62 198.35 486.03 188.87" style="opacity:0.2"></polygon><path d="M449.77,219l-3.53-3.35a4.18,4.18,0,0,1-1.43-2.08c-.16-.85.46-1.88,1.31-1.79a2.26,2.26,0,0,1,.12-4.39,7,7,0,0,1-1.48-2.25,2.77,2.77,0,0,1,.3-2.58,2.83,2.83,0,0,1,2.81-.82,7.57,7.57,0,0,1,2.72,1.43q1.91,1.4,3.69,3a4,4,0,0,1,1.1,1.31,1.42,1.42,0,0,1-.24,1.6,3.83,3.83,0,0,1,3.33,4.3c.86,1.2-.24,3-1.66,3.37a6.89,6.89,0,0,1-4.28-.72,2.41,2.41,0,0,1,2.31,2,2.37,2.37,0,0,1-4.5,1.32" style="fill:#ffbe9d"></path><path d="M632.31,229.19a3.3,3.3,0,0,1,2.94,5.17c1.06.33,1.46,1.68,1.3,2.78s-.71,2.13-.86,3.23c-.24,1.77.49,3.78-.53,5.24-.83,1.19-2.47,1.45-3.92,1.46a41.29,41.29,0,0,1-4.83-.35,5.89,5.89,0,0,1-2-.46,2.12,2.12,0,0,1-1.26-1.56,1.3,1.3,0,0,1,1.15-1.46,2,2,0,0,1-1.07-3.72,1.85,1.85,0,0,1,.2-2.44,7.23,7.23,0,0,1,2.3-1.38,13.69,13.69,0,0,0,6.43-6.6" style="fill:#ffbe9d"></path><path d="M601.42,304c-.14,0-3.45-22.41-7.4-50.1s-7-50.16-6.88-50.18,3.46,22.41,7.4,50.11S601.56,304,601.42,304Z" style="fill:#263238"></path><path d="M504.59,282.13c-.14,0-4.41-20.89-9.53-46.7s-9.17-46.78-9-46.81,4.41,20.88,9.54,46.7S504.74,282.1,504.59,282.13Z" style="fill:#263238"></path><path d="M543,305.58c-.14,0-5.66-23.74-12.31-53.09s-11.94-53.17-11.8-53.2,5.65,23.73,12.31,53.09S543.11,305.55,543,305.58Z" style="fill:#263238"></path></g><g id="freepik--speech-bubble--inject-36"><path d="M606.34,65.12a25.62,25.62,0,0,0-30.81,34.15v0l-3.18,7.64,8.07.16a25.62,25.62,0,0,0,35.23,2.43l8.06.92-2.13-8a20,20,0,0,0,2.37-5.62A25.63,25.63,0,0,0,606.34,65.12Z" style="fill:#fff"></path><path d="M606.34,65.12l.21.06.61.18,1,.33a9.14,9.14,0,0,1,1.35.52l1.66.74,1.91,1.1c.69.4,1.35.94,2.1,1.45s1.42,1.22,2.19,1.9l1.07,1.14.55.6.52.66,1,1.38,1,1.53a26.24,26.24,0,0,1,3,7.36,26,26,0,0,1,.42,9,24.43,24.43,0,0,1-3.12,9.47l0-.18c.67,2.52,1.39,5.22,2.14,8a.24.24,0,0,1-.17.29h-.09l-8.06-.91.18-.06a25.87,25.87,0,0,1-35.58-2.44l.19.08-8.07-.17a.26.26,0,0,1-.25-.26.29.29,0,0,1,0-.09l3.18-7.63a.25.25,0,0,1,.32-.13.31.31,0,0,1,.11.08h0l-.43.24a25.65,25.65,0,0,1-1.73-11.92,23.31,23.31,0,0,1,1.16-5.54,19.45,19.45,0,0,1,1-2.55A18.74,18.74,0,0,1,576.89,77a25.63,25.63,0,0,1,6.35-7.38,24.7,24.7,0,0,1,7.3-4A13.76,13.76,0,0,1,592.3,65c.59-.14,1.14-.33,1.7-.43a25.85,25.85,0,0,1,3.16-.43l1.43-.09c.46,0,.9,0,1.32,0l1.21,0c.38,0,.74.1,1.08.14.68.1,1.29.15,1.81.27l1.28.32.79.2.26.08a.78.78,0,0,1-.27,0l-.8-.16L604,64.64c-.51-.1-1.12-.14-1.79-.23-.34,0-.7-.1-1.08-.12l-1.2,0c-.42,0-.86,0-1.31,0l-1.42.12a23.79,23.79,0,0,0-3.12.46c-.55.09-1.1.29-1.68.44a13.49,13.49,0,0,0-1.74.56,24.69,24.69,0,0,0-7.17,4,25.35,25.35,0,0,0-6.22,7.31,18.11,18.11,0,0,0-1.17,2.33,20.28,20.28,0,0,0-.94,2.51A23.24,23.24,0,0,0,574,87.48a25.39,25.39,0,0,0,1.74,11.7.25.25,0,0,1-.43.23h0l.43-.05L572.57,107l-.22-.34,8.07.16a.23.23,0,0,1,.18.08,25.43,25.43,0,0,0,24.25,7.62,25.82,25.82,0,0,0,10.64-5.21.21.21,0,0,1,.18-.06l8.06.93-.26.3c-.73-2.77-1.45-5.47-2.12-8a.28.28,0,0,1,0-.18A24,24,0,0,0,624.47,93a25.76,25.76,0,0,0-.36-8.86,26.41,26.41,0,0,0-2.88-7.27l-.93-1.53-1-1.36-.5-.66-.54-.6-1.05-1.14c-.76-.67-1.44-1.34-2.15-1.9s-1.39-1.06-2.06-1.47l-1.88-1.11-1.64-.77a9,9,0,0,0-1.33-.55l-1-.36-.6-.22C606.4,65.16,606.34,65.13,606.34,65.12Z" style="fill:#263238"></path><path d="M610.61,86.39a7,7,0,0,0-1.75-3.78,6.59,6.59,0,0,0-3.45-2.17,5.35,5.35,0,0,0-5.95,2.71,5.55,5.55,0,0,0-1.59-1.75,5.46,5.46,0,0,0-4.19-.86,6.6,6.6,0,0,0-3.5,2.11,6.89,6.89,0,0,0-1.81,3.75,8.39,8.39,0,0,0,1,5.2,12,12,0,0,0,4.08,3.9c2.67,1.64,6.19,3.7,6.19,3.7s3-2.21,5.72-3.81a11.78,11.78,0,0,0,4.15-3.81A8.46,8.46,0,0,0,610.61,86.39Z" style="fill:#000080"></path></g></svg>