<svg xmlns="http://www.w3.org/2000/svg" xmlns:xlink="http://www.w3.org/1999/xlink" width="1080" zoomAndPan="magnify" viewBox="0 0 810 809.999993" height="1080" preserveAspectRatio="xMidYMid meet" version="1.0"><defs><clipPath id="2e1b7866b8"><path d="M 18.097656 45.839844 L 792 45.839844 L 792 764.160156 L 18.097656 764.160156 Z M 18.097656 45.839844 " clip-rule="nonzero"/></clipPath><clipPath id="dd5e23ed34"><path d="M 405 45.839844 L 442.535156 75.308594 L 485.882812 53.6875 L 515.960938 89.71875 L 563.234375 76.890625 L 584.539062 117.90625 L 633.667969 114.433594 L 645.269531 158.644531 L 694.109375 164.671875 L 695.5 210.144531 L 741.914062 225.417969 L 733.035156 270.164062 L 774.992188 294.011719 L 756.230469 336.074219 L 791.902344 367.457031 L 764.078125 405 L 791.902344 442.542969 L 756.230469 473.925781 L 774.992188 515.988281 L 733.035156 539.835938 L 741.914062 584.582031 L 695.5 599.855469 L 694.109375 645.328125 L 645.269531 651.355469 L 633.667969 695.566406 L 584.539062 692.09375 L 563.234375 733.109375 L 515.960938 720.28125 L 485.882812 756.3125 L 442.535156 734.691406 L 405 764.160156 L 367.464844 734.691406 L 324.117188 756.3125 L 294.039062 720.28125 L 246.765625 733.109375 L 225.460938 692.09375 L 176.332031 695.566406 L 164.730469 651.355469 L 115.890625 645.328125 L 114.5 599.855469 L 68.085938 584.582031 L 76.964844 539.835938 L 35.007812 515.988281 L 53.769531 473.925781 L 18.097656 442.542969 L 45.921875 405 L 18.097656 367.457031 L 53.769531 336.074219 L 35.007812 294.011719 L 76.964844 270.164062 L 68.085938 225.417969 L 114.5 210.144531 L 115.890625 164.671875 L 164.730469 158.644531 L 176.332031 114.433594 L 225.460938 117.90625 L 246.765625 76.890625 L 294.039062 89.71875 L 324.117188 53.6875 L 367.464844 75.308594 Z M 405 45.839844 " clip-rule="nonzero"/></clipPath></defs><g clip-path="url(#2e1b7866b8)"><g clip-path="url(#dd5e23ed34)"><path fill="#c9c9c9" d="M 18.097656 45.839844 L 792.539062 45.839844 L 792.539062 764.160156 L 18.097656 764.160156 Z M 18.097656 45.839844 " fill-opacity="1" fill-rule="nonzero"/></g></g></svg>