<svg xmlns="http://www.w3.org/2000/svg" viewBox="0 0 500 500"><g id="freepik--background-complete--inject-38"><rect x="403.53" y="121.46" width="1" height="53.27" style="fill:#e0e0e0"></rect><rect x="386.59" y="122.28" width="1" height="53.27" style="fill:#e0e0e0"></rect><rect x="369.65" y="121.32" width="1" height="53.27" style="fill:#e0e0e0"></rect><rect x="352.71" y="122.28" width="1" height="53.27" style="fill:#e0e0e0"></rect><rect x="352.08" y="163.67" width="121.5" height="313.82" style="fill:#ebebeb"></rect><rect x="416.61" y="163.67" width="56.97" height="313.82" style="fill:#e0e0e0"></rect><rect x="377.56" y="185.36" width="10.92" height="26.54" style="fill:#f5f5f5"></rect><path d="M416.61,222.32c0,.3-14.44.54-32.26.54s-32.27-.24-32.27-.54,14.45-.54,32.27-.54S416.61,222,416.61,222.32Z" style="fill:#f5f5f5"></path><rect x="377.56" y="237.69" width="10.92" height="26.54" style="fill:#f5f5f5"></rect><path d="M416.61,274.65c0,.3-14.44.54-32.26.54s-32.27-.24-32.27-.54,14.45-.54,32.27-.54S416.61,274.35,416.61,274.65Z" style="fill:#f5f5f5"></path><rect x="377.56" y="294.99" width="10.92" height="26.54" style="fill:#f5f5f5"></rect><path d="M416.61,331.94c0,.3-14.44.54-32.26.54s-32.27-.24-32.27-.54,14.45-.54,32.27-.54S416.61,331.65,416.61,331.94Z" style="fill:#f5f5f5"></path><rect x="377.56" y="352.28" width="10.92" height="26.54" style="fill:#f5f5f5"></rect><path d="M416.61,389.24c0,.29-14.44.54-32.26.54s-32.27-.25-32.27-.54,14.45-.54,32.27-.54S416.61,388.94,416.61,389.24Z" style="fill:#f5f5f5"></path><rect x="377.56" y="409.57" width="10.92" height="26.54" style="fill:#f5f5f5"></rect><path d="M416.61,446.53c0,.3-14.44.54-32.26.54s-32.27-.24-32.27-.54,14.45-.54,32.27-.54S416.61,446.23,416.61,446.53Z" style="fill:#f5f5f5"></path><rect x="428.71" y="185.36" width="10.92" height="26.54" style="fill:#f5f5f5"></rect><rect x="452.41" y="185.36" width="10.92" height="26.54" style="fill:#f5f5f5"></rect><rect x="428.71" y="235.72" width="10.92" height="26.54" style="fill:#f5f5f5"></rect><rect x="452.41" y="235.72" width="10.92" height="26.54" style="fill:#f5f5f5"></rect><rect x="427.92" y="292.13" width="10.92" height="26.54" style="fill:#f5f5f5"></rect><rect x="451.62" y="292.13" width="10.92" height="26.54" style="fill:#f5f5f5"></rect><rect x="427.92" y="353.29" width="10.92" height="26.54" style="fill:#f5f5f5"></rect><rect x="451.62" y="353.29" width="10.92" height="26.54" style="fill:#f5f5f5"></rect><rect x="427.92" y="414.46" width="10.92" height="26.54" style="fill:#f5f5f5"></rect><rect x="451.62" y="414.46" width="10.92" height="26.54" style="fill:#f5f5f5"></rect><polygon points="416.61 166.41 416.61 151.97 428.71 151.97 428.71 144.04 445.1 144.04 445.1 136.96 473.58 136.96 473.58 165.28 416.61 166.41" style="fill:#e0e0e0"></polygon><rect x="416.07" y="113.44" width="1" height="53.27" style="fill:#e0e0e0"></rect><rect x="428.21" y="113.44" width="1" height="53.27" style="fill:#e0e0e0"></rect><rect x="444.6" y="105.94" width="1" height="53.27" style="fill:#e0e0e0"></rect><rect x="472.24" y="105.94" width="1" height="53.27" style="fill:#e0e0e0"></rect><rect x="458.42" y="105.94" width="1" height="53.27" style="fill:#e0e0e0"></rect><rect x="353.66" y="149.45" width="62.95" height="1" style="fill:#e0e0e0"></rect><rect x="353.79" y="136.46" width="91.44" height="1" style="fill:#e0e0e0"></rect><path d="M120.82,42h.07a.37.37,0,0,0,.34-.37v-.3h0V30.57a6.16,6.16,0,0,0-9.56-5.14l-4.79-1.05A3.41,3.41,0,1,0,104,28.84l4.93,5.88v6.57h0v.3a.35.35,0,0,0,.23.34.32.32,0,0,0,.14,0h.12l-2.61,40.62h1.47l.58-8.93,5.62,7.42-1.19,1.51h1.17l.59-.76.57.76h1.16l-1.15-1.5,5.83-7.46.58,9h1.48Zm-5.47,0,3.8,8h-8.32l3.92-8Zm1,0h3l.48,7.28Zm-4.2,0h1.56l-3.3,6.73.43-6.73Zm-2,11.33,4.45,7.21-5.46,8.59Zm.58-.81h9l-4.56,7.16Zm9.4,1,1,15.91-5.49-8.91Zm-5,7.86L120.45,70H109.61Zm-6,11.19H121.1L115,80.32Z" style="fill:#e0e0e0"></path><path d="M126.6,108.86h-1.46v8.54l-6.23-6.88,6.41-6.86h.76V101.6H110.65v2h1l6.2,6.85-6.68,7.16v-8.81h-2.7V319.3h2.7v-1.79h13.93v1.8h2.7V108.86ZM111.69,284.7l6.2,6.85-6.68,7.15v-14Zm1,0H124.3L118.41,291Zm-.79-2.06,6.5-6.95,6.29,6.95Zm-.69-.34v-14h.48l6.2,6.85Zm1.48-14H124.3l-5.9,6.31Zm-.79-2.05,6.5-6.95,6.29,6.94Zm-.69-.35v-14h.48l6.2,6.85Zm1.48-14H124.3l-5.9,6.31Zm-.79-2,6.5-7,6.29,6.94Zm-.69-.35v-14h.48l6.2,6.85Zm1.48-14H124.3l-5.89,6.31Zm-.79-2.06,6.5-6.95,6.29,6.95Zm-.69-.34v-14h.48l6.2,6.85Zm1.48-14H124.3l-5.89,6.31Zm-.79-2,6.5-7,6.29,6.94Zm-.69-.35v-14h.48l6.2,6.85Zm1.48-14H124.3L118.4,209Zm-.79-2,6.5-7,6.29,6.94Zm-.69-.35v-14h.48l6.2,6.85Zm1.48-14H124.3l-5.9,6.31Zm-.79-2.06,6.5-6.94,6.29,6.94Zm-.69-.34v-14h.48l6.2,6.85Zm1.48-14H124.3l-5.89,6.31Zm-.79-2,6.5-7,6.29,6.94Zm-.69-.35v-14h.48l6.2,6.85Zm1.48-14H124.3l-5.89,6.31Zm-.79-2.05,6.5-6.95,6.29,6.94Zm-.69-.35V137h.48l6.2,6.85Zm1.48-14H124.3l-5.9,6.31Zm-.79,162,6.5-6.95,6.29,6.94Zm7-7.5,6.23-6.67v13.56Zm0-16.4,6.23-6.68V282Zm0-16.41,6.23-6.68v13.56Zm0-16.41,6.23-6.67v13.56Zm0-16.4,6.23-6.68v13.56Zm0-16.41,6.23-6.67V216.4Zm0-16.41,6.23-6.67V200Zm0-16.4,6.23-6.68v13.56Zm0-16.41,6.23-6.67v13.55Zm0-16.41,6.23-6.67v13.56Zm6-8.91h-13.3l6.76-7.24Zm-6-7.77,6.23-6.68v13.56Zm-7.7,7.15v-14h.48l6.2,6.85Zm0,166.74h.48l6.2,6.85-6.68,7.16Zm1.48,0H124.3l-5.89,6.31Zm12.45.18v13.56L118.91,308Zm-6.73-174.63-5.72-6.3H124.3Zm0,181.86,6.29,6.94H111.9Zm-5.71-204.85H124.3L118.4,110Zm12.25,14.63h-13.3l6.76-7.23Z" style="fill:#e0e0e0"></path><path d="M330.63,99.23l-20.27-15A5.71,5.71,0,0,0,307,83.09H41.49v2.69h1.22V99.72H41.49v2.7H329.66a1.62,1.62,0,0,0,1.62-1.62v-.27A1.63,1.63,0,0,0,330.63,99.23ZM297.73,92l-6.68-6.24h13.56Zm7.49-5.78V99l-7-6.49Zm-14.36.39,6.31,5.89-6.3,5.71ZM281.32,92l-6.68-6.24H288.2Zm7.49-5.78V99l-6.95-6.49Zm-14.35.39,6.3,5.89-6.3,5.71ZM264.91,92l-6.67-6.24H271.8Zm7.49-5.78V99l-7-6.49Zm-14.35.39,6.31,5.89-6.3,5.71ZM248.51,92l-6.68-6.24h13.56ZM256,86.24V99l-6.95-6.49Zm-14.36.39L248,92.52l-6.3,5.71ZM232.1,92l-6.68-6.24H239Zm7.49-5.78V99l-6.95-6.49Zm-14.35.39,6.31,5.89-6.31,5.71ZM215.69,92,209,85.78h13.56Zm7.49-5.78V99l-6.95-6.49Zm-14.35.39,6.31,5.89-6.3,5.71ZM199.29,92l-6.68-6.24h13.56Zm7.49-5.78V99l-6.95-6.49Zm-14.36.39,6.31,5.89-6.3,5.71ZM182.88,92l-6.68-6.24h13.56Zm7.49-5.78V99l-6.95-6.49ZM176,86.63l6.31,5.89L176,98.23ZM174,99,167,92.53,174,86.24Zm2.05.22L182.87,93,190,99.72H176Zm16.41,0L199.28,93l7.16,6.69h-14Zm16.41,0L215.69,93l7.15,6.69h-14Zm16.4,0L232.09,93l7.16,6.69h-14Zm16.41,0L248.5,93l7.16,6.69h-14Zm16.41,0L264.91,93l7.15,6.69h-14Zm16.4,0L281.31,93l7.16,6.69h-14Zm16.41,0L297.72,93l7.15,6.69h-14ZM173.36,85.78,166.47,92l-6.67-6.24h13.56Zm-128.6.85,6.31,5.89-6.3,5.71Zm.19-.85H58.51L51.63,92ZM150.07,92l-6.68-6.24H157Zm7.49-5.78V99l-6.95-6.49Zm-14.36.39,6.31,5.89-6.3,5.71ZM133.66,92,127,85.78h13.55Zm7.49-5.78V99l-6.95-6.49Zm-14.35.39,6.31,5.89-6.31,5.71ZM117.25,92l-6.67-6.24h13.56Zm7.49-5.78V99l-7-6.49Zm-14.35.39,6.31,5.89-6.3,5.71ZM100.85,92l-6.68-6.24h13.56Zm7.49-5.78V99l-6.94-6.49ZM94,86.63l6.31,5.89L94,98.23ZM84.44,92l-6.67-6.24H91.32Zm7.49-5.78V99l-7-6.49Zm-14.35.39,6.31,5.89-6.31,5.71ZM68,92l-6.67-6.24H74.92Zm7.49-5.78V99l-7-6.49Zm-14.35.39,6.31,5.89-6.3,5.71Zm-2.05-.39V99l-7-6.49Zm2.06,13L68,93l7.15,6.69h-14Zm16.4,0L84.43,93l7.16,6.69h-14Zm16.41,0L100.84,93,108,99.72H94Zm16.41,0L117.25,93l7.15,6.69h-14Zm16.4,0L133.65,93l7.16,6.69h-14Zm16.41,0L150.06,93l7.16,6.69h-14Zm16.4-12.61,6.31,5.89-6.3,5.71ZM44.77,99.24,51.62,93l7.16,6.69h-14Zm114.85.48v-.48L166.47,93l7.15,6.69h-14Zm147.66,0V85.81a6.13,6.13,0,0,1,3.15,1.07l18.45,12.84Z" style="fill:#e0e0e0"></path><path d="M100.65,82.84c.16,9-.13,36.09-.13,36.09h32.56l-.88-5.35a4.58,4.58,0,0,1,0-1.65l2.39-11.81L128.78,82A2.78,2.78,0,0,0,126.13,80H103.45A2.79,2.79,0,0,0,100.65,82.84Z" style="fill:#ebebeb"></path><polygon points="115.59 82.58 115.59 102.42 131.17 102.42 132.78 100.27 126.74 82.58 115.59 82.58" style="fill:#f5f5f5"></polygon><path d="M307,83.09s-.25,0-.73-.18l-2.14-.59L295.89,80l-30.09-8.6L166.57,42.84,104.8,25l.25-.06C87.32,41.48,72.35,55.41,61.79,65.15c-5.28,4.87-9.46,8.7-12.33,11.29-1.44,1.3-2.56,2.27-3.32,2.93a14,14,0,0,1-1.19.95s.1-.1.29-.26.48-.41.85-.75l3.25-3L61.58,64.92l43.11-40.41.11-.1.14,0,61.79,17.82L265.91,71l30,8.78,8.16,2.42,2.12.64Z" style="fill:#e0e0e0"></path><path d="M31.29,79.23a3.18,3.18,0,0,0-2.5,1.21c-1.51,1.87-3.79,5.31-4,5.65s-.11,11.88,0,17.6a3.19,3.19,0,0,0,3.2,3.16H56.79a3.2,3.2,0,0,0,3.2-3.2V82.41a3.2,3.2,0,0,0-3.2-3.2Z" style="fill:#ebebeb"></path><path d="M119.48,31.22a4.29,4.29,0,1,1-4.29-4.29A4.29,4.29,0,0,1,119.48,31.22Z" style="fill:#ebebeb"></path><path d="M106.17,25.58a2.39,2.39,0,1,1-2.38-2.39A2.38,2.38,0,0,1,106.17,25.58Z" style="fill:#ebebeb"></path><path d="M404.52,50.51c.57-4.14-5.28-7.55-9.67-7.9-2.1-.17-4.27.15-6.26-.54-4.3-1.5-6-7-10.21-8.82-3.13-1.33-6.75-.15-9.79,1.38s-6,3.46-9.44,3.68c-2.95.18-6.16-.91-8.75.53-1.92,1.08-2.93,3.3-4.71,4.61s-4,1.55-6.16,1.67a17.38,17.38,0,0,0-6.35,1c-2,.9-3.58,3-3.18,5.1Z" style="fill:#ebebeb"></path><path d="M457,79.22c.44-3.23-4.13-5.89-7.56-6.17-1.63-.13-3.33.12-4.88-.42-3.36-1.17-4.7-5.51-8-6.89-2.45-1-5.27-.12-7.64,1.08s-4.72,2.7-7.38,2.87c-2.31.15-4.81-.71-6.83.42-1.51.84-2.29,2.57-3.68,3.6a8.78,8.78,0,0,1-4.81,1.3,13.56,13.56,0,0,0-5,.81c-1.53.7-2.8,2.32-2.48,4Z" style="fill:#f5f5f5"></path><path d="M90.28,178.6c.44-3.23-4.12-5.89-7.55-6.17-1.64-.13-3.34.12-4.89-.42-3.36-1.17-4.7-5.51-8-6.89-2.45-1-5.27-.12-7.65,1.08s-4.72,2.7-7.37,2.87c-2.31.14-4.82-.71-6.84.42-1.5.84-2.29,2.57-3.68,3.59a8.74,8.74,0,0,1-4.81,1.31,13.6,13.6,0,0,0-5,.81c-1.53.7-2.8,2.32-2.48,4Z" style="fill:#f5f5f5"></path></g><g id="freepik--Floor--inject-38"><path d="M468.24,477.49c0,.14-97.72.26-218.23.26s-218.25-.12-218.25-.26,97.69-.26,218.25-.26S468.24,477.34,468.24,477.49Z" style="fill:#263238"></path></g><g id="freepik--Character--inject-38"><path d="M236.67,84.4,238,134c.22,8.43,2.28,20.77,15.6,19.8h0c11.49-1.71,14.12-12.75,13.9-20.62-.1-3.74-.18-6.85-.17-7.23,0,0,12.59-1.53,13.17-14,.27-6.05-.17-18.56-.7-29.87a23.34,23.34,0,0,0-22.55-22.22l-1.21,0C243,60.09,236,71.36,236.67,84.4Z" style="fill:#ffbf9d"></path><path d="M267.5,126a30.33,30.33,0,0,1-16.14-5.37s3.68,9.59,16.21,8.88Z" style="fill:#ff9a6c"></path><path d="M264.65,102.32a12.49,12.49,0,0,1,3.14-.46c.5,0,1-.12,1.06-.45a2.49,2.49,0,0,0-.28-1.47c-.42-1.2-.86-2.47-1.33-3.79-1.84-5.4-3.15-9.83-2.94-9.9s1.89,4.24,3.73,9.64l1.27,3.81a2.87,2.87,0,0,1,.19,1.94,1.25,1.25,0,0,1-.83.69,3.34,3.34,0,0,1-.84.09A12.52,12.52,0,0,1,264.65,102.32Z" style="fill:#263238"></path><path d="M257.64,80.16c-.19.47-1.87.19-3.87.37s-3.63.69-3.88.25c-.11-.21.18-.65.85-1.09a6.35,6.35,0,0,1,2.9-.94,6.17,6.17,0,0,1,3,.47C257.36,79.55,257.72,79.93,257.64,80.16Z" style="fill:#263238"></path><path d="M277.65,83.25c-.21.38-1.86,0-3.84,0s-3.61.33-3.83-.06c-.1-.18.21-.53.89-.86a6.87,6.87,0,0,1,2.91-.6,7.08,7.08,0,0,1,2.93.6C277.4,82.71,277.74,83.06,277.65,83.25Z" style="fill:#263238"></path><path d="M237.54,93.71c-.21-.1-8.52-2.83-8.53,5.74s8.59,6.82,8.61,6.57S237.54,93.71,237.54,93.71Z" style="fill:#ffbf9d"></path><path d="M235,102.77s-.15.11-.4.22a1.48,1.48,0,0,1-1.11,0c-.91-.33-1.67-1.77-1.71-3.32a4.89,4.89,0,0,1,.42-2.13,1.72,1.72,0,0,1,1.13-1.15.77.77,0,0,1,.88.41c.11.24.06.41.1.43s.19-.14.12-.5a1,1,0,0,0-.34-.54,1.17,1.17,0,0,0-.82-.22,2.13,2.13,0,0,0-1.57,1.33,5.13,5.13,0,0,0-.52,2.39c.06,1.73.94,3.35,2.18,3.71a1.62,1.62,0,0,0,1.36-.23C235,103,235,102.79,235,102.77Z" style="fill:#ff9a6c"></path><path d="M290.19,73.82a2.31,2.31,0,0,1,1.45,1.8,2.72,2.72,0,0,1-1.82,2.77,3.44,3.44,0,0,1-3.34-.73,4.9,4.9,0,0,1,1.1,1,2.19,2.19,0,0,1-3.09,3.06l0,0a20.25,20.25,0,0,0-.91,2v0l-.06.12c-.18.43-.37.85-.59,1.27v0l-2.74,5.74c-.32-3.51-.22-8.48-.55-12A19.56,19.56,0,0,1,265.4,73c-2-2-3.62-4.65-6.24-5.82-3.37-1.51-7.27-.16-10.71,1.19l.14-.14a15.69,15.69,0,0,0-4.69,3.68,48.58,48.58,0,0,1-1.3,20.7c-.28,1-1.1,3.1-2.06,3.51-1.89.82-2.49-1.12-3.68-2.11a5.1,5.1,0,0,0-3.53-.72c-.9-2.1-3.41-7.17-4.24-10.29l.22-1.48.27-3.42c1.66-3.09-.59-4.65.25-8s1.39-5.56,4.64-6.87h0c2.92-1.31,6.25-2.71,8.77-.74.43-4.47,4.19-8.15,8.49-9.46s10,0,14.27,1.47c3.27,1.17,5.35,2.77,9.29,6.52,1.65,1.58,5.9,7.13,7.28,9Z" style="fill:#263238"></path><g style="opacity:0.30000000000000004"><path d="M230,85.78s8.12-7.26,23.72-9.19,32.13-1.68,35.47-3.26l-4-2L237,77.1l-8.32,4.68Z"></path></g><path d="M247.07,48.71c-.58.13-14.64,4.38-17.45,15.28s-1.53,14.1-1.53,14.1a7,7,0,0,0-1.4,1.39c-.55.74.56,4,2.4,3.52,13.52-7.18,30-9,48.45-9.74l14.08-1.18c4-.8-3.11-3.75-4.84-4.62-1.33-.67-7.33-3-7.33-3h0a39,39,0,0,0-6.32-7.08s1.11-1.79-.38-2.62S258.62,46.25,247.07,48.71Z" style="fill:#000080"></path><path d="M280,64.43l-.55,0-1.57.08c-1.37,0-3.35.2-5.78.43a108.1,108.1,0,0,0-18.74,3.69,165.68,165.68,0,0,0-18,6.4c-2.26.92-4.08,1.71-5.34,2.25l-1.45.62-.52.2.5-.25,1.43-.66c1.25-.56,3.06-1.37,5.32-2.32a155.76,155.76,0,0,1,18-6.47,104.19,104.19,0,0,1,18.79-3.63C277,64.37,280,64.43,280,64.43Z" style="fill:#263238"></path><g style="opacity:0.30000000000000004"><path d="M234.47,55.92s15.23-3.59,22.36-.77l-.83-.34c2.24.8,3.75,2.47,6,3.27a2.93,2.93,0,0,0,2.92-.22,97.52,97.52,0,0,0-9-4.65C249.52,50.76,240.5,50.89,234.47,55.92Z"></path></g><path d="M234.25,56a10.46,10.46,0,0,1,1.32-1,18.57,18.57,0,0,1,4-2.07,22.5,22.5,0,0,1,6.51-1.42,18.94,18.94,0,0,1,8.06,1A35,35,0,0,1,258,54.25c1.21.63,2.4,1.18,3.48,1.83a21.14,21.14,0,0,0,3.11,1.67,6.55,6.55,0,0,0,3,.39c3.77-.23,6-1.18,5.84-1.4a.6.6,0,0,1-.28.32,5,5,0,0,1-1.13.47,20,20,0,0,1-4.42.77,6.76,6.76,0,0,1-3.09-.36,21,21,0,0,1-3.15-1.68c-1.07-.62-2.27-1.17-3.48-1.8a34.43,34.43,0,0,0-3.83-1.73,19.15,19.15,0,0,0-8-1,23.05,23.05,0,0,0-6.46,1.37,20.78,20.78,0,0,0-4,2c-.45.29-.79.53-1,.69Z" style="fill:#263238"></path><g style="opacity:0.30000000000000004"><path d="M228.6,68.53l.07-.49a54,54,0,0,1,7.39-1.73,60.58,60.58,0,0,0,8.6-2.2c2.15-.74,4.7-1.46,6-3.14a3.19,3.19,0,0,1-.76,3c-.78.87-3.44,2-4.54,2.41-6.27,2.2-10.62,3.69-17.22,4.62A17.67,17.67,0,0,1,228.6,68.53Z"></path></g><path d="M230.11,62.44c-1.7.88-2.94,1.53-2.81,3.32.1,1.24.13,2.15,1.37,2.28a3.08,3.08,0,0,0,1.12-.17c6.26-1.73,12.8-2.87,19.06-4.6a2.85,2.85,0,0,0,1.7-.94c.56-.84-.12-2.73-1-3.24a5.75,5.75,0,0,0-3.12-.3c-5.76.3-10.7,1.76-16.17,3.58" style="fill:#000080"></path><path d="M250.27,62.63a1.82,1.82,0,0,0,.46-.86,2.4,2.4,0,0,0-1-2.35,6,6,0,0,0-3.89-.58c-1.53.19-3.2.41-4.95.71a49.84,49.84,0,0,0-8.78,2.22c-1.09.38-2,.75-2.55,1l-.69.31-.24.09.22-.14.67-.34c.59-.29,1.44-.68,2.53-1.09a46.07,46.07,0,0,1,8.8-2.29c1.76-.3,3.43-.52,5-.7a6.07,6.07,0,0,1,4,.66,2.48,2.48,0,0,1,.95,2.51,1.53,1.53,0,0,1-.35.67C250.35,62.59,250.28,62.64,250.27,62.63Z" style="fill:#263238"></path><polygon points="274.6 59.59 264.01 60.48 264.22 63.48 277.24 62.28 274.6 59.59" style="fill:#fff"></polygon><path d="M277.41,88.48c-.23.23-1.58-.82-3.52-.86s-3.4.9-3.61.66.14-.53.77-1a5,5,0,0,1,2.89-.82,4.78,4.78,0,0,1,2.8,1C277.33,87.94,277.52,88.38,277.41,88.48Z" style="fill:#263238"></path><path d="M257.65,94.3a1.61,1.61,0,0,1-1.58,1.58,1.54,1.54,0,0,1-1.62-1.49A1.61,1.61,0,0,1,256,92.81,1.54,1.54,0,0,1,257.65,94.3Z" style="fill:#263238"></path><path d="M274.46,94.3a1.61,1.61,0,0,1-1.58,1.58,1.54,1.54,0,0,1-1.62-1.49,1.61,1.61,0,0,1,1.58-1.58A1.53,1.53,0,0,1,274.46,94.3Z" style="fill:#263238"></path><path d="M258.79,87.77c-.23.23-1.58-.82-3.52-.86s-3.4.9-3.6.66.13-.53.77-1a4.94,4.94,0,0,1,2.89-.81,4.7,4.7,0,0,1,2.79,1C258.71,87.23,258.9,87.67,258.79,87.77Z" style="fill:#263238"></path><path d="M264.86,102.35a13.25,13.25,0,0,1,3.18-.5c.5,0,1-.13,1.06-.46a2.53,2.53,0,0,0-.29-1.48c-.44-1.22-.9-2.49-1.39-3.82-1.91-5.44-3.28-9.91-3.06-10s1.95,4.27,3.86,9.71l1.32,3.84a2.89,2.89,0,0,1,.21,2,1.24,1.24,0,0,1-.83.71,3.42,3.42,0,0,1-.85.1A12.8,12.8,0,0,1,264.86,102.35Z" style="fill:#263238"></path><path d="M259.1,103.56c.32,0,.27,2.1,2,3.64s4,1.37,4,1.66c0,.14-.52.4-1.47.41a5.28,5.28,0,0,1-3.37-1.27,4.59,4.59,0,0,1-1.58-3C258.71,104.06,259,103.54,259.1,103.56Z" style="fill:#263238"></path><polygon points="294.18 181.11 286.94 235.75 289.56 261.81 206.81 261.69 211.41 221.92 214.26 138.63 233.02 133.48 236.87 126.68 255.19 137.9 268.69 128.23 272.66 136.35 293.73 141.65 294.18 181.11" style="fill:#e0e0e0"></polygon><path d="M253.73,137.74a17.29,17.29,0,0,1-1,2.34c-.71,1.46-1.74,3.51-3,5.9l-.12.24-.22-.15c-1.49-1-3.06-2.11-4.67-3.35-3.26-2.53-6.11-4.92-8.24-6.56l-2.53-1.94a5.32,5.32,0,0,1-.92-.74,4.71,4.71,0,0,1,1,.57c.64.41,1.55,1,2.64,1.81,2.19,1.58,5.09,3.93,8.34,6.45,1.6,1.23,3.16,2.38,4.61,3.36l-.34.09c1.25-2.38,2.34-4.4,3.12-5.81A15.37,15.37,0,0,1,253.73,137.74Z" style="fill:#263238"></path><path d="M272.36,137.11a3.61,3.61,0,0,1-.55.83c-.38.51-1,1.24-1.69,2.11a49.91,49.91,0,0,1-6.29,6.36c-.36.27-.68.53-1.06.79a1.08,1.08,0,0,1-.79.18,1.12,1.12,0,0,1-.63-.47l-1.27-2c-.8-1.24-1.53-2.37-2.18-3.36s-1.1-1.75-1.41-2.31a3.41,3.41,0,0,1-.44-.89,3.89,3.89,0,0,1,.61.78l1.55,2.21c.65.94,1.43,2,2.27,3.3l1.28,2c.23.3.41.35.74.15s.67-.5,1-.75a64,64,0,0,0,6.33-6.2A36.36,36.36,0,0,1,272.36,137.11Z" style="fill:#263238"></path><path d="M253.73,172.79a5.82,5.82,0,0,1-.08-1.27c0-.82,0-2,0-3.48.05-2.93.25-7,.54-11.45s.55-8.51.69-11.44c.07-1.38.13-2.54.18-3.47a7.3,7.3,0,0,1,.12-1.27,5.24,5.24,0,0,1,.08,1.28c0,.82,0,2,0,3.47,0,2.94-.25,7-.54,11.46s-.55,8.51-.69,11.43c-.07,1.39-.13,2.55-.18,3.47A6.1,6.1,0,0,1,253.73,172.79Z" style="fill:#263238"></path><g style="opacity:0.30000000000000004"><path d="M233.71,133.94c.16.11,10,9.19,14.71,13.59a2,2,0,0,0,3.26-1l1.74-8.16-3.91,7.53Z"></path></g><g style="opacity:0.30000000000000004"><path d="M256.57,139.17s3.7,10.81,4.75,10.08,7.05-6.13,9.32-10.08a61.27,61.27,0,0,1-8.57,8l-.68-.62Z"></path></g><path d="M222.84,171.92,284,173.65a3,3,0,0,1,2.93,3l-.38,82.15a3,3,0,0,1-3,3l-71.49.92a3,3,0,0,1-3-3.4l10.7-84.8A3,3,0,0,1,222.84,171.92Z" style="fill:#455a64"></path><path d="M233.09,193.76l41.68,1.29s3.71,29.84-18.85,30.33C226.14,226,233.09,193.76,233.09,193.76Z" style="fill:#455a64"></path><path d="M233.09,193.76a1.16,1.16,0,0,1,0,.33c0,.24-.07.56-.13,1-.11.85-.26,2.1-.35,3.73a42.94,42.94,0,0,0,.1,5.9,29.91,29.91,0,0,0,1.62,7.61,20.86,20.86,0,0,0,2,4.06,17.32,17.32,0,0,0,7.5,6.58,22.93,22.93,0,0,0,2.55,1c.9.23,1.8.51,2.74.66a24.47,24.47,0,0,0,2.87.39c.48,0,1,.09,1.47.11l1.49,0c1,0,2-.06,3-.12a21,21,0,0,0,3-.58,15.91,15.91,0,0,0,5.61-2.73,17,17,0,0,0,4.25-4.83,29.27,29.27,0,0,0,3.54-11,47.55,47.55,0,0,0,.19-10.83l.24.21-29.91-1-8.63-.33-2.31-.11-.6,0-.22,0h.77l2.27,0,8.58.2,30.06.81H275l0,.21a47.52,47.52,0,0,1-.18,11,29.46,29.46,0,0,1-3.59,11.15,17.66,17.66,0,0,1-4.39,5,16.65,16.65,0,0,1-5.79,2.81,22.1,22.1,0,0,1-3.09.58,29,29,0,0,1-3.08.12l-1.51,0c-.5,0-1-.09-1.49-.12a26.63,26.63,0,0,1-5.7-1.1,21.31,21.31,0,0,1-2.6-1,17.69,17.69,0,0,1-7.65-6.79,20.61,20.61,0,0,1-2-4.14,29.43,29.43,0,0,1-1.57-7.71,42.05,42.05,0,0,1,0-6,37,37,0,0,1,.45-3.72q.1-.64.18-1A2.39,2.39,0,0,1,233.09,193.76Z" style="fill:#263238"></path><path d="M219.22,136.5l2.55,40.11a4.49,4.49,0,0,0,5.06,4.16h0a4.48,4.48,0,0,0,3.88-4.78l-3.18-41A13.69,13.69,0,0,0,219.22,136.5Z" style="fill:#455a64"></path><path d="M219.22,136.5a4.21,4.21,0,0,1,.5-.28,14.54,14.54,0,0,1,1.55-.66,12.72,12.72,0,0,1,6.28-.71l.11,0V135c.38,4.64.9,10.92,1.51,18.3.29,3.71.61,7.69.94,11.87.16,2.09.33,4.24.51,6.43.08,1.09.17,2.2.25,3.31a13.48,13.48,0,0,1,.09,1.71,4.51,4.51,0,0,1-.44,1.73,4.73,4.73,0,0,1-8.71-.33,4.89,4.89,0,0,1-.29-1.3c0-.42-.06-.84-.08-1.25-.06-.84-.11-1.66-.16-2.48-.1-1.63-.2-3.22-.29-4.78-.37-6.22-.71-11.82-1-16.54s-.47-8.45-.62-11.11c-.06-1.28-.11-2.28-.15-3l0-.77a1,1,0,0,1,0-.26,1.51,1.51,0,0,1,0,.28l.07.8c.06.74.14,1.76.24,3,.19,2.67.46,6.46.79,11.13s.7,10.27,1.12,16.46c.1,1.54.2,3.13.31,4.75.05.81.11,1.63.16,2.45a7.83,7.83,0,0,0,.35,2.4,4.22,4.22,0,0,0,7.76.29,4.12,4.12,0,0,0,.39-1.54,15.5,15.5,0,0,0-.08-1.64c-.09-1.12-.18-2.22-.26-3.31-.17-2.19-.33-4.34-.49-6.43-.32-4.19-.62-8.17-.9-11.87L227.38,135l.12.13a13.07,13.07,0,0,0-6.18.57c-.7.23-1.22.45-1.56.59A4.33,4.33,0,0,1,219.22,136.5Z" style="fill:#263238"></path><path d="M278.93,137.54l-4.14,40.16a4.29,4.29,0,0,0,3.87,4.69h0a4.29,4.29,0,0,0,4.67-3.91l3.2-38.28C286.8,139.72,281.76,137.38,278.93,137.54Z" style="fill:#455a64"></path><path d="M278.93,137.54a2.71,2.71,0,0,1,.55,0,8.44,8.44,0,0,1,1.61.19,16.3,16.3,0,0,1,2.51.71c.48.18,1,.38,1.52.63.27.13.54.26.82.42s.27.17.4.27a1.06,1.06,0,0,1,.2.17.34.34,0,0,1,.12.38v-.06c-.35,4.49-.83,10.57-1.39,17.71-.3,3.58-.61,7.44-.94,11.49-.17,2-.34,4.1-.51,6.22-.1,1.07-.16,2.11-.29,3.22a4.54,4.54,0,0,1-9-1.39c.34-3.27.67-6.42,1-9.43.64-6,1.22-11.38,1.71-15.93s.9-8.13,1.19-10.69c.14-1.22.25-2.19.34-2.89l.09-.74a1.17,1.17,0,0,1,.05-.24s0,.1,0,.28,0,.46-.06.78c-.06.71-.15,1.7-.26,2.94-.25,2.58-.6,6.24-1,10.75s-1,9.9-1.56,15.87c-.3,3-.62,6.11-.95,9.35a4.08,4.08,0,0,0,1.87,4,4,4,0,0,0,6.1-2.77c.12-1,.19-2.14.28-3.18.18-2.12.36-4.2.53-6.22.35-4.05.68-7.9,1-11.49.63-7.14,1.17-13.21,1.57-17.69l.07,0c-.1,0,0,0-.12-.07l-.16-.15c-.12-.09-.25-.17-.38-.25s-.53-.3-.79-.43c-.52-.26-1-.47-1.49-.65a17,17,0,0,0-2.46-.77,10.94,10.94,0,0,0-1.58-.26Z" style="fill:#263238"></path><path d="M281.61,177.86a2.26,2.26,0,1,1-2.26-2.26A2.26,2.26,0,0,1,281.61,177.86Z" style="fill:#455a64"></path><path d="M281.61,177.86c-.05,0-.06-.2-.17-.53a2.26,2.26,0,0,0-.84-1.12,2.09,2.09,0,0,0-1.94-.24,2,2,0,0,0,0,3.78,2.06,2.06,0,0,0,1.94-.25,2.26,2.26,0,0,0,.84-1.12c.11-.32.12-.52.17-.52a.92.92,0,0,1,0,.57,2.22,2.22,0,0,1-.8,1.37,2.44,2.44,0,0,1-2.33.4,2.48,2.48,0,0,1,0-4.68,2.41,2.41,0,0,1,2.33.4,2.2,2.2,0,0,1,.8,1.36C281.69,177.66,281.63,177.86,281.61,177.86Z" style="fill:#263238"></path><path d="M228.4,176.86a2.26,2.26,0,1,1-2.26-2.25A2.26,2.26,0,0,1,228.4,176.86Z" style="fill:#455a64"></path><path d="M228.4,176.86s-.06-.2-.17-.52a2.29,2.29,0,0,0-.83-1.12,2.06,2.06,0,0,0-1.94-.25,2,2,0,0,0,0,3.78,2.09,2.09,0,0,0,1.94-.24,2.33,2.33,0,0,0,.83-1.12c.11-.33.13-.53.17-.53s.08.2,0,.58a2.3,2.3,0,0,1-.81,1.36,2.42,2.42,0,0,1-2.32.4,2.47,2.47,0,0,1,0-4.68,2.42,2.42,0,0,1,2.32.4,2.29,2.29,0,0,1,.81,1.37C228.48,176.66,228.43,176.86,228.4,176.86Z" style="fill:#263238"></path><g style="opacity:0.30000000000000004"><path d="M282.22,191.37a3.17,3.17,0,0,0-.43-4.2,4.6,4.6,0,0,0-4.38-.85c-1.61.46-3.35,1.6-4.8.77-1.17-.66-1.4-2.21-1.61-3.53s-.8-2.89-2.12-3.12a2.42,2.42,0,0,0-2.43,1.58,6.89,6.89,0,0,0-.32,3.07l-.25,1.61c-1.95.87-4.93,1-5.71,3s.05,4.69,2.1,5.3a7.8,7.8,0,0,1,2.42.65c1.24.86.85,2.78.26,4.18s-1.16,3.22-.07,4.28c2,1.94,5.7-1.87,7.89-.15,1.06.83,1,2.52,2,3.46,1.35,1.32,3.84.23,4.53-1.53s.14-3.73-.48-5.51c-.79-2.3-1.56-5.19.2-6.88C280,192.62,281.39,192.36,282.22,191.37Z"></path></g><path d="M215.65,138.34a25.84,25.84,0,0,0-15.28,8.1c-5.17,5.8-26,28.06-28,31.53s-8.67,11.56-5.49,17.92a24,24,0,0,0,11.85,11.28,54.63,54.63,0,0,0,11.75,3.35c1.38.17,4.49-1.47,5-2.76l8.23-21.13-.61-2.83,1.38-.77,8.66-3.5Z" style="fill:#e0e0e0"></path><path d="M225.28,194.75l-27.1-10.55c-.92,0-8.53,5.3-9.7,15.68-.24,2.18-.31,5.51,1,7.31h0l32.49,2.75Z" style="fill:#ffbf9d"></path><path d="M217.41,221.17l30.71,13,3.28-7.34-30.5-13.29a4.18,4.18,0,0,0-5.31,1.75h0A4.2,4.2,0,0,0,217.41,221.17Z" style="fill:#263238"></path><path d="M188.28,179.21a8.87,8.87,0,0,1,2.62-.48,20.24,20.24,0,0,1,6.4.83,12.21,12.21,0,0,1,5.38,3.53,4,4,0,0,1,1.14,2.41,9.37,9.37,0,0,0-1.42-2.17,13.07,13.07,0,0,0-5.27-3.27,23.07,23.07,0,0,0-6.21-1C189.3,179.14,188.3,179.3,188.28,179.21Z" style="fill:#263238"></path><path d="M200.51,171.15a31.73,31.73,0,0,0,1.11,6.22,30.45,30.45,0,0,0,2.83,5.66,5.11,5.11,0,0,1-1.27-1.41,15.8,15.8,0,0,1-2.06-4.09,15.33,15.33,0,0,1-.78-4.5A5.07,5.07,0,0,1,200.51,171.15Z" style="fill:#263238"></path><path d="M211,155.14c.14,0,.61,5.76,1.05,12.88s.68,12.92.54,12.93-.62-5.76-1.06-12.89S210.89,155.14,211,155.14Z" style="fill:#263238"></path><path d="M185.82,182.57c.07.07-.88,1-2.1,2.85a28.5,28.5,0,0,0-1.91,3.3,35.34,35.34,0,0,0-1.73,4.34,34.17,34.17,0,0,0-1.52,8.35c-.12,2.17,0,3.53-.1,3.54a3.37,3.37,0,0,1-.16-.95,20.1,20.1,0,0,1-.11-2.61,30.27,30.27,0,0,1,1.39-8.49,32.06,32.06,0,0,1,1.8-4.39,25.18,25.18,0,0,1,2-3.3,13,13,0,0,1,.92-1.17,9.62,9.62,0,0,1,.76-.83C185.54,182.77,185.79,182.54,185.82,182.57Z" style="fill:#263238"></path><path d="M189.43,207.19a3.67,3.67,0,0,1-.41-1,14,14,0,0,1-.6-2.79,18.59,18.59,0,0,1,1.41-9.24,24.39,24.39,0,0,1,5-8,11.92,11.92,0,0,1,2.23-1.78A3.74,3.74,0,0,1,198,184a20.64,20.64,0,0,0-7.65,10.4,19.83,19.83,0,0,0-1.53,9C189,205.76,189.53,207.16,189.43,207.19Z" style="fill:#263238"></path><g style="opacity:0.30000000000000004"><path d="M193.34,176.72a16.39,16.39,0,0,0-11.06,1.55c-.59.31-1.24.83-1.11,1.48a1.13,1.13,0,0,0,1.13.81,4,4,0,0,0,1.45-.38,19.25,19.25,0,0,1,13.38-.25,11.77,11.77,0,0,1,5.34,3.1C201.22,179.48,197.06,177.51,193.34,176.72Z"></path></g><path d="M250.52,247.44,263,233.08a2.08,2.08,0,0,1,2.74-.37l24.11,16.1a1.65,1.65,0,0,1-1,3l-36.83-.93A2.09,2.09,0,0,1,250.52,247.44Z" style="fill:#e0e0e0"></path><path d="M250.52,247.44a2.87,2.87,0,0,0-.4.87,1.9,1.9,0,0,0,.07,1.14,2,2,0,0,0,1,1.14,4.93,4.93,0,0,0,2,.22l2.43,0,5.91.11,15.39.33,9.09.21,2.38.06a2.87,2.87,0,0,0,1.09-.09,1.39,1.39,0,0,0,.72-.69c.77-1.54-1.4-2.23-2.64-3.2l-15.67-10.49-3.51-2.36-1.68-1.13-.82-.55a2.58,2.58,0,0,0-.8-.42,1.9,1.9,0,0,0-1.62.32,4.08,4.08,0,0,0-.61.63l-.6.68L260,236.85l-6.87,7.78-1.89,2.1-.5.54a.86.86,0,0,1-.18.17s0-.08.14-.21l.46-.57,1.82-2.16c1.62-1.9,3.91-4.59,6.74-7.89.71-.84,1.46-1.71,2.24-2.61l.59-.69a4.81,4.81,0,0,1,.67-.7,2.31,2.31,0,0,1,2-.39,2.89,2.89,0,0,1,.93.46l.82.55,1.69,1.12,3.53,2.34,15.69,10.46,2.07,1.38a2,2,0,0,1,.86,1.09,2,2,0,0,1-.11,1.38,1.88,1.88,0,0,1-1,.94,3.12,3.12,0,0,1-1.29.13L286,252l-9.08-.24-15.39-.44-5.91-.19-2.43-.08a5,5,0,0,1-2-.29,2.12,2.12,0,0,1-1.06-1.27,1.94,1.94,0,0,1,0-1.21,1.8,1.8,0,0,1,.33-.67C250.45,247.49,250.51,247.43,250.52,247.44Z" style="fill:#263238"></path><path d="M256,241c-2.5-2.22-2.13-3.86-1.8-5.31a3.67,3.67,0,0,0,0-2.49c-1-2.38-4.16-2.75-4.19-2.75l.11-1c.15,0,3.76.43,5,3.37a4.7,4.7,0,0,1,.08,3.13c-.31,1.34-.57,2.5,1.47,4.31Z" style="fill:#e0e0e0"></path><path d="M256,241.06h0c-2.52-2.23-2.15-3.88-1.81-5.33a3.7,3.7,0,0,0,0-2.48c-1-2.37-4.13-2.73-4.17-2.74h0v0l.11-1.05h0c.15,0,3.78.43,5.05,3.38a4.75,4.75,0,0,1,.07,3.15c-.3,1.33-.56,2.48,1.47,4.28h0l0,0Zm-6-10.61c.3,0,3.21.49,4.19,2.77a3.76,3.76,0,0,1,0,2.5c-.33,1.45-.7,3.08,1.77,5.27l.65-.73c-2-1.81-1.77-3-1.47-4.31a4.66,4.66,0,0,0-.07-3.12c-1.22-2.83-4.63-3.31-5-3.35Z" style="fill:#263238"></path><path d="M235.75,201.81s13.31,7.27,14.74,11.14,3,22.11,2,24.26-4.45,2.58-5.31.72-2.49-14.79-2.49-14.79-.23,8.18-3.25,9.33-6.17-3.44-6.17-3.44-6.33,3-7.61-2.87c0,0-6.31,0-6-4s.58-4.6.58-4.6l-.59-3.44s-11.47-1.72-11.47-2.15-1.72-11.2,4.45-16.94,11.48-4,11.48-4l4.47,7.66Z" style="fill:#455a64"></path><path d="M235.75,201.81a1.41,1.41,0,0,1-.35-.18l-1-.59-3.88-2.3h0v0L226,191.06l.09.07a11.19,11.19,0,0,0-8,1.53,14.61,14.61,0,0,0-6.48,7.24A24.6,24.6,0,0,0,210.3,211l.08.75c-.18,0,.21.11.41.17.48.12,1,.23,1.48.33,1,.2,2,.38,3.06.55,2.06.35,4.18.69,6.34,1l.18,0,0,.18.58,3.44v.05l0,.11a11.55,11.55,0,0,0-.26,1.43c-.06.51-.12,1-.16,1.54s-.09,1.05-.12,1.57a2.86,2.86,0,0,0,.28,1.41,3.88,3.88,0,0,0,2.36,1.77,11,11,0,0,0,3.13.52h.21l0,.2a4,4,0,0,0,2.49,3.17,6.57,6.57,0,0,0,4.37-.32c.13,0,.27-.1.39-.16l.19-.08.13.17a10.52,10.52,0,0,0,3.22,3,3.51,3.51,0,0,0,2,.47,2.4,2.4,0,0,0,1.69-1,10.18,10.18,0,0,0,1.52-4,28,28,0,0,0,.5-4.24l.51,0c.61,4.58,1.18,9,2,13.22a9.26,9.26,0,0,0,.42,1.49,1.72,1.72,0,0,0,1,.9,3.33,3.33,0,0,0,2.78-.4,3.15,3.15,0,0,0,1-1,3.37,3.37,0,0,0,.32-1.37,28.67,28.67,0,0,0,.08-2.93c-.07-3.88-.38-7.55-.73-10.95-.19-1.7-.38-3.34-.63-4.89a21,21,0,0,0-1-4.37,10.79,10.79,0,0,0-2.63-3c-1-.84-1.94-1.57-2.86-2.23-1.84-1.32-3.48-2.37-4.82-3.21l-3.1-1.88L236,202q-.28-.17-.27-.18l.29.14.83.44c.72.4,1.79,1,3.15,1.81s3,1.85,4.87,3.15c.93.65,1.9,1.38,2.9,2.21a11.1,11.1,0,0,1,2.74,3.11,21.35,21.35,0,0,1,1.06,4.44c.26,1.56.46,3.2.66,4.91.37,3.4.69,7.07.79,11,0,1,0,2-.08,3a3.76,3.76,0,0,1-.38,1.54,3.42,3.42,0,0,1-1.12,1.18,3.76,3.76,0,0,1-3.19.45A2.13,2.13,0,0,1,247,238a9.42,9.42,0,0,1-.46-1.58c-.88-4.23-1.46-8.67-2.08-13.27l.51,0a27.92,27.92,0,0,1-.51,4.33,10.44,10.44,0,0,1-1.62,4.2,2.9,2.9,0,0,1-2,1.21,4,4,0,0,1-2.32-.53,11,11,0,0,1-3.41-3.18l.33.08a3.93,3.93,0,0,1-.43.18,7.16,7.16,0,0,1-4.72.32,3.65,3.65,0,0,1-1.91-1.43,5.11,5.11,0,0,1-.57-1c-.14-.36-.23-.74-.34-1.1l.25.21a11.53,11.53,0,0,1-3.3-.56,4.43,4.43,0,0,1-2.65-2,3.47,3.47,0,0,1-.33-1.67c0-.54.08-1.06.12-1.58s.11-1.05.17-1.56a9.17,9.17,0,0,1,.31-1.6l0,.16-.58-3.45.21.2c-2.17-.33-4.28-.67-6.36-1-1-.18-2.06-.37-3.07-.57-.5-.1-1-.21-1.51-.34l-.38-.12a1,1,0,0,1-.23-.12.32.32,0,0,1-.12-.2v-.14l-.08-.75a25,25,0,0,1,1.36-11.34,13.13,13.13,0,0,1,2.84-4.41,17.92,17.92,0,0,1,3.85-3,11.45,11.45,0,0,1,8.25-1.49h.05l0,.06,4.42,7.68,0,0,3.83,2.39,1,.62Z" style="fill:#263238"></path><path d="M258.62,240.05a6.68,6.68,0,0,1,1.65,1.07l1.7,1.27,1,.77c.16.15.37.21.56.53a.83.83,0,0,1-.59,1.17,1.16,1.16,0,0,1-.43,0c-.23,0-.45-.1-.67-.16a8.09,8.09,0,0,1-1.2-.46,12.84,12.84,0,0,1-1.85-1.12,6.58,6.58,0,0,1-1.5-1.27,8.27,8.27,0,0,1,1.7,1,17.17,17.17,0,0,0,1.85,1,7.27,7.27,0,0,0,1.14.41l.62.14c.23,0,.29,0,.4-.07a.31.31,0,0,0,.06-.34c0-.08-.24-.22-.4-.36l-1-.79c-.56-.48-1.11-.93-1.63-1.36A8.35,8.35,0,0,1,258.62,240.05Z" style="fill:#263238"></path><path d="M228.59,220.35a25.48,25.48,0,0,1-.49,3,25.58,25.58,0,0,1-.35,3,5.56,5.56,0,0,1-.17-3.05A5.76,5.76,0,0,1,228.59,220.35Z" style="fill:#263238"></path><path d="M236,223.87a6.36,6.36,0,0,1,.19,2.52,6.45,6.45,0,0,1-.33,2.51,6.18,6.18,0,0,1-.19-2.52A6.45,6.45,0,0,1,236,223.87Z" style="fill:#263238"></path><path d="M229,199.1a32.94,32.94,0,0,0-4.09,4.6,31.78,31.78,0,0,0-2.67,5.55,4.77,4.77,0,0,1,.33-1.82,15.44,15.44,0,0,1,4.89-7.33A4.88,4.88,0,0,1,229,199.1Z" style="fill:#263238"></path><path d="M227.1,199c.07.14-1.24.88-2.61,2.1s-2.29,2.41-2.41,2.33a6.25,6.25,0,0,1,2.06-2.72A6.47,6.47,0,0,1,227.1,199Z" style="fill:#263238"></path><polygon points="62.4 450.01 62.24 316.89 62.24 294.54 92.56 294.47 119 294.47 119 276.62 149.66 276.62 149.66 256.8 183.8 256.8 183.8 241.03 236.56 241.03 236.56 256.8 309.69 256.8 366.33 256.87 366.33 274.72 392.87 274.72 392.87 294.54 422.5 294.95 422.57 477.39 62.32 477.38 62.4 450.01" style="fill:#e0e0e0"></polygon><path d="M307.68,256.68c-5.09-3.07-12.52.13-17.16-3.59-1.07-.86-1.87-2-2.94-2.88a8.75,8.75,0,0,0-6.93-1.48,17.53,17.53,0,0,0-6.62,3c-.82-2.54-3.88-3.75-6.53-3.47s-5,1.66-7.46,2.8c-8.17,3.82-25.46,3.65-34.82,3.65v2l83.12.43Z" style="fill:#e0e0e0"></path><path d="M225.22,254.69a6.22,6.22,0,0,1,.89-.05l2.56,0c2.22,0,5.43-.07,9.39-.23a111.62,111.62,0,0,0,13.85-1.29,34.62,34.62,0,0,0,7.84-2.19c2.56-1.15,5.2-2.82,8.38-2.93a7.42,7.42,0,0,1,3.71.88,5,5,0,0,1,2.44,2.8l-.39-.14a17.39,17.39,0,0,1,6.94-3,8.87,8.87,0,0,1,6.77,1.5,21.58,21.58,0,0,1,2.3,2.28,6.45,6.45,0,0,0,1.14,1,6.68,6.68,0,0,0,1.24.72,14.42,14.42,0,0,0,5.17,1c3.24.1,5.91.11,7.67.64a7.23,7.23,0,0,1,1.14.38,4,4,0,0,1,.8.37,6.29,6.29,0,0,1,.62.37,15.06,15.06,0,0,0-2.61-.94c-1.74-.47-4.36-.43-7.64-.48a14.62,14.62,0,0,1-5.32-1,8.18,8.18,0,0,1-1.31-.75,7.14,7.14,0,0,1-1.21-1,22.57,22.57,0,0,0-2.26-2.22,8.48,8.48,0,0,0-6.42-1.38,17.07,17.07,0,0,0-6.73,3l-.28.19-.11-.33a4.55,4.55,0,0,0-2.2-2.5,6.92,6.92,0,0,0-3.45-.81c-3,.1-5.58,1.71-8.18,2.87a34.2,34.2,0,0,1-8,2.2,107.7,107.7,0,0,1-13.92,1.19c-4,.11-7.18.09-9.4.06l-2.56,0A5.2,5.2,0,0,1,225.22,254.69Z" style="fill:#263238"></path><rect x="62.24" y="296.61" width="27.69" height="17.85" style="fill:#000080"></rect><path d="M89.93,314.46a2.47,2.47,0,0,1,0-.34c0-.25,0-.57,0-.95,0-.88,0-2.08-.06-3.61,0-3.13-.06-7.56-.1-12.95l.2.21-27.69.05.26-.26h0v4.67c0,1.55,0,3.07,0,4.56,0,3,0,5.86,0,8.6l-.24-.24,19.87.12,5.73.06,1.54,0,.55,0a2.83,2.83,0,0,1-.49,0l-1.49,0-5.68.06-20,.12H62v-.24c0-2.74,0-5.62,0-8.6v-9.23h0l.26-.26,27.69.06h.21v.2c0,5.45-.08,9.92-.11,13.08,0,1.5,0,2.7,0,3.56,0,.37,0,.67,0,.91A.87.87,0,0,1,89.93,314.46Z" style="fill:#263238"></path><rect x="184.27" y="237.3" width="52.67" height="17.85" style="fill:#000080"></rect><path d="M236.94,255.15a1.14,1.14,0,0,1,0-.32c0-.24,0-.54,0-.93,0-.83,0-2,0-3.53,0-3.08-.06-7.52-.1-13.07l.18.18-52.67.08.26-.26h0v4.6c0,1.52,0,3,0,4.52v8.71l-.25-.25,37.63.12,11,.07,3,0,.77,0h.28l-.25,0H236l-2.92,0-11,.07-37.8.11H184V237.32h0l.26-.26,52.67.09h.17v.17c0,5.6-.07,10.07-.1,13.18,0,1.5,0,2.66,0,3.49,0,.37,0,.67,0,.89A2.74,2.74,0,0,1,236.94,255.15Z" style="fill:#263238"></path><rect x="204.3" y="256.8" width="52.67" height="17.85" style="fill:#000080"></rect><path d="M257,274.65s0-.11,0-.32,0-.54,0-.93c0-.83,0-2,0-3.53,0-3.08-.06-7.52-.1-13.07l.17.18-52.66.08c-.24.24.31-.31.25-.26h0v17.83l-.26-.25,37.64.12,11,.07,3,0,.77,0H257s-.07,0-.24,0H256l-2.92,0-11,.07-37.81.11h-.25v-9c0-1.49,0-3,0-4.52v-4.6h0c0,.06.5-.49.27-.26l52.66.09h.18v.17c0,5.6-.08,10.07-.1,13.18,0,1.49,0,2.66,0,3.49,0,.37,0,.67,0,.89A.83.83,0,0,1,257,274.65Z" style="fill:#263238"></path><rect x="258.98" y="256.87" width="52.67" height="17.85" style="fill:#000080"></rect><path d="M311.65,274.72a2.33,2.33,0,0,1,0-.32c0-.24,0-.54,0-.93,0-.83,0-2,0-3.53,0-3.08-.05-7.52-.09-13.07l.17.17-52.67.09.26-.26h0V266c0,3,0,5.9,0,8.71l-.25-.25,37.63.12,11,.07,3,0h.78l.27,0a1,1,0,0,1-.24,0h-.75l-2.91,0-11,.08L259,275h-.25v-.25c0-2.81,0-5.72,0-8.71V256.9h0l.26-.26,52.67.09h.17v.17c0,5.59-.07,10.07-.09,13.17,0,1.5,0,2.67,0,3.5,0,.37,0,.66,0,.89A1.38,1.38,0,0,1,311.65,274.72Z" style="fill:#263238"></path><rect x="313.66" y="256.87" width="52.67" height="17.85" style="fill:#000080"></rect><path d="M366.33,274.72a2.33,2.33,0,0,1,0-.32c0-.24,0-.54,0-.93,0-.83,0-2,0-3.53,0-3.08-.06-7.52-.1-13.07l.18.17-52.67.09.26-.26h0V266c0,3,0,5.9,0,8.71l-.25-.25,37.63.12,11,.07,3,0h.77l.28,0-.25,0h-.74l-2.92,0-11,.08-37.8.11h-.25v-.25c0-2.81,0-5.72,0-8.71V256.9h0l.26-.26,52.67.09h.17v.17c0,5.59-.07,10.07-.1,13.17,0,1.5,0,2.67,0,3.5l0,.89A2.74,2.74,0,0,1,366.33,274.72Z" style="fill:#263238"></path><rect x="149.51" y="256.8" width="52.67" height="17.85" style="fill:#000080"></rect><path d="M202.18,274.65s0-.11,0-.32,0-.54,0-.93c0-.83,0-2,0-3.53,0-3.08-.06-7.52-.1-13.07l.17.18-52.66.08.26-.26h0v17.83l-.26-.25,37.64.12,11,.07,3,0,.77,0h.27s-.07,0-.24,0h-.74l-2.92,0-11,.07-37.81.11h-.25v-9c0-1.49,0-3,0-4.52v-4.6h0c-.05.06.5-.49.27-.26l52.66.09h.18v.17c0,5.6-.08,10.07-.1,13.18,0,1.49,0,2.66,0,3.49,0,.37,0,.67,0,.89A.83.83,0,0,1,202.18,274.65Z" style="fill:#263238"></path><rect x="173.69" y="276.69" width="52.67" height="17.85" style="fill:#000080"></rect><path d="M226.36,294.54s0-.11,0-.32,0-.54,0-.93c0-.83,0-2,0-3.53,0-3.08-.06-7.52-.1-13.07l.17.17L173.7,277c-.24.24.31-.32.26-.26h0V279c0,.77,0,1.53,0,2.3v13.23l-.25-.25,37.63.12,11,.07,3,0h.77l.27,0s-.07,0-.24,0h-.74l-2.92,0-11,.08-37.8.11h-.26V281.31c0-.77,0-1.53,0-2.3v-2.29h0c-.05.06.5-.49.27-.26l52.66.09h.18v.17c0,5.59-.08,10.07-.1,13.17,0,1.5,0,2.67,0,3.5,0,.37,0,.66,0,.89A.83.83,0,0,1,226.36,294.54Z" style="fill:#263238"></path><rect x="229.49" y="276.69" width="52.67" height="17.85" style="fill:#000080"></rect><path d="M282.16,294.54s0-.11,0-.32,0-.54,0-.93c0-.83,0-2-.05-3.53,0-3.08-.05-7.52-.09-13.07l.17.17L229.5,277l.25-.26h0v9.11c0,3,0,5.9,0,8.71l-.25-.25,37.64.12,11,.07,3,0h.78l.27,0a1,1,0,0,1-.24,0h-.75l-2.91,0-11,.08-37.81.11h-.25v-.25c0-2.81,0-5.72,0-8.71v-9.11h0l.27-.26,52.66.09h.17v.17c0,5.59-.07,10.07-.09,13.17,0,1.5,0,2.67,0,3.5,0,.37,0,.66,0,.89A1.38,1.38,0,0,1,282.16,294.54Z" style="fill:#263238"></path><rect x="284.34" y="276.69" width="52.67" height="17.85" style="fill:#000080"></rect><path d="M337,294.54s0-.11,0-.32,0-.54,0-.93c0-.83,0-2-.05-3.53,0-3.08-.05-7.52-.09-13.07l.17.17-52.66.09.25-.26h0v9.11c0,3,0,5.9,0,8.71l-.25-.25,37.64.12,11,.07,3,0h.78l.27,0s-.07,0-.24,0H336l-2.92,0-11,.08-37.81.11h-.25v-.25c0-2.81,0-5.72,0-8.71v-9.11h0c-.05.06.5-.49.27-.26l52.66.09h.18v.17c0,5.59-.07,10.07-.09,13.17,0,1.5,0,2.67,0,3.5,0,.37,0,.66,0,.89A1.38,1.38,0,0,1,337,294.54Z" style="fill:#263238"></path><rect x="340.2" y="276.69" width="52.67" height="17.85" style="fill:#000080"></rect><path d="M392.87,294.54a2.15,2.15,0,0,1,0-.32c0-.24,0-.54,0-.93,0-.83,0-2,0-3.53,0-3.08-.05-7.52-.09-13.07l.17.17L340.2,277c-.23.24.32-.32.26-.26h0v9.11c0,3,0,5.9,0,8.71l-.25-.25,37.63.12,11,.07,3,0h.78l.27,0-.24,0h-.75l-2.91,0-11,.08-37.81.11H340v-.25c0-2.81,0-5.72,0-8.71v-9.11h0l.26-.26,52.67.09H393v.17c0,5.59-.07,10.07-.09,13.17,0,1.5,0,2.67-.05,3.5v.89A1.38,1.38,0,0,1,392.87,294.54Z" style="fill:#263238"></path><rect x="118.91" y="276.62" width="52.67" height="17.85" style="fill:#000080"></rect><path d="M171.57,294.47s0-.11,0-.32,0-.54,0-.93c0-.83,0-2,0-3.53,0-3.08-.06-7.52-.1-13.07l.17.18-52.66.08.26-.26h0v2.3c0,.77,0,1.53,0,2.3v13.23l-.25-.25,37.63.12,11,.07,3,0,.77,0h.27s-.07,0-.24,0h-.74l-2.92,0-11,.07-37.8.11h-.26V281.24c0-.77,0-1.53,0-2.3v-2.3h0c0,.06.5-.49.27-.26l52.66.09h.18v.17c0,5.6-.08,10.07-.1,13.18,0,1.49,0,2.66,0,3.49,0,.37,0,.67,0,.89A.83.83,0,0,1,171.57,294.47Z" style="fill:#263238"></path><rect x="147.3" y="296.58" width="52.67" height="17.85" style="fill:#000080"></rect><path d="M200,314.43a2.4,2.4,0,0,1,0-.33c0-.23,0-.53,0-.92,0-.83,0-2,0-3.53,0-3.08,0-7.52-.09-13.07l.17.17-52.67.09.26-.26h0v9.11c0,3,0,5.9,0,8.71l-.25-.25,37.63.11,11,.08,3,0h.78l.27,0-.24,0H199l-2.91,0-11,.07-37.81.12h-.25v-.25c0-2.81,0-5.72,0-8.71v-9.11h0l.26-.26,52.67.09h.17v.17c0,5.59-.07,10.07-.09,13.17,0,1.5,0,2.67-.05,3.5,0,.37,0,.66,0,.89S200,314.44,200,314.43Z" style="fill:#263238"></path><rect x="203.1" y="296.58" width="52.67" height="17.85" style="fill:#000080"></rect><path d="M255.77,314.43a1.32,1.32,0,0,1,0-.33c0-.23,0-.53,0-.92,0-.83,0-2,0-3.53,0-3.08-.06-7.52-.1-13.07l.18.17-52.67.09c-.23.23.31-.32.26-.26h0v4.58c0,1.53,0,3,0,4.53v8.71l-.25-.25,37.63.11,11,.08,3,0h.77l.28,0-.25,0h-.74l-2.92,0-11,.07-37.8.12h-.26V296.61h0l.26-.26,52.67.09h.17v.17c0,5.59-.07,10.07-.1,13.17,0,1.5,0,2.67,0,3.5,0,.37,0,.66,0,.89A2.74,2.74,0,0,1,255.77,314.43Z" style="fill:#263238"></path><rect x="257.95" y="296.58" width="52.67" height="17.85" style="fill:#000080"></rect><path d="M310.62,314.43a2.4,2.4,0,0,1,0-.33c0-.23,0-.53,0-.92,0-.83,0-2,0-3.53,0-3.08-.06-7.52-.1-13.07l.18.17-52.67.09.26-.26h0v9.11c0,3,0,5.9,0,8.71l-.25-.25,37.63.11,11,.08,3,0h.77l.28,0-.25,0h-.74l-2.92,0-11,.07-37.8.12h-.25v-.25c0-2.81,0-5.72,0-8.71v-9.11h0l.26-.26,52.67.09h.17v.17c0,5.59-.07,10.07-.1,13.17,0,1.5,0,2.67,0,3.5,0,.37,0,.66,0,.89A2.74,2.74,0,0,1,310.62,314.43Z" style="fill:#263238"></path><rect x="313.8" y="296.58" width="52.67" height="17.85" style="fill:#000080"></rect><path d="M366.47,314.43s0-.12,0-.33,0-.53,0-.92c0-.83,0-2,0-3.53,0-3.08-.06-7.52-.1-13.07l.17.17-52.66.09c-.24.23.31-.32.25-.26h0v17.82l-.26-.25,37.64.11,11,.08,3,0h.77l.27,0-.24,0h-.74l-2.92,0-11,.07-37.81.12h-.25v-9c0-1.49,0-3,0-4.53v-4.58h0c-.05.06.5-.49.27-.26l52.66.09h.18v.17c0,5.59-.08,10.07-.1,13.17,0,1.5,0,2.67,0,3.5,0,.37,0,.66,0,.89A.83.83,0,0,1,366.47,314.43Z" style="fill:#263238"></path><rect x="369.24" y="296.58" width="53.24" height="17.85" style="fill:#000080"></rect><path d="M422.48,314.43a2.4,2.4,0,0,1,0-.33l0-.92c0-.83,0-2,0-3.53,0-3.08,0-7.52-.09-13.07l.17.17-53.24.09c.12-.11-.26.26.26-.26h0v9.11c0,3,0,5.89,0,8.71l-.25-.25,38,.11,11.13.08,3,0h.78l.28,0-.25,0h-.75l-3,0-11.08.07-38.21.12H369v-.25c0-2.82,0-5.73,0-8.71v-9.11h0l.26-.26,53.24.09h.17v.17c0,5.6-.07,10.07-.1,13.18,0,1.49,0,2.66,0,3.49l0,.89A2.74,2.74,0,0,1,422.48,314.43Z" style="fill:#263238"></path><rect x="92.51" y="296.51" width="52.67" height="17.85" style="fill:#000080"></rect><path d="M145.18,314.36a2.15,2.15,0,0,1,0-.32c0-.24,0-.54,0-.93,0-.83,0-2,0-3.53,0-3.08,0-7.52-.09-13.07l.17.17-52.67.09.26-.26h0v9.11c0,3,0,5.9,0,8.71l-.25-.25,37.63.12,11,.07,3,0,.78,0h.27l-.24,0h-.75l-2.91,0-11,.07-37.81.11h-.25v-.25c0-2.81,0-5.72,0-8.71v-9.11h0l.26-.26,52.67.09h.17v.17c0,5.6-.07,10.07-.09,13.17,0,1.5,0,2.67,0,3.5,0,.37,0,.66,0,.89A1.38,1.38,0,0,1,145.18,314.36Z" style="fill:#263238"></path><rect x="144.72" y="337.23" width="52.67" height="17.85" style="fill:#000080"></rect><path d="M197.39,355.08a2.33,2.33,0,0,1,0-.32c0-.24,0-.54,0-.93,0-.83,0-2,0-3.53,0-3.08-.05-7.52-.09-13.07l.17.17-52.67.09.26-.26h0v9.11c0,3,0,5.9,0,8.71l-.25-.25,37.63.12,11,.07,3,0h.78l.27,0a1,1,0,0,1-.24,0h-.75l-2.91,0-11,.08-37.81.11h-.25v-.25c0-2.81,0-5.72,0-8.71v-9.11h0l.26-.26,52.67.09h.17v.17c0,5.59-.07,10.07-.09,13.17,0,1.5,0,2.67,0,3.5,0,.37,0,.66,0,.89A1.38,1.38,0,0,1,197.39,355.08Z" style="fill:#263238"></path><rect x="200.52" y="337.23" width="52.67" height="17.85" style="fill:#000080"></rect><path d="M253.19,355.08a2.33,2.33,0,0,1,0-.32c0-.24,0-.54,0-.93,0-.83,0-2,0-3.53,0-3.08-.05-7.52-.09-13.07l.17.17-52.67.09.26-.26h0v9.11c0,3,0,5.9,0,8.71l-.25-.25,37.63.12,11,.07,3,0h.77l.28,0-.24,0h-.75l-2.92,0-11,.08-37.8.11h-.25v-.25c0-2.81,0-5.72,0-8.71v-9.11h0l.26-.26,52.67.09h.17v.17c0,5.59-.07,10.07-.09,13.17,0,1.5,0,2.67-.05,3.5,0,.37,0,.66,0,.89A2.74,2.74,0,0,1,253.19,355.08Z" style="fill:#263238"></path><rect x="255.37" y="337.23" width="52.67" height="17.85" style="fill:#000080"></rect><path d="M308,355.08a2.33,2.33,0,0,1,0-.32l0-.93c0-.83,0-2,0-3.53,0-3.08,0-7.52-.09-13.07l.17.17-52.67.09.26-.26h0v9.11c0,3,0,5.9,0,8.71l-.25-.25L293,355l11,.07,3,0h.77l.28,0-.24,0h-.75l-2.91,0-11,.08-37.81.11h-.25v-.25c0-2.81,0-5.72,0-8.71v-9.11h0l.26-.26,52.67.09h.17v.17c0,5.59-.07,10.07-.09,13.17,0,1.5,0,2.67-.05,3.5,0,.37,0,.66,0,.89S308,355.09,308,355.08Z" style="fill:#263238"></path><rect x="311.23" y="337.23" width="52.67" height="17.85" style="fill:#000080"></rect><path d="M363.9,355.08a1.27,1.27,0,0,1,0-.32c0-.24,0-.54,0-.93,0-.83,0-2,0-3.53,0-3.08-.06-7.52-.1-13.07l.18.17-52.67.09.26-.26h0v4.59c0,1.52,0,3,0,4.52v8.71l-.25-.25,37.63.12,11,.07,3,0h.77l.28,0-.25,0h-.74l-2.92,0-11,.08-37.8.11H311V337.26h0l.26-.26,52.67.09h.17v.17c0,5.59-.07,10.07-.1,13.17,0,1.5,0,2.67,0,3.5,0,.37,0,.66,0,.89A2.74,2.74,0,0,1,363.9,355.08Z" style="fill:#263238"></path><rect x="367.25" y="337.23" width="55.25" height="17.85" style="fill:#000080"></rect><path d="M422.5,355.08a1.2,1.2,0,0,1,0-.32c0-.23,0-.54,0-.92,0-.83,0-2,0-3.53,0-3.08-.05-7.51-.09-13.08l.17.17-55.25.09.26-.26h0v9.1c0,3,0,5.9,0,8.72l-.25-.25,39.46.11,11.57.08,3.12,0h.81l.29,0-.26,0h-.78l-3.07,0-11.51.07-39.63.11H367v-.25c0-2.82,0-5.74,0-8.72v-9.1h0l.26-.26,55.25.09h.17v.17c0,5.61-.08,10.08-.1,13.18,0,1.5,0,2.67,0,3.49,0,.37,0,.67,0,.89A2.74,2.74,0,0,1,422.5,355.08Z" style="fill:#263238"></path><rect x="89.93" y="337.16" width="52.67" height="17.85" style="fill:#000080"></rect><path d="M142.6,355a2,2,0,0,1,0-.32c0-.24,0-.54,0-.93,0-.83,0-2,0-3.53,0-3.08-.05-7.52-.09-13.07l.17.18-52.67.08.26-.26h0v9.12c0,3,0,5.9,0,8.71l-.25-.25,37.63.12,11,.07,3,0,.78,0h.27a1,1,0,0,1-.24,0h-.75l-2.91,0-11,.07-37.81.11h-.25V355c0-2.81,0-5.72,0-8.71v-9.12h0c-.06.06.5-.49.26-.26l52.67.09h.17v.17c0,5.6-.07,10.07-.09,13.18,0,1.49,0,2.66,0,3.49,0,.37,0,.67,0,.89A1.38,1.38,0,0,1,142.6,355Z" style="fill:#263238"></path><rect x="117.03" y="316.96" width="52.67" height="17.85" style="fill:#000080"></rect><path d="M169.7,334.81a1.32,1.32,0,0,1,0-.33c0-.23,0-.54,0-.92,0-.84,0-2,0-3.54,0-3.08-.06-7.51-.1-13.06l.18.17-52.67.09.26-.26h0v9.13c0,3,0,5.89,0,8.71l-.25-.26,37.63.12,11,.07,3,0,.77,0a1,1,0,0,1,.28,0h-.25l-.74,0-2.92,0-11,.07-37.8.12h-.25V317h0l.26-.26,52.67.08h.17V317c0,5.59-.07,10.06-.1,13.17,0,1.5,0,2.67,0,3.49l0,.89C169.71,334.71,169.7,334.81,169.7,334.81Z" style="fill:#263238"></path><rect x="172.82" y="316.96" width="52.67" height="17.85" style="fill:#000080"></rect><path d="M225.49,334.81s0-.12,0-.33,0-.54,0-.92c0-.84,0-2,0-3.54,0-3.08-.06-7.51-.1-13.06l.17.17-52.66.09c-.24.23.31-.32.25-.26h0v17.84l-.26-.26,37.64.12,11,.07,3,0,.78,0a.8.8,0,0,1,.27,0h-.24l-.74,0-2.92,0-11,.07-37.81.12h-.25v-9c0-1.49,0-3,0-4.53V317h0c-.05.05.5-.5.27-.26l52.66.08h.18V317c0,5.59-.08,10.06-.1,13.17,0,1.5,0,2.67,0,3.49,0,.37,0,.67,0,.89A1.71,1.71,0,0,1,225.49,334.81Z" style="fill:#263238"></path><rect x="227.67" y="316.96" width="52.67" height="17.85" style="fill:#000080"></rect><path d="M280.34,334.81s0-.12,0-.33,0-.54,0-.92c0-.84,0-2,0-3.54,0-3.08-.06-7.51-.1-13.06l.17.17-52.66.09c-.24.23.31-.32.26-.26h0v17.84l-.26-.26,37.64.12,11,.07,3,0,.77,0a.8.8,0,0,1,.27,0h-.24l-.74,0-2.92,0-11,.07-37.81.12h-.25v-9c0-1.49,0-3,0-4.53V317h0c0,.05.5-.5.27-.26l52.66.08h.18V317c0,5.59-.08,10.06-.1,13.17,0,1.5,0,2.67,0,3.49,0,.37,0,.67,0,.89A1,1,0,0,1,280.34,334.81Z" style="fill:#263238"></path><rect x="283.53" y="316.96" width="52.67" height="17.85" style="fill:#000080"></rect><path d="M336.2,334.81s0-.12,0-.33v-.92c0-.84,0-2-.05-3.54,0-3.08-.05-7.51-.09-13.06l.17.17-52.67.09.26-.26h0v9.13c0,3,0,5.89,0,8.71l-.25-.26,37.64.12,11,.07,3,0,.78,0a.85.85,0,0,1,.27,0H336l-.75,0-2.91,0-11,.07-37.81.12h-.25v-.25c0-2.82,0-5.73,0-8.71V317h0l.26-.26,52.67.08h.17V317c0,5.59-.07,10.06-.09,13.17,0,1.5,0,2.67,0,3.49,0,.37,0,.67,0,.89A1.71,1.71,0,0,1,336.2,334.81Z" style="fill:#263238"></path><rect x="339.55" y="316.96" width="52.67" height="17.85" style="fill:#000080"></rect><path d="M392.22,334.81s0-.12,0-.33,0-.54,0-.92c0-.84,0-2,0-3.54,0-3.08-.06-7.51-.1-13.06l.17.17-52.66.09c-.24.23.31-.32.25-.26h0v17.84l-.26-.26,37.64.12,11,.07,3,0,.78,0a.8.8,0,0,1,.27,0H392l-.74,0-2.92,0-11,.07-37.81.12h-.25v-9c0-1.49,0-3,0-4.53V317h0c-.05.05.5-.5.27-.26l52.66.08h.18V317c0,5.59-.08,10.06-.1,13.17,0,1.5,0,2.67,0,3.49,0,.37,0,.67,0,.89A1.71,1.71,0,0,1,392.22,334.81Z" style="fill:#263238"></path><rect x="62.24" y="316.89" width="52.67" height="17.85" style="fill:#000080"></rect><path d="M114.91,334.74a1.32,1.32,0,0,1,0-.33c0-.23,0-.54,0-.92,0-.84,0-2,0-3.53,0-3.09-.06-7.52-.1-13.07l.18.17-52.67.09.26-.26h0V326c0,3,0,5.89,0,8.71l-.25-.26,37.63.12,11,.07,3,0,.77,0,.28,0h-.25l-.74,0-2.92,0-11,.07-37.8.12H62v-.25c0-2.82,0-5.73,0-8.71V316.9h0l.26-.26,52.67.09h.17v.17c0,5.59-.07,10.06-.1,13.17,0,1.5,0,2.67,0,3.49,0,.38,0,.67,0,.9S114.91,334.74,114.91,334.74Z" style="fill:#263238"></path><rect x="62.24" y="337.26" width="25.57" height="17.85" style="fill:#000080"></rect><path d="M87.81,355.11a2.47,2.47,0,0,1,0-.34c0-.26,0-.57,0-1,0-.88,0-2.09-.05-3.62,0-3.14-.06-7.56-.11-12.93l.21.21-25.57,0c-.06.06.49-.49.26-.25h0V342c0,1.55,0,3.08,0,4.57,0,3,0,5.86,0,8.56l-.23-.23,18.37.11,5.28.07,1.41,0,.51,0a2.29,2.29,0,0,1-.45,0l-1.37,0-5.22.06-18.53.12H62v-.24c0-2.7,0-5.57,0-8.56v-9.27h0c-.24.23.31-.32.26-.27l25.57.05H88v.21c0,5.42-.08,9.89-.11,13.06,0,1.51,0,2.7,0,3.57,0,.38,0,.68,0,.92A.87.87,0,0,1,87.81,355.11Z" style="fill:#263238"></path><rect x="395.58" y="316.96" width="26.92" height="17.85" style="fill:#000080"></rect><path d="M422.5,334.81a1.84,1.84,0,0,1,0-.35c0-.25,0-.56,0-.95,0-.88,0-2.09-.05-3.61,0-3.13-.07-7.56-.11-12.94l.21.2-26.92.06c-.06,0,.49-.5.26-.26h0v4.69c0,1.54,0,3.06,0,4.56,0,3,0,5.86,0,8.59l-.23-.24,19.32.11,5.57.07,1.49,0,.54,0-.48,0-1.45,0-5.51.07-19.48.11h-.24v-.24c0-2.73,0-5.61,0-8.59V317h0l.26-.26,26.92.05h.21V317c0,5.43-.08,9.9-.11,13.07,0,1.5,0,2.7,0,3.56,0,.37,0,.67,0,.92S422.5,334.81,422.5,334.81Z" style="fill:#263238"></path><rect x="144.72" y="377.98" width="52.67" height="17.85" style="fill:#000080"></rect><path d="M197.39,395.83a2,2,0,0,1,0-.32c0-.24,0-.54,0-.93,0-.83,0-2,0-3.53,0-3.08-.05-7.52-.09-13.07l.17.18-52.67.08L145,378h0v9.12c0,3,0,5.9,0,8.71l-.25-.25,37.63.12,11,.07,3,0,.78,0h.27a1,1,0,0,1-.24,0h-.75l-2.91,0-11,.07-37.81.11h-.25v-.25c0-2.81,0-5.72,0-8.71V378h0l.26-.26,52.67.09h.17V378c0,5.6-.07,10.07-.09,13.18,0,1.49,0,2.66,0,3.49,0,.37,0,.67,0,.89A1.38,1.38,0,0,1,197.39,395.83Z" style="fill:#263238"></path><rect x="200.52" y="377.98" width="52.67" height="17.85" style="fill:#000080"></rect><path d="M253.19,395.83a2,2,0,0,1,0-.32c0-.24,0-.54,0-.93,0-.83,0-2,0-3.53,0-3.08-.05-7.52-.09-13.07l.17.18-52.67.08.26-.26h0v9.12c0,3,0,5.9,0,8.71l-.25-.25,37.63.12,11,.07,3,0,.77,0h.28l-.24,0h-.75l-2.92,0-11,.07-37.8.11h-.25v-.25c0-2.81,0-5.72,0-8.71V378h0l.26-.26,52.67.09h.17V378c0,5.6-.07,10.07-.09,13.18,0,1.49,0,2.66-.05,3.49,0,.37,0,.67,0,.89A2.74,2.74,0,0,1,253.19,395.83Z" style="fill:#263238"></path><rect x="255.37" y="377.98" width="52.67" height="17.85" style="fill:#000080"></rect><path d="M308,395.83a2,2,0,0,1,0-.32l0-.93c0-.83,0-2,0-3.53,0-3.08,0-7.52-.09-13.07l.17.18-52.67.08.26-.26h0v9.12c0,3,0,5.9,0,8.71l-.25-.25,37.63.12,11,.07,3,0,.77,0H308l-.24,0h-.75l-2.91,0-11,.07-37.81.11h-.25v-.25c0-2.81,0-5.72,0-8.71V378h0l.26-.26,52.67.09h.17V378c0,5.6-.07,10.07-.09,13.18,0,1.49,0,2.66-.05,3.49,0,.37,0,.67,0,.89S308,395.84,308,395.83Z" style="fill:#263238"></path><rect x="311.23" y="377.98" width="52.67" height="17.85" style="fill:#000080"></rect><path d="M363.9,395.83a1.14,1.14,0,0,1,0-.32c0-.24,0-.54,0-.93,0-.83,0-2,0-3.53,0-3.08-.06-7.52-.1-13.07l.18.18-52.67.08.26-.26h0v4.6c0,1.52,0,3,0,4.52v8.71l-.25-.25,37.63.12,11,.07,3,0,.77,0h.28l-.25,0h-.74l-2.92,0L349,396l-37.8.11H311V378h0l.26-.26,52.67.09h.17V378c0,5.6-.07,10.07-.1,13.18,0,1.49,0,2.66,0,3.49,0,.37,0,.67,0,.89A2.74,2.74,0,0,1,363.9,395.83Z" style="fill:#263238"></path><rect x="367.25" y="377.98" width="55.25" height="17.85" style="fill:#000080"></rect><path d="M422.5,395.83a1.14,1.14,0,0,1,0-.32c0-.23,0-.54,0-.92,0-.83,0-2,0-3.53,0-3.07-.05-7.51-.09-13.08l.17.17-55.25.09.26-.26h0v9.11q0,4.49,0,8.72l-.25-.25,39.46.12,11.57.07,3.12,0,.81,0h.29l-.26,0h-.78l-3.07,0-11.51.07-39.63.11H367v-.26q0-4.23,0-8.72V378h0l.26-.26,55.25.09h.17V378c0,5.61-.08,10.08-.1,13.19,0,1.49,0,2.66,0,3.48,0,.37,0,.67,0,.89A2.74,2.74,0,0,1,422.5,395.83Z" style="fill:#263238"></path><rect x="89.93" y="377.91" width="52.67" height="17.85" style="fill:#000080"></rect><path d="M142.6,395.76a2,2,0,0,1,0-.32c0-.23,0-.54,0-.92,0-.84,0-2,0-3.54,0-3.08-.05-7.52-.09-13.07l.17.18-52.67.09.26-.26h0v9.13c0,3,0,5.89,0,8.7l-.25-.25,37.63.12,11,.07,3,0,.78,0h.27a1,1,0,0,1-.24,0l-.75,0-2.91,0-11,.07L89.93,396h-.25v-.26c0-2.81,0-5.72,0-8.7v-9.13h0c-.06.05.5-.5.26-.27l52.67.09h.17v.17c0,5.6-.07,10.07-.09,13.18,0,1.5,0,2.67,0,3.49,0,.37,0,.67,0,.89A1.38,1.38,0,0,1,142.6,395.76Z" style="fill:#263238"></path><rect x="117.54" y="357.71" width="52.67" height="17.85" style="fill:#000080"></rect><path d="M170.21,375.56s0-.12,0-.33,0-.54,0-.92c0-.84,0-2-.05-3.53,0-3.09,0-7.52-.09-13.07l.17.17-52.66.09c-.24.23.31-.32.25-.26h0v9.13c0,3,0,5.89,0,8.71l-.25-.25,37.64.11,11,.07,3,0h.78l.27,0H170l-.74,0-2.92,0-11,.07-37.81.12h-.25v-.25c0-2.82,0-5.73,0-8.71v-9.13h0l.27-.26,52.66.09h.18v.17c0,5.59-.07,10.06-.09,13.17,0,1.5,0,2.67,0,3.49,0,.38,0,.67,0,.9A1.64,1.64,0,0,1,170.21,375.56Z" style="fill:#263238"></path><rect x="172.82" y="357.71" width="52.67" height="17.85" style="fill:#000080"></rect><path d="M225.49,375.56s0-.12,0-.33,0-.54,0-.92c0-.84,0-2,0-3.53,0-3.09-.06-7.52-.1-13.07l.17.17-52.66.09c-.24.23.31-.32.25-.26h0v17.84l-.26-.25,37.64.11,11,.07,3,0h.78l.27,0h-.24l-.74,0-2.92,0-11,.07-37.81.12h-.25v-9c0-1.49,0-3,0-4.53v-4.6h0l.27-.26,52.66.09h.18v.17c0,5.59-.08,10.06-.1,13.17,0,1.5,0,2.67,0,3.49,0,.38,0,.67,0,.9A1.64,1.64,0,0,1,225.49,375.56Z" style="fill:#263238"></path><rect x="228.19" y="357.71" width="52.67" height="17.85" style="fill:#000080"></rect><path d="M280.86,375.56a2.4,2.4,0,0,1,0-.33c0-.23,0-.54,0-.92,0-.84,0-2,0-3.53,0-3.09,0-7.52-.09-13.07l.17.17-52.67.09.26-.26h0v9.13c0,3,0,5.89,0,8.71l-.25-.25,37.63.11,11,.07,3,0h.78l.27,0h-.24l-.75,0-2.91,0-11,.07-37.81.12h-.25v-.25c0-2.82,0-5.73,0-8.71v-9.13h0c-.06.05.5-.49.26-.26l52.67.09H281v.17c0,5.59-.07,10.06-.09,13.17,0,1.5,0,2.67,0,3.49,0,.38,0,.67,0,.9A1.64,1.64,0,0,1,280.86,375.56Z" style="fill:#263238"></path><rect x="284.05" y="357.71" width="52.67" height="17.85" style="fill:#000080"></rect><path d="M336.72,375.56a2.4,2.4,0,0,1,0-.33c0-.23,0-.54,0-.92,0-.84,0-2,0-3.53,0-3.09-.06-7.52-.1-13.07l.18.17-52.67.09.26-.26h0v9.13c0,3,0,5.89,0,8.71l-.25-.25,37.63.11,11,.07,3,0h.77l.28,0h-.25l-.74,0-2.92,0-11,.07-37.8.12h-.25v-.25c0-2.82,0-5.73,0-8.71v-9.13h0l.26-.26,52.67.09h.17v.17c0,5.59-.07,10.06-.1,13.17,0,1.5,0,2.67,0,3.49l0,.9C336.73,375.46,336.72,375.56,336.72,375.56Z" style="fill:#263238"></path><rect x="339.55" y="357.71" width="52.67" height="17.85" style="fill:#000080"></rect><path d="M392.22,375.56s0-.12,0-.33,0-.54,0-.92c0-.84,0-2,0-3.53,0-3.09-.06-7.52-.1-13.07l.17.17-52.66.09c-.24.23.31-.32.25-.26h0v17.84l-.26-.25,37.64.11,11,.07,3,0H392l.27,0H392l-.74,0-2.92,0-11,.07-37.81.12h-.25v-9c0-1.49,0-3,0-4.53v-4.6h0l.27-.26,52.66.09h.18v.17c0,5.59-.08,10.06-.1,13.17,0,1.5,0,2.67,0,3.49,0,.38,0,.67,0,.9A1.64,1.64,0,0,1,392.22,375.56Z" style="fill:#263238"></path><rect x="62.24" y="357.64" width="52.67" height="17.85" style="fill:#000080"></rect><path d="M114.91,375.49a1.32,1.32,0,0,1,0-.33c0-.23,0-.53,0-.92,0-.83,0-2,0-3.53,0-3.08-.06-7.52-.1-13.07l.18.17-52.67.09.26-.26h0v9.13c0,3,0,5.9,0,8.71l-.25-.25,37.63.11,11,.07,3,0h.77l.28,0h-.25l-.74,0-2.92,0-11,.07-37.8.12H62v-.25c0-2.81,0-5.73,0-8.71v-9.13h0l.26-.26,52.67.09h.17v.17c0,5.59-.07,10.06-.1,13.17,0,1.5,0,2.67,0,3.5,0,.37,0,.66,0,.89S114.91,375.49,114.91,375.49Z" style="fill:#263238"></path><rect x="62.24" y="378.02" width="25.57" height="17.85" style="fill:#000080"></rect><path d="M87.81,395.86a2.3,2.3,0,0,1,0-.34q0-.37,0-1c0-.88,0-2.09-.05-3.62,0-3.13-.06-7.56-.11-12.92l.21.21-25.57,0,.26-.26h0v4.7c0,1.55,0,3.08,0,4.57,0,3,0,5.86,0,8.56l-.23-.23,18.37.11,5.28.07,1.41,0,.51,0a2.29,2.29,0,0,1-.45,0l-1.37,0-5.22.06-18.53.12H62v-.24c0-2.7,0-5.57,0-8.56V378h0c-.24.23.31-.32.26-.27l25.57.06H88V378c0,5.41-.08,9.89-.11,13.06,0,1.5,0,2.7,0,3.56,0,.38,0,.68,0,.92A.87.87,0,0,1,87.81,395.86Z" style="fill:#263238"></path><rect x="395.58" y="357.66" width="26.92" height="17.85" style="fill:#000080"></rect><path d="M422.5,375.51a1.84,1.84,0,0,1,0-.35c0-.25,0-.56,0-1,0-.88,0-2.09-.05-3.61,0-3.13-.07-7.56-.11-12.94l.21.21-26.92.05.26-.26h0v4.69c0,1.54,0,3.07,0,4.56,0,3,0,5.86,0,8.59l-.23-.24,19.32.12,5.57.06,1.49,0,.54,0a2.39,2.39,0,0,1-.48,0l-1.45,0-5.51.07-19.48.12h-.24v-.24c0-2.73,0-5.6,0-8.59v-9.25h0c-.24.23.31-.32.26-.26l26.92.05h.21v.21c0,5.43-.08,9.9-.11,13.07,0,1.5,0,2.7,0,3.56,0,.37,0,.68,0,.92S422.5,375.51,422.5,375.51Z" style="fill:#263238"></path><rect x="144.72" y="418.4" width="52.67" height="17.85" style="fill:#000080"></rect><path d="M197.39,436.25a2.33,2.33,0,0,1,0-.32c0-.24,0-.54,0-.93,0-.83,0-2,0-3.53,0-3.08-.05-7.52-.09-13.07l.17.17-52.67.09.26-.26h0v9.11c0,3,0,5.9,0,8.71l-.25-.25,37.63.12,11,.07,3,0h.78l.27,0a1,1,0,0,1-.24,0h-.75l-2.91,0-11,.08-37.81.11h-.25v-.25c0-2.81,0-5.72,0-8.71v-9.11h0c-.06.06.5-.49.26-.26l52.67.09h.17v.17c0,5.59-.07,10.07-.09,13.17,0,1.5,0,2.67,0,3.5,0,.37,0,.66,0,.89A1.38,1.38,0,0,1,197.39,436.25Z" style="fill:#263238"></path><rect x="200.52" y="418.4" width="52.67" height="17.85" style="fill:#000080"></rect><path d="M253.19,436.25a2.33,2.33,0,0,1,0-.32c0-.24,0-.54,0-.93,0-.83,0-2,0-3.53,0-3.08-.05-7.52-.09-13.07l.17.17-52.67.09.26-.26h0v9.11c0,3,0,5.9,0,8.71l-.25-.25,37.63.12,11,.07,3,0h.77l.28,0-.24,0h-.75l-2.92,0-11,.08-37.8.11h-.25v-.25c0-2.81,0-5.72,0-8.71v-9.11h0l.26-.26,52.67.09h.17v.17c0,5.59-.07,10.07-.09,13.17,0,1.5,0,2.67-.05,3.5,0,.37,0,.66,0,.89A2.74,2.74,0,0,1,253.19,436.25Z" style="fill:#263238"></path><rect x="255.37" y="418.4" width="52.67" height="17.85" style="fill:#000080"></rect><path d="M308,436.25a2.33,2.33,0,0,1,0-.32l0-.93c0-.83,0-2,0-3.53,0-3.08,0-7.52-.09-13.07l.17.17-52.67.09.26-.26h0v9.11c0,3,0,5.9,0,8.71l-.25-.25,37.63.12,11,.07,3,0h.77l.28,0-.24,0h-.75l-2.91,0-11,.08-37.81.11h-.25v-.25c0-2.81,0-5.72,0-8.71v-9.11h0l.26-.26,52.67.09h.17v.17c0,5.59-.07,10.07-.09,13.17,0,1.5,0,2.67-.05,3.5,0,.37,0,.66,0,.89S308,436.26,308,436.25Z" style="fill:#263238"></path><rect x="311.23" y="418.4" width="52.67" height="17.85" style="fill:#000080"></rect><path d="M363.9,436.25a1.27,1.27,0,0,1,0-.32c0-.24,0-.54,0-.93,0-.83,0-2,0-3.53,0-3.08-.06-7.52-.1-13.07l.18.17-52.67.09.26-.26h0V423c0,1.52,0,3,0,4.52v8.71l-.25-.25,37.63.12,11,.07,3,0h.77l.28,0-.25,0h-.74l-2.92,0-11,.08-37.8.11H311V418.43h0l.26-.26,52.67.09h.17v.17c0,5.59-.07,10.07-.1,13.17,0,1.5,0,2.67,0,3.5,0,.37,0,.66,0,.89A2.74,2.74,0,0,1,363.9,436.25Z" style="fill:#263238"></path><rect x="367.25" y="418.4" width="55.25" height="17.85" style="fill:#000080"></rect><path d="M422.5,436.25a1.2,1.2,0,0,1,0-.32c0-.24,0-.54,0-.92,0-.83,0-2,0-3.53,0-3.08-.05-7.51-.09-13.08l.17.17-55.25.09.26-.26h0v9.1c0,3,0,5.9,0,8.72l-.25-.25,39.46.11,11.57.08,3.12,0h.81l.29,0-.26,0h-.78l-3.07,0-11.51.08-39.63.11H367v-.25c0-2.82,0-5.74,0-8.72v-9.1h0l.26-.26,55.25.09h.17v.17c0,5.61-.08,10.08-.1,13.18,0,1.5,0,2.67,0,3.49,0,.37,0,.67,0,.89A2.74,2.74,0,0,1,422.5,436.25Z" style="fill:#263238"></path><rect x="89.93" y="418.33" width="52.67" height="17.85" style="fill:#000080"></rect><path d="M142.6,436.18a2,2,0,0,1,0-.32c0-.24,0-.54,0-.93,0-.83,0-2,0-3.53,0-3.08-.05-7.52-.09-13.07l.17.18-52.67.08.26-.26h0v9.12c0,3,0,5.9,0,8.71l-.25-.25,37.63.12,11,.07,3,0,.78,0h.27a1,1,0,0,1-.24,0h-.75l-2.91,0-11,.07-37.81.11h-.25v-.25c0-2.81,0-5.72,0-8.71v-9.12h0l.26-.26,52.67.09h.17v.17c0,5.6-.07,10.07-.09,13.17,0,1.5,0,2.67,0,3.5,0,.37,0,.67,0,.89A1.38,1.38,0,0,1,142.6,436.18Z" style="fill:#263238"></path><rect x="117.03" y="398.13" width="52.67" height="17.85" style="fill:#000080"></rect><path d="M169.7,416a1.32,1.32,0,0,1,0-.33c0-.23,0-.54,0-.92,0-.84,0-2,0-3.54,0-3.08-.06-7.51-.1-13.06l.18.17-52.67.09.26-.26h0v9.13c0,3,0,5.89,0,8.71l-.25-.26,37.63.12,11,.07,3,0,.77,0a1,1,0,0,1,.28,0h-.25l-.74,0-2.92,0-11,.07-37.8.12h-.25V398.14h0l.26-.26,52.67.08h.17v.18c0,5.59-.07,10.06-.1,13.17,0,1.5,0,2.67,0,3.49l0,.89C169.71,415.88,169.7,416,169.7,416Z" style="fill:#263238"></path><rect x="172.82" y="398.13" width="52.67" height="17.85" style="fill:#000080"></rect><path d="M225.49,416s0-.12,0-.33,0-.54,0-.92c0-.84,0-2,0-3.54,0-3.08-.06-7.51-.1-13.06l.17.17-52.66.09c-.24.23.31-.32.25-.26h0V416l-.26-.26,37.64.12,11,.07,3,0,.78,0a.8.8,0,0,1,.27,0h-.24l-.74,0-2.92,0-11,.07-37.81.12h-.25v-9c0-1.49,0-3,0-4.53v-4.6h0c-.05.05.5-.5.27-.26l52.66.08h.18v.18c0,5.59-.08,10.06-.1,13.17,0,1.5,0,2.67,0,3.49,0,.37,0,.67,0,.89A1.71,1.71,0,0,1,225.49,416Z" style="fill:#263238"></path><rect x="227.67" y="398.13" width="52.67" height="17.85" style="fill:#000080"></rect><path d="M280.34,416s0-.12,0-.33,0-.54,0-.92c0-.84,0-2,0-3.54,0-3.08-.06-7.51-.1-13.06l.17.17-52.66.09.26-.26h0V416l-.26-.26,37.64.12,11,.07,3,0,.77,0a.8.8,0,0,1,.27,0h-.24l-.74,0-2.92,0-11,.07-37.81.12h-.25v-9c0-1.49,0-3,0-4.53v-4.6h0c0,.05.5-.5.27-.26l52.66.08h.18v.18c0,5.59-.08,10.06-.1,13.17,0,1.5,0,2.67,0,3.49,0,.37,0,.67,0,.89A1,1,0,0,1,280.34,416Z" style="fill:#263238"></path><rect x="283.53" y="398.13" width="52.67" height="17.85" style="fill:#000080"></rect><path d="M336.2,416s0-.12,0-.33v-.92c0-.84,0-2-.05-3.54,0-3.08-.05-7.51-.09-13.06l.17.17-52.67.09.26-.26h0v9.13c0,3,0,5.89,0,8.71l-.25-.26,37.64.12,11,.07,3,0,.78,0a.85.85,0,0,1,.27,0H336l-.75,0-2.91,0-11,.07-37.81.12h-.25V416c0-2.82,0-5.73,0-8.71v-9.13h0l.26-.26,52.67.08h.17v.18c0,5.59-.07,10.06-.09,13.17,0,1.5,0,2.67,0,3.49,0,.37,0,.67,0,.89A1.71,1.71,0,0,1,336.2,416Z" style="fill:#263238"></path><rect x="339.55" y="398.13" width="52.67" height="17.85" style="fill:#000080"></rect><path d="M392.22,416s0-.12,0-.33,0-.54,0-.92c0-.84,0-2,0-3.54,0-3.08-.06-7.51-.1-13.06l.17.17-52.66.09c-.24.23.31-.32.25-.26h0V416l-.26-.26,37.64.12,11,.07,3,0,.78,0a.8.8,0,0,1,.27,0H392l-.74,0-2.92,0-11,.07-37.81.12h-.25v-9c0-1.49,0-3,0-4.53v-4.6h0c-.05.05.5-.5.27-.26l52.66.08h.18v.18c0,5.59-.08,10.06-.1,13.17,0,1.5,0,2.67,0,3.49,0,.37,0,.67,0,.89A1.71,1.71,0,0,1,392.22,416Z" style="fill:#263238"></path><rect x="62.24" y="398.06" width="52.67" height="17.85" style="fill:#000080"></rect><path d="M114.91,415.91a1.32,1.32,0,0,1,0-.33c0-.23,0-.54,0-.92,0-.84,0-2,0-3.53,0-3.09-.06-7.52-.1-13.07l.18.17-52.67.09.26-.26h0v9.13c0,3,0,5.89,0,8.71l-.25-.26,37.63.12,11,.07,3,0,.77,0,.28,0h-.25l-.74,0L111,416,100,416l-37.8.12H62v-.25c0-2.82,0-5.73,0-8.71v-9.13h0c-.06.05.49-.5.26-.26l52.67.09h.17v.17c0,5.59-.07,10.06-.1,13.17,0,1.5,0,2.67,0,3.49,0,.38,0,.67,0,.9S114.91,415.91,114.91,415.91Z" style="fill:#263238"></path><rect x="62.24" y="418.43" width="25.57" height="17.85" style="fill:#000080"></rect><path d="M87.81,436.28a2.47,2.47,0,0,1,0-.34c0-.26,0-.57,0-1,0-.88,0-2.09-.05-3.62,0-3.14-.06-7.56-.11-12.93l.21.21-25.57.05c-.06.06.49-.49.26-.25h0v4.7c0,1.55,0,3.08,0,4.57,0,3,0,5.86,0,8.56l-.23-.23,18.37.11,5.28.07,1.41,0,.51,0a2.29,2.29,0,0,1-.45,0l-1.37,0-5.22.06-18.53.12H62v-.24c0-2.7,0-5.57,0-8.56v-9.27h0c-.24.23.31-.32.26-.27l25.57.05H88v.21c0,5.42-.08,9.89-.11,13.06,0,1.51,0,2.7,0,3.57,0,.38,0,.68,0,.92A.87.87,0,0,1,87.81,436.28Z" style="fill:#263238"></path><rect x="395.58" y="398.08" width="26.92" height="17.85" style="fill:#000080"></rect><path d="M422.5,415.92a1.55,1.55,0,0,1,0-.34c0-.25,0-.56,0-.95,0-.88,0-2.09-.05-3.61,0-3.14-.07-7.56-.11-12.94l.21.2-26.92.06.26-.26h0v4.69c0,1.54,0,3.06,0,4.56,0,3,0,5.86,0,8.58l-.23-.23,19.32.11,5.57.07,1.49,0,.54,0a2.76,2.76,0,0,1-.48,0l-1.45,0-5.51.07-19.48.11h-.24v-.25c0-2.72,0-5.6,0-8.58v-9.25h0l.26-.26,26.92.05h.21v.21c0,5.43-.08,9.9-.11,13.07,0,1.5,0,2.69,0,3.56,0,.37,0,.67,0,.92S422.5,415.93,422.5,415.92Z" style="fill:#263238"></path><rect x="117.7" y="438.88" width="52.67" height="17.85" style="fill:#000080"></rect><path d="M170.37,456.73a2.4,2.4,0,0,1,0-.33c0-.23,0-.54,0-.92,0-.84,0-2,0-3.53,0-3.09,0-7.52-.09-13.07l.17.17-52.67.09.26-.26h0V448c0,3,0,5.89,0,8.71l-.25-.26,37.63.12,11,.07,3,0,.78,0,.27,0h-.24l-.75,0-2.91,0-11,.07L117.7,457h-.25v-.25c0-2.82,0-5.73,0-8.71v-9.13h0l.26-.26,52.67.09h.17v.17c0,5.59-.07,10.06-.09,13.17,0,1.5,0,2.67,0,3.49,0,.38,0,.67,0,.9A1.64,1.64,0,0,1,170.37,456.73Z" style="fill:#263238"></path><rect x="172.98" y="438.88" width="52.67" height="17.85" style="fill:#000080"></rect><path d="M225.65,456.73a2.4,2.4,0,0,1,0-.33c0-.23,0-.54,0-.92,0-.84,0-2,0-3.53,0-3.09,0-7.52-.09-13.07l.17.17-52.67.09.26-.26h0V448c0,3,0,5.89,0,8.71l-.25-.26,37.63.12,11,.07,3,0,.78,0,.27,0h-.24l-.75,0-2.91,0-11,.07L173,457h-.25v-.25c0-2.82,0-5.73,0-8.71v-9.13h0l.26-.26,52.67.09h.17v.17c0,5.59-.07,10.06-.09,13.17,0,1.5,0,2.67,0,3.49,0,.38,0,.67,0,.9A1.64,1.64,0,0,1,225.65,456.73Z" style="fill:#263238"></path><rect x="227.83" y="438.88" width="52.67" height="17.85" style="fill:#000080"></rect><path d="M280.5,456.73s0-.12,0-.33,0-.54,0-.92c0-.84,0-2-.05-3.53,0-3.09-.05-7.52-.09-13.07l.17.17-52.66.09c-.24.23.31-.32.25-.26h0V448c0,3,0,5.89,0,8.71l-.25-.26,37.64.12,11,.07,3,0,.78,0,.27,0h-.24l-.75,0-2.91,0-11,.07-37.81.12h-.25v-.25c0-2.82,0-5.73,0-8.71v-9.13h0l.27-.26,52.66.09h.18v.17c0,5.59-.07,10.06-.09,13.17,0,1.5,0,2.67,0,3.49,0,.38,0,.67,0,.9A1.64,1.64,0,0,1,280.5,456.73Z" style="fill:#263238"></path><rect x="283.69" y="438.88" width="52.67" height="17.85" style="fill:#000080"></rect><path d="M336.36,456.73a2.4,2.4,0,0,1,0-.33c0-.23,0-.54,0-.92,0-.84,0-2,0-3.53,0-3.09,0-7.52-.09-13.07l.17.17-52.67.09.26-.26h0V448c0,3,0,5.89,0,8.71l-.25-.26,37.63.12,11,.07,3,0,.77,0,.28,0h-.24l-.75,0-2.91,0-11,.07-37.81.12h-.25v-.25c0-2.82,0-5.73,0-8.71v-9.13h0l.26-.26,52.67.09h.17v.17c0,5.59-.07,10.06-.09,13.17,0,1.5,0,2.67-.05,3.49,0,.38,0,.67,0,.9S336.36,456.73,336.36,456.73Z" style="fill:#263238"></path><rect x="339.71" y="438.88" width="52.67" height="17.85" style="fill:#000080"></rect><path d="M392.38,456.73a2.4,2.4,0,0,1,0-.33c0-.23,0-.54,0-.92,0-.84,0-2,0-3.53,0-3.09-.05-7.52-.09-13.07l.17.17-52.67.09.26-.26h0V448c0,3,0,5.89,0,8.71l-.25-.26,37.63.12,11,.07,3,0,.78,0,.27,0h-.24l-.75,0-2.91,0-11,.07-37.81.12h-.25v-.25c0-2.82,0-5.73,0-8.71v-9.13h0l.26-.26,52.67.09h.17v.17c0,5.59-.07,10.06-.09,13.17,0,1.5,0,2.67,0,3.49,0,.38,0,.67,0,.9A1.64,1.64,0,0,1,392.38,456.73Z" style="fill:#263238"></path><rect x="62.39" y="438.81" width="52.67" height="17.85" style="fill:#000080"></rect><path d="M115.06,456.66s0-.12,0-.33,0-.53,0-.92c0-.83,0-2,0-3.53,0-3.08-.06-7.52-.1-13.07l.17.17-52.66.09c-.24.23.31-.32.25-.26h0v17.84l-.26-.25,37.64.11,11,.07,3,0h.77a1.39,1.39,0,0,1,.27,0h-.24l-.74,0-2.92,0-11,.07-37.81.12h-.25v-9c0-1.49,0-3,0-4.53v-4.6h0l.27-.26,52.66.09h.18v.17c0,5.59-.08,10.06-.1,13.17,0,1.5,0,2.67,0,3.5,0,.37,0,.66,0,.89A.88.88,0,0,1,115.06,456.66Z" style="fill:#263238"></path><rect x="395.73" y="438.83" width="26.92" height="17.85" style="fill:#000080"></rect><path d="M422.65,456.68s0-.13,0-.35,0-.56,0-.95c0-.88,0-2.09-.06-3.61,0-3.13-.06-7.56-.1-12.94l.2.21-26.91,0c-.06.05.49-.49.25-.26h0v9.25c0,3,0,5.86,0,8.59l-.24-.24,19.33.12,5.57.06,1.49,0,.53,0a2.3,2.3,0,0,1-.48,0l-1.44,0-5.51.07-19.49.12h-.24v-.24c0-2.73,0-5.6,0-8.59,0-1.49,0-3,0-4.56v-4.69h0c-.23.23.32-.32.27-.26l26.91.05h.21v.21c0,5.43-.08,9.9-.11,13.07,0,1.5,0,2.7-.05,3.56,0,.37,0,.68,0,.92A1.16,1.16,0,0,1,422.65,456.68Z" style="fill:#263238"></path><rect x="144.64" y="459.6" width="52.67" height="17.85" style="fill:#000080"></rect><path d="M197.31,477.45s0-.11,0-.32v-.92c0-.84,0-2-.05-3.54,0-3.08,0-7.52-.09-13.07l.17.18-52.66.09c-.24.23.31-.32.25-.26h0v9.13c0,3,0,5.89,0,8.7l-.25-.25,37.64.12,11,.07,3,0,.78,0h.27s-.07,0-.24,0l-.74,0-2.92,0-11,.07-37.81.12h-.25v-.26c0-2.81,0-5.72,0-8.7v-9.13h0l.27-.27,52.66.09h.18v.17c0,5.6-.07,10.07-.09,13.18,0,1.5,0,2.67,0,3.49,0,.37,0,.67,0,.89A1.38,1.38,0,0,1,197.31,477.45Z" style="fill:#263238"></path><rect x="200.44" y="459.6" width="52.67" height="17.85" style="fill:#000080"></rect><path d="M253.11,477.45a2,2,0,0,1,0-.32c0-.23,0-.54,0-.92,0-.84,0-2,0-3.54,0-3.08-.05-7.52-.09-13.07l.17.18-52.67.09.26-.26h0v9.13c0,3,0,5.89,0,8.7l-.25-.25,37.63.12,11,.07,3,0,.78,0h.27l-.24,0-.75,0-2.91,0-11,.07-37.81.12h-.25v-.26c0-2.81,0-5.72,0-8.7v-9.13h0c-.06.05.49-.5.26-.27l52.67.09h.17v.17c0,5.6-.07,10.07-.09,13.18,0,1.5,0,2.67-.05,3.49v.89C253.12,477.36,253.11,477.46,253.11,477.45Z" style="fill:#263238"></path><rect x="255.29" y="459.6" width="52.67" height="17.85" style="fill:#000080"></rect><path d="M308,477.45a2,2,0,0,1,0-.32c0-.23,0-.54,0-.92,0-.84,0-2,0-3.54,0-3.08-.05-7.52-.09-13.07l.17.18-52.67.09.26-.26h0v9.13c0,3,0,5.89,0,8.7l-.25-.25,37.63.12,11,.07,3,0,.78,0H308a1,1,0,0,1-.24,0l-.75,0-2.91,0-11,.07-37.81.12H255v-.26c0-2.81,0-5.72,0-8.7v-9.13h0c-.06.05.5-.5.26-.27l52.67.09h.17v.17c0,5.6-.07,10.07-.09,13.18,0,1.5,0,2.67,0,3.49,0,.37,0,.67,0,.89A1.38,1.38,0,0,1,308,477.45Z" style="fill:#263238"></path><rect x="311.15" y="459.6" width="52.67" height="17.85" style="fill:#000080"></rect><path d="M363.82,477.45a2,2,0,0,1,0-.32c0-.23,0-.54,0-.92,0-.84,0-2,0-3.54,0-3.08-.06-7.52-.1-13.07l.18.18-52.67.09c-.23.23.31-.32.26-.26h0v9.13c0,3,0,5.89,0,8.7l-.25-.25,37.63.12,11,.07,3,0,.77,0h.28l-.25,0-.74,0-2.92,0-11,.07-37.8.12h-.25v-.26c0-2.81,0-5.72,0-8.7v-9.13h0c-.06.05.49-.5.26-.27l52.67.09H364v.17c0,5.6-.07,10.07-.1,13.18,0,1.5,0,2.67,0,3.49,0,.37,0,.67,0,.89A2.74,2.74,0,0,1,363.82,477.45Z" style="fill:#263238"></path><rect x="367.17" y="459.6" width="55.25" height="17.85" style="fill:#000080"></rect><path d="M422.42,477.45a2,2,0,0,1,0-.32l0-.92c0-.83,0-2,0-3.53,0-3.07,0-7.51-.09-13.08l.17.17-55.25.1.26-.26h0v9.11c0,3,0,5.9,0,8.72l-.25-.25,39.46.12,11.57.07,3.12,0,.81,0h.29l-.26,0-.78,0-3.07,0-11.51.07-39.63.12h-.25v-.26c0-2.82,0-5.73,0-8.72v-9.11h0c.52-.53.15-.15.26-.27l55.25.1h.17v.16c0,5.61-.07,10.08-.1,13.19,0,1.5,0,2.66,0,3.48l0,.89A2.74,2.74,0,0,1,422.42,477.45Z" style="fill:#263238"></path><rect x="89.85" y="459.54" width="52.67" height="17.85" style="fill:#000080"></rect><path d="M142.52,477.39s0-.12,0-.33,0-.54,0-.92c0-.84,0-2-.05-3.54,0-3.08-.05-7.51-.09-13.06l.17.17-52.66.09c-.24.23.31-.32.25-.26h0v9.13c0,3,0,5.89,0,8.7l-.25-.25,37.64.12,11,.07,3,0,.78,0a.85.85,0,0,1,.27,0h-.24l-.74,0-2.92,0-11,.07-37.81.12H89.6v-.26c0-2.81,0-5.72,0-8.7v-9.13h0c-.06,0,.5-.5.27-.26l52.66.08h.18v.18c0,5.59-.07,10.06-.09,13.17,0,1.5,0,2.67,0,3.49,0,.37,0,.67,0,.89A1.71,1.71,0,0,1,142.52,477.39Z" style="fill:#263238"></path><rect x="62.16" y="459.64" width="25.57" height="17.85" style="fill:#000080"></rect><path d="M87.73,477.49a2.73,2.73,0,0,1,0-.35c0-.25,0-.57,0-1,0-.88,0-2.09-.06-3.61,0-3.14-.06-7.57-.11-12.93l.21.21-25.57,0c-.06.05.49-.5.26-.26h0v4.7c0,1.55,0,3.08,0,4.57,0,3,0,5.86,0,8.57l-.24-.24,18.37.12,5.28.06,1.42,0,.5,0-.45,0-1.37,0-5.22.07-18.53.11h-.24v-.23c0-2.71,0-5.58,0-8.57v-9.27h0l.26-.26,25.57.05h.21v.21c0,5.42-.08,9.89-.11,13.06,0,1.5,0,2.7,0,3.56,0,.38,0,.68,0,.93A1.16,1.16,0,0,1,87.73,477.49Z" style="fill:#263238"></path><path d="M292.49,141.54s9,2.76,12.69,6.71,21.63,35.91,21.63,35.91,3.46,3.81,5.23,6c1.24,1.51,2.15,4.55,2.67,6.65a3.9,3.9,0,0,1-1.44,4.06c-4.67,3.5-16.14,9.7-20.94,12.9a2.71,2.71,0,0,1-3.79-.81c-1.73-2.74-4.34-7.15-4.34-8.82a14.11,14.11,0,0,0-1.33-5.23L292.61,180.2Z" style="fill:#e0e0e0"></path><path d="M333.84,212c-2-8.3-3.72-13.29-3.72-13.29-8.83,0-15.83,4.18-18.84,12.48h0s2.38,4.43,4.46,9.16c1.26,2.89,5,13,5,13l17,1.57S336.18,221.86,333.84,212Z" style="fill:#ffbf9d"></path><path d="M340,242.09l.63-15.26a38.24,38.24,0,0,0-24.88.63s4.66,10.19,3.53,16l-3.06,4.8a12.47,12.47,0,0,0-2.61,2.22c-5.12.89-9.67,6.33-9.67,6.33l8.13.07-2.16,4.83-2.44,6.06a1.46,1.46,0,0,0,.59,1.79,3,3,0,0,0,3.9-.47l5.48-10.21s-5.62,14-1.09,14.39c2.63.23,3.29-2.3,7.78-12.92,0,0-2.65,13.75,1.63,13.76,3.77,0,3.27-5.94,4.47-9.58.21,2.23,0,6.59,2.84,6.84s2.56-7.25,3.43-9.43,5.16-7.93,5.16-7.93a8.57,8.57,0,0,0,.27-6.32Z" style="fill:#455a64"></path><path d="M333.84,254.27a15.12,15.12,0,0,1-1.09,1.53,13,13,0,0,0-1.86,4,13.2,13.2,0,0,0-.4,4.43,15.49,15.49,0,0,1,.2,1.87,4.36,4.36,0,0,1-.56-1.83,11.34,11.34,0,0,1,.25-4.61,11.22,11.22,0,0,1,2.07-4.12A4.58,4.58,0,0,1,333.84,254.27Z" style="fill:#263238"></path><path d="M327.61,252.86a22.51,22.51,0,0,1-1.76,3.47h0a14.29,14.29,0,0,0-1.59,5,64.3,64.3,0,0,0-.71,6.47,20.13,20.13,0,0,1-.22,2.7,11.28,11.28,0,0,1-.15-2.72,41.52,41.52,0,0,1,.57-6.54,13.36,13.36,0,0,1,1.75-5.15h0A26.08,26.08,0,0,1,327.61,252.86Z" style="fill:#263238"></path><path d="M321.49,252.19a16.61,16.61,0,0,0-1.69,1.91c-.95,1.27-1.53,3.39-2.3,5.71s-1.4,4.24-1.95,5.93a14.9,14.9,0,0,1-.91,2.43,11.09,11.09,0,0,1,.56-2.53c.42-1.55,1.05-3.67,1.8-6,.38-1.16.75-2.27,1.13-3.26a9.37,9.37,0,0,1,1.37-2.51A4.69,4.69,0,0,1,321.49,252.19Z" style="fill:#263238"></path><path d="M319.63,243a12.09,12.09,0,0,1-1,2.17L316,250.28a47.69,47.69,0,0,1-4.13,7.08,12,12,0,0,1,1-2.18c.76-1.49,1.66-3.22,2.64-5.14C317.58,246,319.49,242.87,319.63,243Z" style="fill:#263238"></path><path d="M337,241.67c0,.17-3.49-.5-7.8-.37s-7.74.95-7.78.79a8.73,8.73,0,0,1,2.22-.66,30.81,30.81,0,0,1,11.11-.29A8.17,8.17,0,0,1,337,241.67Z" style="fill:#263238"></path><path d="M327.8,185.9c0,.1-1.68.33-4.29,1.14a34.39,34.39,0,0,0-4.46,1.72,35.12,35.12,0,0,0-9.61,6.65,34.26,34.26,0,0,0-3.19,3.57c-1.67,2.16-2.49,3.65-2.58,3.6a5.58,5.58,0,0,1,.53-1.07,10.61,10.61,0,0,1,.71-1.21,18.53,18.53,0,0,1,1-1.54,30.59,30.59,0,0,1,3.15-3.7,35.74,35.74,0,0,1,4.56-3.81,35.09,35.09,0,0,1,5.17-2.92,32.41,32.41,0,0,1,4.57-1.65c.66-.2,1.28-.31,1.81-.43a10.32,10.32,0,0,1,1.38-.24A4.68,4.68,0,0,1,327.8,185.9Z" style="fill:#263238"></path><path d="M339.28,228.35c0,.22-4.81-1.5-10.92-1.28a48,48,0,0,0-7.72,1,25.3,25.3,0,0,1-3.19.59s.28-.15.82-.31,1.32-.39,2.29-.64a38.23,38.23,0,0,1,7.78-1.17,29.75,29.75,0,0,1,7.84.8c1,.25,1.76.47,2.29.67A3.06,3.06,0,0,1,339.28,228.35Z" style="fill:#263238"></path><g style="opacity:0.30000000000000004"><path d="M298.41,157.09c-1.6,9.77-1.81,16.64-4,26,3.12-3.4,4.32-7.14,4.65-11.84A56.12,56.12,0,0,0,298.41,157.09Z"></path></g><path d="M297.55,161.76a22.39,22.39,0,0,1-.31,3.44c-.27,2.12-.68,5.05-1.19,8.26s-1,6.13-1.47,8.22c-.21,1-.41,1.89-.56,2.47a4.05,4.05,0,0,1-.29.89,26.26,26.26,0,0,1,.49-3.43c.36-2.25.81-5.09,1.32-8.23s1-6,1.33-8.23A24.05,24.05,0,0,1,297.55,161.76Z" style="fill:#263238"></path></g><g id="freepik--Plants--inject-38"><path d="M158.43,421.42a10.41,10.41,0,0,1,5.42,6.13,18.4,18.4,0,0,1,.72,8.31c-.61,5.4-3.68,10.84-7,15.15-4.54-4-5.58-10.88-5.89-14.42-.49-5.6,2-16,6.73-15.17" style="fill:#455a64"></path><path d="M162.87,459.91a8.91,8.91,0,0,1,2.88-8.47,11.82,11.82,0,0,1,8.74-2.73,5,5,0,0,1,3.83,1.72,3.81,3.81,0,0,1,.06,3.86,7.74,7.74,0,0,1-2.86,2.82c-3.94,2.47-8.2,4.14-12.65,2.8" style="fill:#455a64"></path><path d="M157.05,476.45a5.54,5.54,0,0,1,.16-1.11c.14-.78.33-1.78.55-3a31.32,31.32,0,0,1,3.09-9.57,19.22,19.22,0,0,1,6.87-7.3,12.75,12.75,0,0,1,2.8-1.24,7.6,7.6,0,0,1,.8-.2.92.92,0,0,1,.29,0,20.89,20.89,0,0,0-3.75,1.72,19.89,19.89,0,0,0-6.67,7.25A33.89,33.89,0,0,0,158,472.4c-.27,1.26-.5,2.28-.67,3A6.66,6.66,0,0,1,157.05,476.45Z" style="fill:#263238"></path><path d="M157.22,429.52a2.74,2.74,0,0,1,.06.48c0,.36,0,.82.08,1.39.06,1.21.13,2.95.2,5.12.14,4.32.25,10.29.22,16.89s-.19,12.57-.36,16.89c-.09,2.16-.18,3.91-.25,5.11,0,.57-.07,1-.1,1.39a1.61,1.61,0,0,1-.06.49,2.66,2.66,0,0,1,0-.49c0-.36,0-.82,0-1.39,0-1.26.08-3,.13-5.12.1-4.32.22-10.29.25-16.88s0-12.57-.11-16.89c0-2.12-.06-3.86-.08-5.12V430A2.49,2.49,0,0,1,157.22,429.52Z" style="fill:#263238"></path><path d="M155,463.2a20.88,20.88,0,0,0-11.39-15.28c-1.52-.73-3.5-1.21-4.75-.08s-1,3.16-.36,4.73a17.82,17.82,0,0,0,16.39,11.07" style="fill:#455a64"></path><path d="M144.36,453a6.78,6.78,0,0,1,1,.42,12.21,12.21,0,0,1,1.08.58c.41.26.91.51,1.39.87a16.59,16.59,0,0,1,1.59,1.2,19.25,19.25,0,0,1,1.68,1.53,23,23,0,0,1,3.21,4.12,22,22,0,0,1,2.11,4.78,18.77,18.77,0,0,1,.54,2.22,17.26,17.26,0,0,1,.27,2c.08.61.06,1.16.08,1.64a9.2,9.2,0,0,1,0,1.23,5,5,0,0,1-.12,1.05c-.09,0,.07-1.5-.2-3.89a17.06,17.06,0,0,0-.31-1.93,20.61,20.61,0,0,0-.56-2.18,23.63,23.63,0,0,0-2.11-4.68,24.35,24.35,0,0,0-3.12-4.07c-.56-.56-1.1-1.09-1.64-1.54s-1.06-.85-1.54-1.21C145.69,453.73,144.32,453.11,144.36,453Z" style="fill:#263238"></path><path d="M348.42,438.33a10.74,10.74,0,0,1,1.09,1.27c.68.83,1.6,2.09,2.67,3.69a65.37,65.37,0,0,1,3.43,5.82,64.93,64.93,0,0,1,5.73,15.51,64.07,64.07,0,0,1,1.18,6.66c.22,1.91.34,3.46.37,4.54a12,12,0,0,1,0,1.67,9.19,9.19,0,0,1-.2-1.66c-.09-1.07-.27-2.61-.54-4.5s-.69-4.14-1.28-6.6a69.61,69.61,0,0,0-5.69-15.4c-1.15-2.25-2.28-4.23-3.31-5.84s-1.89-2.9-2.53-3.77A10.55,10.55,0,0,1,348.42,438.33Z" style="fill:#263238"></path><path d="M369.79,429.48a1.82,1.82,0,0,1-.07.49c-.09.37-.19.83-.31,1.38-.29,1.19-.66,2.93-1.06,5.08s-.8,4.74-1.12,7.62-.51,6.06-.55,9.4.12,6.53.36,9.41.59,5.48,1,7.64.69,3.91.95,5.11l.28,1.38a1.56,1.56,0,0,1,.06.5,2.62,2.62,0,0,1-.16-.47l-.38-1.37c-.32-1.18-.71-2.92-1.12-5.09s-.78-4.75-1.07-7.65-.43-6.1-.4-9.47.28-6.55.6-9.45.77-5.48,1.23-7.63.87-3.88,1.22-5.06l.41-1.36C369.71,429.63,369.77,429.47,369.79,429.48Z" style="fill:#263238"></path><path d="M386.08,443.71a8.56,8.56,0,0,1-.84,1.17c-.28.35-.62.8-1,1.34s-.82,1.12-1.25,1.81a47.72,47.72,0,0,0-2.83,5,45.18,45.18,0,0,0-4.12,13.36,45.76,45.76,0,0,0-.46,5.72c0,.81,0,1.55,0,2.2s0,1.21.07,1.67a7.32,7.32,0,0,1,0,1.42,6.45,6.45,0,0,1-.23-1.41,15.56,15.56,0,0,1-.16-1.67c0-.65-.1-1.39-.08-2.22a40.2,40.2,0,0,1,.36-5.78,44.5,44.5,0,0,1,1.52-6.92,45.76,45.76,0,0,1,2.64-6.58,41.48,41.48,0,0,1,3-5c.45-.69.92-1.27,1.32-1.79s.76-1,1.07-1.29A7.66,7.66,0,0,1,386.08,443.71Z" style="fill:#263238"></path></g></svg>